<?xml version="1.0" encoding="UTF-8" standalone="no"?>
<svg
   xmlns:dc="http://purl.org/dc/elements/1.1/"
   xmlns:cc="http://creativecommons.org/ns#"
   xmlns:rdf="http://www.w3.org/1999/02/22-rdf-syntax-ns#"
   xmlns:svg="http://www.w3.org/2000/svg"
   xmlns="http://www.w3.org/2000/svg"
   xmlns:sodipodi="http://sodipodi.sourceforge.net/DTD/sodipodi-0.dtd"
   xmlns:inkscape="http://www.inkscape.org/namespaces/inkscape"
   width="446.72842"
   height="257.599"
   viewBox="0 0 118.1969 68.156402"
   version="1.1"
   id="svg8"
   inkscape:version="1.0 (4035a4fb49, 2020-05-01)"
   sodipodi:docname="martinandI-draft3.svg">
  <defs
     id="defs2" />
  <sodipodi:namedview
     inkscape:pagecheckerboard="true"
     units="px"
     id="base"
     pagecolor="#ffffff"
     bordercolor="#666666"
     borderopacity="1.0"
     inkscape:pageopacity="0.0"
     inkscape:pageshadow="2"
     inkscape:zoom="1"
     inkscape:cx="69.120315"
     inkscape:cy="190.32719"
     inkscape:document-units="px"
     inkscape:current-layer="layer6"
     inkscape:document-rotation="0"
     showgrid="false"
     fit-margin-top="0"
     fit-margin-left="0"
     fit-margin-right="0"
     fit-margin-bottom="0"
     inkscape:window-width="1920"
     inkscape:window-height="1017"
     inkscape:window-x="-8"
     inkscape:window-y="-8"
     inkscape:window-maximized="1"
     inkscape:snap-global="false" />
  <metadata
     id="metadata5">
    <rdf:RDF>
      <cc:Work
         rdf:about="">
        <dc:format>image/svg+xml</dc:format>
        <dc:type
           rdf:resource="http://purl.org/dc/dcmitype/StillImage" />
        <dc:title></dc:title>
      </cc:Work>
    </rdf:RDF>
  </metadata>
  <g
     inkscape:groupmode="layer"
     id="layer6"
     inkscape:label="TRACE 4"
     style="display:inline"
     transform="translate(-0.7079467,-0.41681)">
    <g
       id="g1356"
       style="display:inline"
       transform="translate(-55.245836,-113.79849)">
      <path
         sodipodi:nodetypes="scccccccccccccccccccccccccccccccccccccsscccccccccccccccccc"
         d="m 140.67367,182.28431 c -18.90728,-0.20339 -37.83713,-0.39032 -56.730851,-0.4479 -1.090094,0.61717 -4.958224,0.0738 -7.424084,0.27379 -4.306587,-0.0225 -8.613373,-0.0204 -12.919715,-0.0769 0.08202,-6.86129 -0.03328,-13.73327 0.213502,-20.58609 1.16301,-0.39674 2.41506,-1.10666 3.242375,-1.62904 1.133004,-0.88628 1.760661,-1.52706 2.742733,-2.93084 0.73711,-0.80461 2.143126,-1.74178 2.762642,-2.43422 0.448801,-1.0308 1.411216,-3.20305 2.080131,-4.59311 0.72455,-1.38513 1.501116,-2.28337 2.019171,-3.51746 0.90909,-1.49149 0.380571,-1.03001 1.689229,-2.17418 1.173465,-1.12985 2.734963,-2.69226 3.335648,-1.06075 -0.232654,2.0666 1.589264,3.41745 1.672509,4.93184 0.366323,0.7777 1.180362,2.05487 3.490171,1.16866 1.199516,-0.99026 1.741914,-1.74244 3.407539,-2.0883 1.825465,-0.97165 3.563848,-0.1572 4.043681,-1.10251 1.11291,0.32707 2.634834,0.0201 3.651602,-0.62752 0.581356,0.50663 1.242885,-0.16645 2.645567,-0.63003 2.28117,0.74019 3.62587,0.97363 6.02255,1.42176 1.02068,0.20597 3.68388,1.28726 2.8979,-0.16289 -0.09,-1.07079 -0.72037,-2.7102 -0.84756,-4.32852 0.064,-1.71973 0.35195,-3.73804 0.88765,-4.30692 0.62677,-1.76631 -0.44177,-2.95063 -0.0803,-5.31775 1.36001,-2.79291 1.02451,-5.9785 2.18677,-8.65822 0.96739,-2.01017 1.13004,-4.14753 3.01784,-5.44755 1.405,-0.12246 1.82662,-1.70515 3.43503,-1.79675 2.18139,-0.72218 4.40571,-1.56405 6.46193,-0.93159 1.82053,-1.50548 4.47245,-0.53372 5.37904,-0.64105 0.025,0.15667 1.41857,0.88534 1.60261,1.13115 0.227,0.95091 1.62487,2.48185 2.87893,3.10349 1.00375,1.55501 3.11484,1.57289 4.54175,2.38072 0.86829,1.14488 2.38068,1.71917 2.57786,2.54166 1.14634,0.55098 0.87169,2.39344 2.45019,3.03273 0.87926,2.29624 3.78931,3.10035 3.14429,6.06157 0.15892,3.11138 0.69387,5.31815 0.37808,9.08358 -0.0581,6.63966 -0.15076,13.2799 -0.1135,19.91973 0.49033,3.08653 0.22783,6.33983 0.54332,9.4881 -0.0114,3.59511 -0.0735,7.18979 -0.11776,10.78459 -2.25356,0.48124 -4.78895,0.0969 -7.16845,0.16674 z m -29.22355,-23.51804 c -0.91345,-3.04279 0.36133,2.93463 0,0 z m 0.24189,-10.82658 c -0.84768,-2.47034 -1.06382,-1.21052 0.0955,0.27001 z m 8.02666,-0.53503 c 0.60066,-0.22474 1.63842,-6.25634 0.67386,-2.302 -0.15064,0.57314 -1.2883,2.17762 -0.67386,2.302 z m -9.56965,-1.74585 c -0.7195,-3.62085 -0.12696,0.95145 0.14591,0.61861 l -0.14585,-0.61861 z m 20.2248,-7.41398 c -2e-5,-3e-5 1.1e-4,1e-5 1e-4,-2e-5 z m -14.81187,-0.84367 c -1.93743,-1.62029 -1.71852,-0.70548 -0.42129,-0.055 0.10926,-0.15016 0.82548,0.5251 0.42129,0.055 z"
         style="fill:#e6e6e6;fill-opacity:1;stroke-width:0.0846667"
         id="path1364" />
      <path
         id="path1362"
         style="fill:#aaaaaa;fill-opacity:1;stroke-width:0.0846667"
         d="m 140.208,182.1914 c -2.54883,-0.36493 -4.15563,0.0528 -7.18285,-0.0458 -17.38937,-0.27551 -34.012088,-0.11225 -48.950961,-0.44287 -5.388481,0.32397 -8.479407,0.52839 -13.723278,0.29315 -2.22385,-0.0815 -4.49132,0.0989 -6.739923,0.0373 -6.026501,0.0275 -9.955176,1.0967 -6.163739,-5.40539 -0.351502,-3.56813 6.648685,-13.34624 6.69816,-14.46532 1.466318,-1.64408 3.699315,-2.92335 4.888705,-3.98378 0.733441,-1.49833 2.747858,-2.35022 3.835334,-3.80607 0.833358,-2.66049 2.224215,-4.93516 3.551437,-7.37516 0.711322,-1.35064 3.008575,-4.19287 1.321048,-0.97239 -0.841959,1.89276 -0.624924,4.5658 0.968843,1.55767 0.879043,0.059 1.294464,-1.02914 2.198087,1.16476 1.041124,1.34146 1.993277,3.42047 3.599284,3.02339 1.728744,0.61632 2.408891,3.31115 2.790162,1.7587 0.174382,2.19802 3.104445,2.41754 0.935225,-0.0683 -1.343824,-1.78575 0.02589,-3.28334 1.099399,-1.01685 1.952235,0.18086 3.012102,4.67788 3.276032,1.22548 1.144479,-1.11355 0.03309,-2.91359 0.467177,-3.05482 -0.941634,-0.7659 0.508689,-1.16223 1.498466,-1.86126 -0.148981,2.08898 0.10663,2.72741 0.428722,0.19984 -0.370484,-2.43449 -3.733533,1.30483 -4.452097,1.79658 -1.414261,-0.30788 -5.62047,-0.48617 -2.201336,-2.35992 -1.344538,1.08913 -3.496216,1.9713 -0.721997,0.2251 1.126385,-0.57155 2.08297,-2.02969 1.511864,-0.4809 2.683606,-0.6803 0.576274,-0.69487 2.049421,-1.32278 1.951564,0.46239 5.440936,-0.66228 8.050925,-0.10929 0.668136,1.76128 -0.471627,6.21888 1.01384,2.24008 1.18976,-3.59141 -1.605889,3.41963 -0.2274,-0.90658 1.38801,-1.70354 3.57972,-1.11852 5.33632,-1.01623 2.19058,0.0435 6.30301,0.23137 6.31859,3.93825 -0.59714,4.02503 6.39997,3.95052 3.35165,7.36373 0.77296,2.5031 4.7719,8.81798 -0.86291,6.67978 -2.93347,-2.41896 -1.71124,-6.69971 -4.49108,-9.16771 -1.59892,-1.84348 1.90683,2.5401 1.66096,3.739 0.32471,3.19512 2.75477,5.68804 3.23189,8.64482 0.40331,1.59116 0.2006,6.58373 1.31009,2.53022 1.01426,-1.64633 1.32447,-4.64201 1.96828,-1.21292 2.57527,1.74796 6.57297,14.11729 8.93823,12.14078 -1.87644,-0.0282 -1.32845,-4.13201 -1.81746,-6.26894 -2.00256,-2.52509 -5.95859,-4.21669 -5.69979,-7.94826 -0.17748,-2.56542 -1.29846,-4.8631 -1.0809,-7.22059 0.37708,-2.65451 1.4339,-3.10961 2.72876,-5.46186 1.21725,-1.61763 -0.97342,-6.99074 0.1252,-6.76729 0.29592,-1.26799 0.61225,-5.37055 -0.32431,-7.59515 0.25082,-1.76013 -1.02701,-5.8603 -0.60436,-1.84704 0.53332,3.33486 0.28754,6.64874 -0.98626,9.42017 0.23054,2.20578 1.5151,3.05311 -0.31327,5.60417 -1.8231,2.0962 -3.9258,1.52305 -5.50303,-0.81121 -1.39548,-3.18105 -2.14437,-6.59967 -3.38537,-9.86252 -1.7751,-3.41455 0.60604,-8.48874 4.58333,-5.67178 3.03295,2.2453 -3.48218,0.60253 -0.0571,0.75055 1.30321,-0.22255 -4.13768,-1.86359 -1.51878,0.85048 0.27994,0.29707 2.3974,-0.67587 2.01901,0.28597 3.75355,0.40219 -1.49839,-4.63729 -3.64728,-3.06601 -1.70228,-1.3578 -0.99612,-8.11381 2.71251,-8.68543 1.85312,-1.16188 5.00529,1.49818 3.70774,0.2126 -1.05523,-1.37815 -2.84501,-3.34409 -3.06074,-5.7585 -0.46006,1.86951 1.55046,5.69258 -1.39349,3.8833 -2.3614,1.04689 0.97033,-2.38897 0.61688,-3.51326 0.56793,-2.0527 4.89284,-4.27785 5.37927,-3.75826 -1.26419,1.85897 -0.92327,3.42162 -1.62383,5.37819 0.62995,5.1171 1.42987,2.73448 1.44031,2.68699 1.08062,1.65975 0.76857,4.02964 -0.11204,1.06769 0.59546,2.48015 1.72539,6.62318 -0.13383,9.5249 0.0775,-3.62292 -3.95882,-4.67642 -6.65473,-5.88011 0.63316,2.30898 6.62252,4.52707 5.78192,7.64365 -0.89614,1.83631 -2.28934,5.03206 -0.56943,2.75284 -0.35644,-0.53878 1.20236,-3.19363 1.77113,-4.65438 1.30147,-1.25932 0.60695,-6.8903 1.32169,-5.92231 1.58555,2.68565 3.24382,1.19177 5.17843,2.70758 -1.67838,-0.17145 4.21026,2.13375 4.18667,4.22412 0.0672,2.91363 0.83691,1.9142 2.6438,3.9146 1.01381,1.12505 3.77975,2.34084 1.68276,1.94997 5.6457,3.37104 2.97946,11.6728 3.15971,3.44686 -1.23513,-3.55467 -3.78542,-6.05065 -6.5595,-8.06717 -1.01904,-3.84008 -4.49644,-6.23072 -7.63442,-8.26723 -1.9345,-2.453 -4.03051,-5.36539 -4.77049,-8.41902 1.61523,-2.39017 1.90197,-5.22803 2.89149,-6.21447 0.53276,-1.77 -5.44066,3.94776 -2.15624,0.54885 -1.63338,-0.33889 -4.43051,1.14052 -5.64896,2.73433 0.0445,-1.11473 1.65127,-1.78336 2.36072,-2.06455 0.45803,-0.57363 1.13656,-0.87668 1.74079,-1.20651 1.82379,-0.52325 2.9155,-0.55162 3.68739,-1.08485 1.65501,-0.1452 3.92261,0.29448 4.94361,-0.59553 -3.0429,0.70689 -1.66401,3.08592 0.52806,0.72284 1.05898,0.87203 15.68755,8.35181 19.80932,18.2129 0.65674,3.02457 5.23425,11.10249 7.25146,18.11819 0.28338,-0.63093 4.71406,8.74874 5.1481,10.71421 0.43405,1.96547 0.80437,5.23134 3.08329,8.69651 0.36833,1.873 0.96407,1.32874 1.56499,4.15202 2.13585,2.41847 3.14842,6.09589 3.8289,6.9026 -0.94707,1.10881 -19.54995,-3.91968 -19.55045,-0.1373 -2.45251,0.40887 -5.10915,0.22776 -7.65128,0.15812 z m 0.55033,-0.31434 c 0.12542,-1.67511 -1.43854,0.7178 0,0 z m -7.56599,-9.88996 c -0.68463,-2.73529 -4.1299,-9.04396 -3.8342,-11.38481 -0.17157,-2.01568 -0.66379,-5.27079 -0.16565,-6.55129 0.5265,2.28232 -0.53636,-3.70246 -0.31072,0.39572 -0.27051,3.92193 -1.15294,8.7771 1.62531,11.99711 0.83815,2.41088 3.24103,7.39704 2.68526,5.54327 z m -48.696881,-5.63827 c 1.420889,-2.52288 -0.970026,-5.01819 2.349687,-6.48588 2.013211,-0.7768 -0.890361,-0.11438 -0.771856,-1.86853 -1.614461,0.46208 -3.129112,-0.60262 -3.475553,-0.95929 -1.18037,-1.53392 -0.712663,-5.01662 -0.841821,-1.10427 0.84949,1.53363 -2.979862,3.41621 -3.054946,2.2931 -0.997655,-1.26301 -0.716728,-5.80043 -2.047619,-5.38609 -0.285237,2.72497 0.504017,3.45279 1.325951,6.5941 0.938685,0.86598 2.36836,-0.97268 3.232488,0.96354 -0.01529,1.93918 2.336335,-0.50077 3.870611,0.33438 0.39097,-0.26049 -2.963236,1.5409 -1.472078,3.45953 -0.05161,0.46265 0.197501,2.56084 0.885133,2.15941 z m 1.314206,-8.782 c -1.748183,-1.52094 -1.094173,-4.63878 -3.439343,-5.75951 0.7834,1.42578 -0.324864,0.87566 0.585661,3.06802 -0.18783,1.47304 1.790699,2.40622 2.853682,2.69149 z m 43.095395,-5.29356 c -1.22714,-2.81008 -3.04667,-5.50989 -3.11598,-8.48662 0.28208,5.22481 0.38378,3.38007 1.9553,6.7845 -0.035,0.24713 1.31393,2.45224 1.16068,1.70212 z m -12.72651,-1.18028 c -1.47383,-0.97087 -1.93412,0.45173 0,0 z m 1.97588,-0.77282 c -0.0919,-2.36381 -2.19162,-2.40518 -4.45102,-1.95456 1.50506,0.0998 6.64953,2.35327 2.50436,1.53456 -0.74489,-0.79352 -2.08899,0.17418 -0.52854,-0.10361 0.64796,0.42411 1.52825,0.76406 2.4752,0.52361 z m -1.39425,-3.89608 c -0.35868,-0.60054 -2.20089,-3.24483 -0.73634,-0.59832 -0.0792,0.16351 1.18506,1.18054 0.73634,0.59832 z m 0.46128,-0.67075 c 2.68431,-0.98096 -1.91236,0.16411 0,0 z m -0.46715,-0.78278 c 0.21206,-1.13993 -1.1013,0.54818 0,0 z m 0.59138,-1.46425 c 0.45939,-1.65143 -0.7747,0.76269 0,0 z m 0.50411,-1.19459 c 0.83841,-1.17747 1.55013,0.96541 1.10605,-1.45719 0.62092,-1.08213 -0.89275,0.8149 -0.32348,-0.68151 0.49746,0.24099 -2.05498,2.97048 -0.78257,2.1387 z m 6.89293,39.23074 c -0.61749,-1.78301 0.83485,-0.40797 0,5e-5 z M 91.228332,150.22173 c 1.496973,-1.41159 2.226997,-0.99415 0,0 z M 109.601,146.93295 c 0.48574,-1.50283 -0.7146,-3.00675 -0.81913,-4.60832 -0.16433,-1.99626 0.85116,-5.54094 1.24365,-6.48428 -1.16899,3.71952 -1.39037,7.46541 0.25277,11.09952 l -0.33867,0.0414 -0.33867,-0.0484 z m 0.17602,-11.74152 c -35.882158,-13.98409 -17.941079,-6.99204 0,0 z m 2.87198,-12.70579 c 0.22589,-1.9101 2.64642,-5.48243 0.67925,-1.61293 -0.10735,0.044 -0.28391,2.17347 -0.67925,1.61293 z"
         sodipodi:nodetypes="cccccccccccccccccccccccccccccccccccccccccccccccccccccccccccccccccccccccccccccccccccccccccccccccccccccccsccccccccccssccccccccccccccccccccccccccccscscccccccccccccc" />
      <path
         id="path1360"
         style="fill:#6e6e6e;fill-opacity:1;stroke-width:0.0846667"
         d="m 140.97,182.20438 c -4.78258,-0.61687 -4.16297,-6.65655 -6.46138,-10.15017 -3.01481,-4.52012 -5.21765,-9.9124 -4.79025,-15.44552 -0.24221,-4.78255 -1.29846,-9.61323 -3.71346,-13.78978 -0.60733,-1.87562 -2.51414,-8.95177 0.62122,-4.70848 3.87175,2.87441 8.17473,5.56913 9.96518,10.32423 0.75372,1.66062 3.01397,5.45972 3.51263,5.40688 -2.3217,-4.23577 -2.95598,-9.57658 -6.87851,-12.79532 -2.58877,-4.0827 -5.29923,-8.27351 -9.85,-10.31455 -2.37072,-1.74962 -4.38357,-5.72375 -1.99614,-6.40137 -0.44828,-1.54648 -1.56081,-5.53989 0.28886,-2.05295 2.04975,1.55352 -0.0329,-1.54987 1.38458,1.20832 2.72055,4.37882 8.43823,5.36003 11.1049,9.71821 3.91005,1.95218 5.76899,5.32237 7.50346,9.00548 2.51265,1.19442 -0.69019,-3.72599 -1.06412,-4.78134 -0.459,-2.54334 -5.36368,-5.86078 -3.96819,-7.58712 1.025,1.25326 4.36105,2.77223 1.40845,0.75342 -3.35193,-3.74116 -9.70229,-1.03978 -12.71283,-5.25841 -3.94193,-2.56662 -5.86735,-10.33206 0.91388,-9.84118 5.68962,-1.53612 5.6092,6.62467 11.10344,6.22253 2.13497,1.88944 3.98227,4.16555 5.37418,6.65366 3.74166,3.19898 10.28797,28.39392 16.05249,37.45795 0.73065,0.54204 1.86989,5.21816 2.84223,7.60175 0.32247,0.23445 -0.21206,2.52692 1.51711,3.36843 2.00841,0.97741 3.92437,4.8188 4.04391,5.05177 0.60736,1.18364 -8.75074,0.0553 -8.76692,1.00402 0.30311,1.40991 -10.54497,-0.82163 -15.13807,-0.92577 -0.77142,-0.0623 -1.57102,-0.0213 -2.29665,0.27528 z m 1.02712,-20.76082 c -0.0966,-3.05879 -2.41553,-9.26266 -3.9562,-9.21118 1.50606,2.98618 2.7003,6.1153 3.9562,9.21118 z m -14.7116,-29.92709 c -0.0913,-2.3446 -4.29107,-4.52951 -5.0053,-4.54109 0.56765,2.33141 2.73133,4.03173 5.0053,4.54109 z m -3.50203,50.53171 c -11.4367,-0.44821 -22.88427,-0.0993 -34.324601,-0.33187 1.490512,-0.54408 8.431366,0.37858 4.0708,-1.67892 -3.51242,-3.73692 -7.569065,-7.80162 -8.473361,-13.03117 -1.146595,-3.54406 2.196886,-8.32115 3.749509,-9.25031 2.71403,3.37379 -0.322429,-2.76866 -0.58715,-4.28708 0.515199,-3.51334 5.102925,4.17596 4.974965,-1.14331 -0.07236,-2.48422 1.129669,-2.77233 1.712053,-2.01706 0.818683,-3.28258 -2.679153,-1.67066 -3.478568,-0.0373 -2.372995,1.30886 -5.778301,-1.83779 -1.550488,-2.25587 3.520686,-2.10045 9.311506,-0.416 9.964834,2.06375 2.771327,-2.0239 8.298377,-4.3175 10.743337,-1.00548 1.82354,4.21499 4.88577,6.87684 5.30072,11.34621 1.75769,2.08714 0.58164,6.77234 -2.33958,3.70263 -1.95482,-2.04954 -2.1516,-7.7981 -3.98638,-8.28209 1.86733,4.01336 2.77067,8.36307 4.36482,12.48628 1.17443,2.86855 0.57396,5.98295 1.01593,8.94047 -0.7294,-2.46165 0.84475,-10.40088 4.02582,-6.51939 2.77025,3.34535 4.1134,7.88717 6.44669,11.19767 3.06351,0.34418 3.98211,-4.53703 1.27502,-4.76582 -1.13001,-3.27981 -5.945,-4.09239 -5.98671,-7.92419 1.03045,1.02337 4.64594,4.33279 2.819,0.6908 4.1428,-1.58318 3.41544,6.78475 6.33466,5.27664 1.00386,-3.0081 -3.87423,-7.68673 -1.70156,-9.16361 4.10846,2.49174 4.375,7.81511 7.02979,11.42858 2.54153,2.62535 0.43466,5.83347 -2.97991,4.61913 -2.80601,-0.0725 -5.6132,-0.0243 -8.41964,-0.0587 z M 87.191136,166.57266 c 0.240281,0.0663 1.655635,-0.75942 1.835123,-0.75238 2.522899,0.099 -0.600496,-5.18944 -0.0181,-2.06407 0.516312,0.30181 -0.344991,1.32617 -0.739466,1.8299 -0.11455,0.14627 -1.706126,0.35204 -1.941302,0.55062 -0.23797,0.20093 0.634399,0.59135 0.863743,0.43593 z m -23.545166,14.106 c -6.263681,0.28239 -6.661887,3.55467 -6.178104,-0.98395 0.03956,-0.37109 6.405368,-13.22056 6.464791,-13.59482 1.034689,-2.32014 3.937932,1.46721 2.353689,-1.66335 -3.29314,-1.29809 3.564077,-0.24426 0.654139,-2.49217 -1.051102,-0.48081 -4.181223,1.65681 -1.694393,-0.5856 3.337592,-2.08599 6.579499,-4.55391 8.332513,-8.19363 1.369548,-1.58029 2.36713,-6.76307 3.835996,-6.32097 -0.283481,2.26543 0.619036,2.37168 1.984449,1.03377 1.805511,0.31166 0.65604,1.17786 0.923726,1.20334 2.031814,2.19735 2.346545,10.52077 -1.77883,8.33041 -0.220217,-1.8385 -1.805815,-6.4726 -2.905807,-2.38403 -1.629768,2.66034 -2.778,10.4759 2.336545,7.36807 4.492099,0.0516 0.300134,6.0738 4.458335,7.53628 2.919596,1.72881 4.140463,7.32052 1.739453,9.25023 -1.415093,-1.377 -4.887298,-5.90187 -6.436425,-3.76416 0.541167,2.19896 8.325488,4.67881 4.13143,6.15245 -4.358471,0.19724 -8.817496,0.50484 -13.077081,-0.66024 0.359632,1.53646 -5.619878,2.13249 -5.144426,-0.23163 z m 12.883896,-29.90852 c 1.546282,-2.22608 -1.31824,0.97251 0,0 z m 38.193464,3.29361 c -3.39785,-4.02944 -3.95098,-9.51911 -5.53241,-14.35071 -0.77242,-3.0213 6.1737,-3.46293 4.63952,-2.37231 -3.64078,0.86964 4.3036,3.78537 1.55559,0.0641 -3.12296,-1.5696 -7.24745,-4.11985 -4.02871,-7.96429 2.60559,-4.31766 9.34206,-1.75927 8.56924,3.15936 0.54331,2.79104 -1.72219,4.19782 -2.59291,0.93985 -1.23756,-1.83789 -6.69671,-2.08158 -2.55159,0.17482 4.05621,2.44594 2.5809,7.63228 0.99988,10.66301 1.21746,1.86922 1.88288,4.88183 -1.3336,3.92916 0.97795,0.85865 3.85272,1.89927 0.87505,1.31221 2.0283,1.14754 4.24487,4.4718 0.21625,4.60182 l -0.81631,-0.157 z m 1.55055,-2.93885 c -1.06279,-1.10987 -1.75334,0.53693 0,0 z m 21.95317,0.0782 c -2.00281,-2.05385 1.73312,1.21305 0,0 z m -29.01217,-12.43197 c -0.22393,-0.77082 0.74943,-2.36499 0.27411,-0.69623 z"
         sodipodi:nodetypes="cccccccccccccccccccccccsscccccccccccccccccccccccccccccccccccssccscssccccccccccccccccccccccccccccccccccsccccccccc" />
      <path
         style="fill:#333333;fill-opacity:1;stroke-width:0.0846667"
         d="m 123.72726,181.99206 c -0.0227,-0.0227 -0.87679,-0.0599 -1.89795,-0.0827 -12.16397,-0.38319 -16.98981,0.31374 -24.899621,-0.35172 0.627039,-0.72437 -1.449446,-0.22112 -1.94339,-1.11625 -0.379333,-0.89316 -1.176482,-0.88484 -1.775688,-1.71017 -2.254868,-2.09101 -1.328537,-1.85147 -1.982288,-2.57142 0,-0.0539 -0.1524,-0.16399 -0.338667,-0.24469 -0.186266,-0.0807 -0.338666,-0.19514 -0.338666,-0.25432 -4.254622,-4.91993 -2.990384,-7.61482 -5.40272,-8.43902 -0.375777,-0.12401 -0.413844,-0.20593 -0.256344,-0.55161 0.131273,-0.28811 0.585908,-0.29063 1.142762,-0.006 1.210247,0.61788 3.809491,-0.74675 4.430326,-2.32598 0.06407,-0.16298 0.223933,-0.45559 0.355243,-0.65025 0.446662,-0.66214 0.114204,-1.00689 -0.883089,-0.91573 -0.625405,0.16426 -1.080819,-0.43499 -1.695013,-0.34753 -0.513782,0.0977 -0.532585,0.39594 -0.05211,0.82649 0.225491,0.20207 0.410803,0.4093 0.411804,0.46052 9.99e-4,0.0512 0.117114,0.25229 0.258028,0.44681 0.295149,0.40744 0.203421,0.67624 -0.291431,0.85402 -0.13579,0.0488 -0.350486,0.20473 -0.477101,0.34655 -0.249691,0.27967 -0.113239,0.26139 -1.936581,0.25946 -0.252581,-2.6e-4 -0.528806,0.0367 -0.613833,0.0822 -0.186638,0.0999 -0.226927,-0.46293 -0.05671,-0.7922 0.05384,-0.10415 0.128917,-0.25372 0.166844,-0.33239 0.04414,-0.0916 0.0041,-0.28962 -0.111332,-0.55033 -0.09916,-0.22402 -0.183765,-0.56922 -0.188011,-0.76711 -0.0043,-0.1979 -0.0461,-0.35983 -0.093,-0.35984 -0.04691,-1e-5 -0.191177,-0.17533 -0.320601,-0.3896 -0.258123,-0.42734 -0.267503,-0.40302 0.339452,-0.88042 0.0888,-0.0699 0.266449,-0.26728 0.394764,-0.43873 0.244779,-0.32707 1.448207,-1.24501 2.064513,-1.57475 0.375812,-0.20107 0.528155,-0.095 0.528155,0.36766 0,0.0666 0.08206,0.35826 0.182353,0.64807 0.179372,0.51831 0.20988,0.89774 0.109164,1.35765 -0.06399,0.29222 0.166352,0.41836 0.337223,0.18468 0.102456,-0.14012 0.124615,-0.14198 0.245899,-0.0207 0.233008,0.36392 0.473535,0.23578 0.755966,0.385 0.28986,0.26232 0.408425,-0.029 0.258201,-0.63443 -0.139725,-0.56311 -0.156668,-1.53244 -0.02902,-1.66009 0.175556,-0.17555 0.08758,-0.83446 -0.220384,-1.65062 -0.169358,-0.44883 -0.341123,-0.9494 -0.381699,-1.11238 -0.198117,-0.79578 -0.339376,-1.62036 -0.365101,-2.13122 -0.03452,-0.68557 -0.173004,-1.13263 -0.439965,-1.42035 -0.110282,-0.11886 -0.22171,-0.28278 -0.247617,-0.36427 -0.02591,-0.0815 -0.07988,-0.14816 -0.119939,-0.14816 -0.101365,0 -0.608058,-1.09262 -0.550148,-1.18632 0.02593,-0.042 0.100859,-0.0557 0.166504,-0.0305 0.129565,0.0497 0.129798,-0.48966 4.23e-4,-0.88745 -0.06482,-0.19925 -0.06482,-0.19925 0.242625,0 0.27094,0.1756 0.307573,0.24062 0.308497,0.54759 10e-4,0.33696 0.0141,0.35331 0.400786,0.50099 0.219855,0.084 0.47703,0.22562 0.5715,0.3148 0.480889,0.45397 1.180908,0.91021 1.39653,0.91021 0.32527,0 0.867171,0.86489 1.100758,1.75683 0.164626,0.62863 0.498675,0.21684 0.498675,-0.61472 0,-0.30963 0.04441,-0.50919 0.133047,-0.59782 0.07318,-0.0732 0.133283,-0.25415 0.13357,-0.40217 2.54e-4,-0.14802 0.05744,-0.37825 0.127,-0.51163 0.06956,-0.13338 0.126478,-0.30776 0.126478,-0.3875 0,-0.11295 0.05615,-0.13676 0.254,-0.10772 0.201802,0.0296 0.256577,0.005 0.266536,-0.12049 0.01399,-0.17329 0.03765,-0.34523 0.0596,-0.51761 0.191964,-0.11246 0.370827,-0.22377 0.539046,-0.3625 0.16868,-0.004 0.368803,-0.33273 0.655657,-1.07656 0.187985,-0.44961 0.284523,-0.71595 0.415799,-1.17106 -0.06593,-0.0407 -0.07782,-0.27519 -0.03852,-0.75952 0.07308,-0.90067 -0.347768,-1.26197 -0.866152,-0.74358 -0.258305,0.10425 -0.450696,0.25806 -0.672124,0.36161 -0.174625,0.0624 -0.611453,0.27964 -0.970729,0.48267 -0.685292,0.24165 -1.052056,0.68741 -1.572323,1.12414 -0.151794,0.11255 -0.298232,0.29326 -0.325417,0.40158 -0.02718,0.10831 -0.08513,0.17486 -0.128771,0.14789 -0.04364,-0.027 -0.13433,-0.003 -0.201536,0.0524 -0.07743,0.0643 -0.207888,0.0776 -0.356124,0.0364 -0.128663,-0.0358 -0.354935,-0.0719 -0.502827,-0.0803 -0.147892,-0.008 -0.369517,-0.0812 -0.4925,-0.16177 -0.15949,-0.10451 -0.254117,-0.12119 -0.33002,-0.0582 -0.05853,0.0486 -0.141703,0.0573 -0.184833,0.0193 -0.04313,-0.038 -0.30702,-0.11965 -0.58642,-0.18153 -0.2794,-0.0619 -0.5461,-0.14057 -0.592666,-0.17485 -0.04657,-0.0343 -0.179917,-0.0766 -0.296334,-0.0941 -0.205639,-0.0308 -0.203227,-0.0362 0.08467,-0.18908 0.162983,-0.0866 0.577681,-0.44504 0.92155,-0.79662 0.578537,-0.59153 0.64914,-0.63784 0.945634,-0.62035 0.392642,-0.0724 0.765103,-0.17522 1.138483,-0.29084 0.325965,-0.12216 0.777269,-0.21285 1.862666,-0.3743 0.2794,-0.0416 0.829892,-0.14063 1.223315,-0.22016 0.708914,-0.1433 0.718156,-0.14296 1.032774,0.0381 0.349595,0.2012 0.663726,0.23469 0.811861,0.0866 0.06175,-0.0617 0.582423,-0.10414 1.45534,-0.11848 l 1.35919,-0.0223 0.648135,0.61537 c 0.48433,0.45984 0.691224,0.60409 0.818632,0.57077 0.145491,-0.038 0.162419,-0.0147 0.115421,0.15929 -0.224752,0.83197 -0.408912,2.50543 -0.280586,2.54968 0.03965,0.0137 0.153945,-0.12768 0.254,-0.31411 0.100055,-0.18643 0.266317,-0.45715 0.36947,-0.6016 0.103155,-0.14444 0.234192,-0.437 0.291192,-0.65013 0.0873,-0.32627 0.11924,-0.36616 0.20237,-0.25248 0.11646,0.15927 0.37722,0.0891 0.37722,-0.1015 0,-0.0817 0.0779,-0.12966 0.2107,-0.12966 0.24803,0 0.53626,-0.2187 0.6416,-0.48683 0.0623,-0.15864 0.1392,-0.1905 0.45975,-0.1905 0.27451,0 0.48202,-0.0643 0.72349,-0.22406 0.18621,-0.12323 0.35971,-0.20291 0.38555,-0.17707 0.0258,0.0258 0.16649,0.0127 0.31255,-0.0292 0.41097,-0.11787 0.6931,0.23357 0.7209,0.89801 0.0115,0.27416 0.0598,0.52257 0.10748,0.55201 0.081,0.0501 0.14738,0.81558 0.17151,1.97833 0.0137,0.65949 0.43198,1.40594 0.46625,0.83203 0.005,-0.0809 0.0546,-0.26006 0.11067,-0.39815 0.056,-0.1381 0.0991,-0.34765 0.0957,-0.46567 -0.003,-0.11803 -0.0284,-0.76704 -0.0554,-1.44226 -0.0673,-1.67909 -0.0615,-1.80152 0.0896,-1.91203 0.0724,-0.053 0.13171,-0.1515 0.13171,-0.21895 0,-0.26612 0.20998,-0.39775 0.67733,-0.4246 0.44657,-0.0257 0.46574,-0.0181 0.4673,0.18407 0.002,0.28099 0.28689,0.34535 0.35614,0.0805 0.0494,-0.18906 0.0494,-0.18906 1.65038,-0.1301 2.04973,0.0755 1.93831,0.0172 2.32175,1.2137 0.17056,0.53218 0.39426,1.09161 0.49712,1.24318 0.10422,0.15357 0.25245,0.60541 0.33485,1.02064 0.13962,0.70363 0.51651,1.76397 0.8808,2.47802 0.35228,0.69054 2.37282,2.22289 2.93106,2.22289 0.22279,0 0.55127,0.22751 0.55127,0.38182 0,0.21974 -0.18903,0.53492 -0.34534,0.57579 -0.4284,0.11203 -0.8708,1.58099 -0.60891,2.02186 0.0915,0.15411 0.23522,0.5088 0.31927,0.7882 0.0841,0.2794 0.45031,1.1176 0.81391,1.86267 0.36359,0.74506 0.70412,1.54516 0.75673,1.778 0.0526,0.23283 0.14935,0.64183 0.21499,0.90889 0.27305,1.11088 0.2047,1.20926 -0.74721,1.07563 -0.38488,-0.054 -0.99391,-0.10614 -1.3534,-0.11579 -0.78003,-0.0209 -0.88299,-0.0921 -1.24109,-0.85732 -0.13756,-0.29395 -0.45377,-0.7481 -0.70269,-1.00922 -0.76666,-0.80422 -1.25412,-2.13798 -1.25552,-3.43528 -0.001,-1.00615 -0.65949,-2.55659 -1.31724,-3.10189 -0.2143,-0.17766 -0.49015,-0.49447 -0.61299,-0.70402 -0.32695,-0.55771 -0.60683,-0.96223 -0.70979,-1.02586 -0.0497,-0.0307 -0.19032,-0.23999 -0.31241,-0.46501 -0.16979,-0.31294 -0.32174,-0.45947 -0.64635,-0.62329 -0.2334,-0.1178 -0.5181,-0.28085 -0.63267,-0.36234 -0.59671,-0.42444 -0.81843,0.051 -0.27646,0.59276 0.17463,0.17457 0.392,0.46367 0.48306,0.64244 0.0911,0.17877 0.25556,0.39583 0.36557,0.48237 0.1412,0.11106 0.20947,0.26447 0.23216,0.52163 0.0736,0.83472 0.20891,1.4426 0.38418,1.72619 0.14477,0.23425 0.16763,0.34269 0.10242,0.48583 -0.11434,0.72298 0.24197,1.36323 0.63174,1.96035 0.23195,0.35236 0.2774,0.50072 0.2774,0.90555 0,0.98013 0.18187,2.66722 0.3426,3.17808 0.091,0.28914 0.1654,0.58317 0.1654,0.65341 0,0.46 0.38105,1.32627 0.56327,1.28054 0.8843,-0.008 0.35263,1.02712 0.64818,1.76409 1.08072,0.61654 1.51426,1.20508 1.66753,2.96868 0,0.22943 0.21968,0.74326 0.47286,1.106 0.82022,2.14336 0.87605,4.49541 0.96032,5.71918 0.0619,0.90518 0.13152,1.67843 0.15462,1.71833 0.2537,-0.19886 0.168,-0.58739 0.27487,-0.91921 0.0529,-0.0327 0.0854,-0.88501 0.0866,-2.26983 0.002,-2.56669 0.17993,-3.84104 0.66554,-4.77453 0.14047,-0.27003 0.45353,-0.89992 0.69568,-1.39976 0.32601,-0.5731 0.61906,-1.276 0.8228,-1.8108 0.17168,1.78047 1.40421,2.84633 2.11247,3.68617 0.45117,0.53342 1.19863,1.61203 1.76509,2.54709 0.268,0.44238 0.68235,1.01388 0.92076,1.27 0.59843,0.64285 0.67761,0.78836 1.09578,2.01364 0.2021,0.59218 0.45233,1.30529 0.55606,1.58469 0.1074,0.2893 0.21876,0.85428 0.25867,1.31233 0.0943,1.08286 0.20401,1.43877 0.44404,1.4413 0.39125,0.004 1.62746,0.10488 1.66113,0.1354 0.0194,0.0176 -0.49812,0.032 -1.15005,0.032 -0.65193,0 -1.20392,-0.0186 -1.22663,-0.0413 z m -50.600891,-6.49252 c 0.161886,-0.24382 0.321958,-0.13375 0.321958,0.22137 0.198575,0.52039 1.179046,0.25714 1.48071,0.0962 0.462706,-0.29342 0.188127,-0.32351 -0.03823,-0.63975 -0.725892,-0.97523 -0.839663,-2.30457 -2.162455,-3.3965 -0.468687,-0.11763 0.414135,-0.48026 0.753509,-1.15501 0.704528,-0.19978 1.607626,2.16418 2.323054,2.86943 0.288343,0.28656 0.548429,0.49685 0.577971,0.46731 0.07499,-0.075 0.531543,0.54537 0.534417,0.72617 0.0013,0.0815 0.05245,0.14817 0.113674,0.14817 0.474256,0.46178 0.870787,1.09574 1.422162,1.42995 0.185564,0.0647 0.248617,0.13058 0.21322,0.22283 -0.06162,0.16056 0.388689,0.80408 0.66435,0.9494 0.109039,0.0575 0.247335,0.21539 0.307323,0.35092 0.331023,0.30734 0.7109,0.72707 1.091627,0.84663 0,0.16016 0.494151,0.28566 0.759948,0.193 0.246142,-0.0858 0.254953,-0.0808 0.205576,0.1159 -0.04455,0.17749 0.0074,0.24222 0.380444,0.47411 0.475043,0.29531 0.574163,0.40577 0.182236,0.2031 -0.332279,-0.17182 -0.427538,-0.16288 -0.427538,0.0402 0.535732,0.56669 1.270851,1.07941 1.862667,1.81043 0,0.092 -0.385903,0.0558 -0.487479,-0.0458 -0.07287,-0.0729 -0.127519,-0.0735 -0.213028,-0.003 -0.07777,0.0645 -0.771236,0.0976 -2.141421,0.10195 -1.114523,0.004 -2.388355,0.0143 -2.830739,0.0237 -0.616249,0.0132 -0.826681,-0.0114 -0.899902,-0.10506 -0.08301,-0.10623 -0.122,-0.10498 -0.296771,0.01 -0.141287,0.0926 -0.260369,0.10995 -0.399885,0.0583 -0.114424,-0.0423 -0.40723,-0.0399 -0.690437,0.006 -0.481842,0.0776 -0.845671,0.046 -0.845671,-0.0735 0,-0.0826 -0.526085,-0.003 -0.654172,0.0992 -0.132115,0.10527 -0.715973,0.13698 -0.947205,0.0514 l 3e-6,-4.9e-4 c -0.16442,-0.10482 -0.192864,-0.27312 -0.249973,-0.42357 -0.105213,-0.0405 0.02807,-0.94446 0.144999,-0.98343 0.101601,-0.65382 0.176503,-0.57178 0.184242,-0.82103 -0.270945,-0.78471 -0.939731,-1.53011 -0.785055,-2.34089 0.320307,-0.0175 0.478569,-0.11927 0.647947,-0.34745 0.14808,-0.13833 0.06347,-0.58348 -0.107753,-0.56691 -0.297479,0.0288 -0.434361,-0.0113 -0.434361,-0.12712 0,-0.0665 -1.204086,-1.29589 -1.367069,-1.4687 -0.591483,-0.28617 -0.09895,-1.05644 0.300641,-0.37893 0.357966,0.72234 1.26392,1.72671 1.506462,1.36143 z m 11.733681,-2.30171 c -0.118088,-0.14753 -0.159945,-0.15958 -0.22363,-0.0644 -0.218205,-0.10806 -0.434435,-0.68534 -0.711515,-0.95012 -0.350003,-0.50044 -0.436107,-0.75557 -0.655242,-1.10345 0,-0.16677 -0.438585,-0.7154 -0.720401,-0.90115 -0.139296,-0.0918 -0.20292,-0.16719 -0.141385,-0.1675 0.19332,0.0528 0.314459,0.19352 0.472083,0.31508 0.06047,0.0359 0.284972,0.30467 0.498902,0.59716 0.21393,0.29249 0.659456,0.80607 0.990058,1.14129 0.390088,0.39554 0.595443,0.66954 0.584996,0.78054 -0.0089,0.0941 0.01332,0.23936 0.04928,0.32286 0.09595,0.22279 0.02345,0.23782 -0.14315,0.0297 z m -14.036387,-2.4581 c 0,-0.075 -0.03453,-0.13638 -0.07672,-0.13638 -0.08867,0 -0.685275,-0.80734 -0.685275,-0.92732 0.180407,-0.2408 0.270619,-0.26506 -0.04077,-0.28818 -0.304566,-0.0221 -0.415598,-0.43305 -0.426468,-1.5785 -0.0073,-0.77172 -0.05084,-1.17749 -0.160672,-1.49832 -0.150629,-0.44 -0.150629,-0.44 0.07251,-0.92738 0.122724,-0.26807 0.242587,-0.62252 0.266363,-0.78768 l 0.03504,-0.7249 c 0.153047,-0.38201 0.463535,-0.98285 0.713155,-1.17049 0.251626,-0.4089 0.775183,-0.55367 1.157884,-0.50469 -1.129139,0.50682 -0.595183,1.13482 -0.108033,0.84597 0.03135,-0.27341 0.21292,-0.26597 0.253615,0.0104 0.01625,0.11037 -0.05492,0.25846 -0.179931,0.37437 -0.263125,0.24396 -0.346895,2.31598 -0.101855,2.51935 0.07907,0.0656 0.101332,0.14493 0.05683,0.20248 -0.110633,0.14306 -0.280583,1.5374 -0.217852,1.78734 0.03626,0.14447 0.0098,0.26904 -0.07776,0.36577 -0.208653,0.23056 -0.05159,0.37986 0.358465,0.34076 0.288843,-0.0275 0.34127,-0.0106 0.297595,0.096 -0.128574,0.31387 -0.195982,0.62537 -0.151057,0.69806 0.09785,0.15833 0.08054,0.58278 -0.02743,0.67239 -0.06099,0.0506 -0.110893,0.14272 -0.110893,0.20468 0,0.16671 -0.185581,0.54395 -0.26759,0.54395 -0.122562,-0.42209 -0.531614,-0.15198 -0.57908,-0.1176 z m 7.963111,-12.61183 c -0.106094,-0.33306 -0.245209,-0.66513 -0.309145,-0.73792 -0.01156,-1.0802 -0.432151,-2.30696 -0.705843,-3.33858 -0.119145,-0.45488 -0.24547,-0.7386 -0.387496,-0.87029 -0.586157,-0.54352 -0.706673,-1.39568 -0.40383,-2.85545 0.197104,-0.95008 0.332787,-1.15206 0.542385,-0.8074 0.213621,0.35127 0.275584,0.3324 0.850732,-0.25905 0.611869,-0.6292 0.748402,-0.62291 1.163046,0.0536 0.746936,0.70692 1.09507,1.74533 1.615739,2.50772 0.242627,0.27789 0.243379,0.2823 0.198704,1.16526 -0.04019,0.79434 -0.02863,0.89818 0.11138,1.00059 0.245461,0.17953 0.207604,1.87586 -0.04756,2.13103 0.01872,0.16317 0.07348,0.035 0.16145,0.17721 0.04657,0 0.08431,0.18098 0.08387,0.40217 -7.62e-4,0.39616 -0.0066,0.4047 -0.387702,0.5715 -0.580393,0.31518 -1.089439,0.59972 -1.685829,0.86145 -0.1397,0.0456 -0.333424,0.20011 -0.430496,0.34332 -0.176495,0.26038 -0.176495,0.26038 -0.369393,-0.3452 z m 36.111876,-4.07459 c -0.90502,-0.37393 -1.80617,-1.52312 -2.15956,-2.75398 -0.0602,-0.20955 -0.13808,-0.4572 -0.17315,-0.55033 -0.23365,-0.62061 -0.42494,-1.43097 -0.42494,-1.80018 0,-0.23842 -0.0381,-0.45704 -0.0847,-0.48582 -0.0466,-0.0288 -0.0847,-0.12387 -0.0847,-0.21132 0,-0.0874 -0.21309,-0.62812 -0.47353,-1.2015 -0.63201,-1.39143 -0.74623,-1.70205 -1.09392,-2.97481 -0.16311,-0.59709 -0.3676,-1.24479 -0.45442,-1.43933 -0.50554,-1.13285 -0.57631,-2.52848 -0.18498,-3.6478 0.0962,-0.27505 0.17585,-0.61795 0.17707,-0.762 0.008,-0.9421 0.29268,-1.44471 0.85478,-1.50923 1.59921,-0.18356 3.56034,0.25919 3.89029,0.87829 0.0906,0.16997 0.0886,0.18533 -0.0133,0.1032 -0.63767,-0.5141 -2.05611,-0.91482 -2.23182,-0.63051 -0.22158,0.35852 -0.14143,1.32847 0.13465,1.62945 0.52327,0.57047 1.94904,0.7805 2.76989,0.40803 0.203,-0.0921 0.41834,-0.16747 0.47855,-0.16747 0.15222,0 0.31704,0.48413 0.18339,0.53864 -0.0548,0.0224 -0.0616,0.0435 -0.015,0.047 0.60306,0.0454 0.77893,-0.73066 0.31271,-1.37986 -0.14871,-0.20707 -0.27037,-0.41439 -0.27037,-0.46071 0,-0.15209 -0.71477,-0.81519 -1.10218,-1.02251 -0.4648,-0.24873 -0.90381,-0.48832 -1.18039,-0.64419 -0.45116,-0.25426 -1.28702,-0.33053 -1.91804,-0.175 -1.07019,0.26376 -1.0155,0.26575 -1.12233,-0.0407 -0.21392,-0.61366 -0.0198,-1.20856 0.4232,-1.29717 0.20718,-0.0414 0.25385,-0.0872 0.22023,-0.21571 -0.0275,-0.1051 -0.006,-0.14914 0.0598,-0.12381 0.10775,0.0413 0.9013,-0.34818 1.32736,-0.65156 0.13768,-0.098 0.30612,-0.15683 0.37432,-0.13066 0.17153,0.0658 0.378,-0.0258 0.378,-0.16783 0,-0.33929 0.87666,0.29711 1.29541,0.94039 0.50326,0.77313 0.99928,1.32804 1.52661,1.70789 0.2407,0.17339 0.55629,0.41249 0.70131,0.53134 0.14502,0.11886 0.38752,0.31135 0.53889,0.42777 0.94272,0.72504 0.9409,0.84484 -0.0418,2.75167 -0.23997,0.46566 -0.55736,1.16083 -0.7053,1.54481 -0.14794,0.38398 -0.4037,0.97453 -0.56836,1.31233 -1.07807,2.21179 -1.11417,2.4135 -0.56663,3.16652 0.7841,1.07837 1.10079,1.33275 1.56217,1.2548 0.41099,-0.0694 0.48091,0.0795 0.28194,0.60048 -0.10857,0.28429 -0.12427,0.43889 -0.0626,0.61594 0.10116,0.2902 -0.71979,0.36002 -0.93278,0.0793 -0.1773,-0.23366 -0.50201,-0.31111 -0.91698,-0.21871 -0.20696,0.0461 -0.6811,0.12081 -1.05363,0.16607 -0.80033,0.0972 -1.07649,0.16792 -1.1155,0.28552 -0.0364,0.10962 0.93326,0.42055 1.70817,0.54775 0.51953,0.0853 0.98237,0.23602 1.94733,0.63421 0.1397,0.0576 0.35877,0.14745 0.48683,0.19957 0.23525,0.0957 0.32236,0.34413 0.127,0.36213 -0.25892,0.0239 -0.47674,-0.0423 -0.93028,-0.28275 -0.39974,-0.21187 -0.50847,-0.23865 -0.61384,-0.15121 -0.1086,0.0901 -0.12804,0.0734 -0.12804,-0.11005 0,-0.26162 -0.16204,-0.32595 -0.77939,-0.3094 -0.24655,0.007 -0.62926,-0.0156 -0.85045,-0.0493 -0.34965,-0.0533 -0.40216,-0.0421 -0.40216,0.0865 0,0.19543 0.71075,0.89117 0.9104,0.89117 0.086,0 0.19259,0.0342 0.23683,0.076 0.31761,0.29995 1.82396,0.73544 2.05176,0.59318 0.37564,-0.23459 0.52374,0.15456 0.5256,1.38108 8.7e-4,0.57386 -0.20818,0.86592 -0.99779,1.39401 -0.9735,0.65107 -1.15238,0.69115 -1.83182,0.41042 z m 1.47568,-2.8828 c 0,-0.0708 -0.10477,-0.16931 -0.23283,-0.21881 -0.12806,-0.0495 -0.3407,-0.14393 -0.47253,-0.20985 -0.33967,-0.16984 -0.71025,-0.14854 -0.92688,0.0533 -0.21368,0.19907 -0.105,0.33019 0.27758,0.33488 0.11641,0.001 0.26881,0.0395 0.33866,0.0847 0.21777,0.14074 1.016,0.10605 1.016,-0.0442 z m -22.898398,0.002 c -0.1291,0.16371 -0.201959,0.0506 -0.151508,-0.17208 -0.03253,-0.29514 -0.21171,-0.33043 -0.192715,-0.47439 0.1847,-0.24614 0.301811,-0.50142 0.509637,-0.75045 0.07877,-0.001 0.205392,-0.17231 0.591968,-0.80017 0.298366,-0.48459 0.369197,0.54267 0.125884,1.82566 -0.105158,0.5545 -0.133003,0.58196 -0.20436,0.20159 -0.05347,-0.28501 -0.24276,-0.46778 -0.361501,-0.34904 -0.0288,0.0288 -0.0019,0.20515 0.05968,0.39188 0.07577,0.7566 -0.125028,0.12879 -0.377085,0.127 z M 118.8409,136.48266 c 0.002,-0.87843 -0.46581,-1.99138 -1.04223,-2.4821 -0.20128,-0.17136 -0.43264,-0.36879 -0.51413,-0.43873 -0.0815,-0.0699 -0.16149,-0.12717 -0.17778,-0.12717 -0.0163,0 -0.37721,-0.20955 -0.80205,-0.46566 -0.42484,-0.25612 -0.81972,-0.46567 -0.87752,-0.46567 -0.0578,0 -0.57111,-0.2286 -1.14069,-0.508 -0.56958,-0.2794 -1.07199,-0.508 -1.11646,-0.508 -0.0445,0 -0.28466,-0.0949 -0.53376,-0.21084 -0.52616,-0.24494 -0.81749,-0.26914 -0.89232,-0.0741 -0.0516,0.13443 1.00066,1.24047 1.47698,1.55248 0.19028,0.12465 0.26485,0.42581 0.10543,0.42581 -0.45922,-0.2966 -0.4806,-0.31274 -0.98072,-0.67939 -0.25214,-0.22835 -0.0247,0.0172 -0.29852,-0.26438 -0.3898,-0.59178 -0.49628,-0.54579 -0.44558,-1.08781 0.007,-0.31442 0.0379,-0.26905 0.0315,-0.59727 0,-0.16289 -0.0129,-0.16023 -0.21788,0.0447 -0.21272,0.31305 -0.0949,0.82822 -0.0518,0.97105 0.0178,0.13988 1.06076,1.27411 1.26666,1.27411 0.21444,0 0.0725,0.37554 -0.19234,0.50888 -0.1397,0.0703 -0.51248,0.27036 -0.82841,0.4445 -0.58343,0.32159 -0.86808,0.41291 -0.67019,0.21502 0.13369,-0.13369 0.13071,-0.34545 -0.004,-0.30094 -0.17986,0.0593 -0.31613,0.41623 -0.22438,0.58767 0.0642,0.11994 0.0511,0.15353 -0.0601,0.15353 -0.42352,0 0.50691,-4.72048 1.13039,-5.73502 0.21221,-0.34531 0.29197,-0.40367 0.66714,-0.48817 0.23437,-0.0528 0.61368,-0.20355 0.84293,-0.33504 1.09406,-0.62753 1.11019,-0.63357 1.55232,-0.5812 0.29338,0.0347 0.52685,0.007 0.77108,-0.0903 0.34572,-0.13833 0.35362,-0.13737 0.60418,0.0735 0.13963,0.11749 0.29378,0.21363 0.34254,0.21363 0.0488,0 0.31688,0.1524 0.59582,0.33866 0.41704,0.27849 0.5799,0.33867 0.91653,0.33867 0.5088,0 0.73743,0.25752 1.05339,1.1865 0.11552,0.33963 0.34406,0.86135 0.50787,1.15936 0.29784,0.54184 0.29784,0.54184 0.20289,1.15116 -0.0522,0.33512 -0.10523,0.89506 -0.1178,1.24431 -0.034,0.94367 -0.18386,1.9037 -0.37842,2.4237 -0.0949,0.25373 -0.17419,0.58372 -0.17615,0.73331 -0.002,0.1496 -0.0758,0.40534 -0.16414,0.56833 -0.16059,0.29633 -0.16059,0.29633 -0.15978,-0.16934 z"
         id="path1358"
         sodipodi:nodetypes="ccccccsccscssccssscsscscccsscssssssccsssssssscccsccssssccssccccccsccccsccccccsccccccccsccccscccsscssscscscccccccccscccccsscsscccsssccsscsccsscscccsccscsccccccccscccscssccsscccccccccssccscccssssccscccccccsccccccccssccscccsccsscsssccccccsccscccccsscccscssscccscsscccsccccccscccscscssscccsccsscsccsssscscscccscssssscscscscccccccccsccsscsssccscccccssccccccsscsccssssccscccccccscsscssscccccscssscccccccscss" />
    </g>
  </g>
</svg>
