<?xml version="1.0" encoding="UTF-8" standalone="no"?>
<svg
   xmlns:dc="http://purl.org/dc/elements/1.1/"
   xmlns:cc="http://creativecommons.org/ns#"
   xmlns:rdf="http://www.w3.org/1999/02/22-rdf-syntax-ns#"
   xmlns:svg="http://www.w3.org/2000/svg"
   xmlns="http://www.w3.org/2000/svg"
   xmlns:sodipodi="http://sodipodi.sourceforge.net/DTD/sodipodi-0.dtd"
   xmlns:inkscape="http://www.inkscape.org/namespaces/inkscape"
   width="84.412666mm"
   height="68.410667mm"
   viewBox="0 0 84.412666 68.410667"
   version="1.1"
   id="svg8"
   inkscape:version="1.0.1 (3bc2e813f5, 2020-09-07, custom)"
   sodipodi:docname="martinandI-draft1.svg">
  <defs
     id="defs2" />
  <sodipodi:namedview
     id="base"
     pagecolor="#ffffff"
     bordercolor="#666666"
     borderopacity="1.0"
     inkscape:pageopacity="0.0"
     inkscape:pageshadow="2"
     inkscape:zoom="4.1871829"
     inkscape:cx="43.065932"
     inkscape:cy="146.28988"
     inkscape:document-units="mm"
     inkscape:current-layer="layer6"
     inkscape:document-rotation="0"
     showgrid="false"
     fit-margin-top="0"
     fit-margin-left="0"
     fit-margin-right="0"
     fit-margin-bottom="0"
     inkscape:window-width="1920"
     inkscape:window-height="1004"
     inkscape:window-x="0"
     inkscape:window-y="0"
     inkscape:window-maximized="1" />
  <metadata
     id="metadata5">
    <rdf:RDF>
      <cc:Work
         rdf:about="">
        <dc:format>image/svg+xml</dc:format>
        <dc:type
           rdf:resource="http://purl.org/dc/dcmitype/StillImage" />
        <dc:title />
      </cc:Work>
    </rdf:RDF>
  </metadata>
  <g
     inkscape:groupmode="layer"
     id="layer6"
     inkscape:label="TRACE 4"
     style="display:inline">
    <g
       id="g1356"
       style="display:inline"
       transform="translate(-63.627,-113.96133)">
      <path
         style="fill:#e6e6e6;fill-opacity:1;stroke-width:0.0846667"
         d="m 140.67367,182.28431 c -2.58445,-0.0325 -8.2423,-0.0838 -12.573,-0.11408 -4.3307,-0.0302 -8.19785,-0.0732 -8.59367,-0.0954 -1.08843,-0.0611 -15.00421,-0.16428 -22.521335,-0.16699 -9.839442,-0.004 -12.886221,-0.0327 -12.830571,-0.12273 0.02682,-0.0434 -0.06871,-0.0203 -0.212275,0.0513 -0.161768,0.0807 -0.243812,0.17509 -0.215749,0.24822 0.03335,0.0869 -0.03209,0.118 -0.248395,0.118 -0.161522,0 -0.293676,-0.0422 -0.293676,-0.0937 0,-0.0515 0.05108,-0.0741 0.113511,-0.0502 0.06243,0.024 0.167206,0.007 0.232833,-0.0379 0.08031,-0.0548 -0.01907,-0.0667 -0.304011,-0.0364 -1.179517,0.12547 -2.28334,0.14459 -7.154333,0.12395 -2.910417,-0.0123 -6.091767,-0.0252 -7.069667,-0.0285 -0.9779,-0.003 -2.59392,-0.0152 -3.591156,-0.0263 l -1.813156,-0.0203 0.05562,-10.30041 c 0.05978,-11.07121 0.0398,-10.41874 0.314511,-10.27173 0.162382,0.0869 0.214951,0.0705 0.394868,-0.12358 0.114151,-0.1231 0.316062,-0.24553 0.448692,-0.27206 0.170258,-0.0341 0.22676,-0.0857 0.192212,-0.17574 -0.04081,-0.10636 -0.01871,-0.11134 0.13324,-0.03 0.171415,0.0917 0.220277,0.0634 0.188735,-0.10935 -0.0074,-0.0406 0.04556,-0.0512 0.117734,-0.0235 0.07978,0.0306 0.172411,-0.017 0.236296,-0.12152 0.120661,-0.19736 0.888484,-0.61016 1.027865,-0.55259 0.05953,0.0246 0.05497,0.0409 -0.01262,0.0452 -0.05821,0.004 -0.105834,0.0476 -0.105834,0.0975 0,0.0499 0.104276,0.009 0.231725,-0.0915 0.127448,-0.10025 0.232223,-0.22888 0.232833,-0.28585 0.0015,-0.13806 0.431466,-0.64483 0.547125,-0.64483 0.05021,0 0.168127,-0.0476 0.262049,-0.10583 0.138581,-0.0859 0.184245,-0.0842 0.242268,0.009 0.04982,0.08 0.08906,0.0865 0.129414,0.0212 0.03185,-0.0515 0.01756,-0.0937 -0.03175,-0.0937 -0.04932,0 -0.08966,-0.0571 -0.08966,-0.127 0,-0.0699 0.05642,-0.127 0.125387,-0.127 0.06896,0 0.148657,-0.0927 0.177097,-0.20603 0.03305,-0.13169 0.09474,-0.18952 0.170947,-0.16028 0.06847,0.0263 0.119236,-0.006 0.119236,-0.076 0,-0.067 0.09658,-0.17344 0.214627,-0.23662 0.118045,-0.0632 0.1966,-0.16184 0.174568,-0.21926 -0.05109,-0.13314 0.322702,-0.54116 0.495762,-0.54116 0.08334,0 0.131043,-0.0771 0.131043,-0.21166 0,-0.11642 0.03358,-0.21167 0.07462,-0.21167 0.122255,0 0.60217,-0.5294 0.609397,-0.67224 0.0044,-0.0873 0.02117,-0.0962 0.04939,-0.0263 0.07191,0.17821 0.220695,0.11738 0.171646,-0.0702 -0.03361,-0.12853 -0.01343,-0.16351 0.07479,-0.12965 0.170052,0.0652 0.374823,-0.0285 0.374823,-0.17171 0,-0.0663 0.06668,-0.14191 0.148166,-0.16795 0.354152,-0.11319 0.529167,-0.24051 0.529167,-0.38497 0,-0.0853 0.05342,-0.15503 0.118717,-0.15503 0.06529,0 0.158563,-0.1143 0.207263,-0.254 0.0487,-0.1397 0.147677,-0.254 0.219949,-0.254 0.07496,0 0.131404,-0.0727 0.131404,-0.16933 0,-0.0931 0.04067,-0.16934 0.09037,-0.16934 0.05292,0 0.06849,0.0789 0.03756,0.1905 -0.04852,0.17503 -0.03523,0.17121 0.163628,-0.047 0.220788,-0.24233 0.274433,-0.43627 0.143123,-0.51743 -0.107212,-0.0663 -0.0086,-0.47905 0.126845,-0.53103 0.06369,-0.0244 0.115801,-0.1317 0.115801,-0.23836 0,-0.21046 0.45445,-1.1842 0.592488,-1.26952 0.04667,-0.0288 0.08485,-0.14638 0.08485,-0.2612 0,-0.14647 0.06514,-0.23353 0.2183,-0.29176 0.188516,-0.0717 0.210702,-0.1176 0.162606,-0.33657 -0.0427,-0.19441 -0.02582,-0.25358 0.07233,-0.25358 0.13016,0 0.168223,-0.0815 0.266839,-0.5715 0.03046,-0.15134 0.09045,-0.27516 0.133321,-0.27516 0.04287,0 0.07794,-0.0953 0.07794,-0.21167 0,-0.11642 0.02911,-0.21167 0.06468,-0.21167 0.08647,0 0.491378,-0.67038 0.464487,-0.76902 -0.01164,-0.0427 0.01693,-0.0824 0.0635,-0.0882 0.04657,-0.006 0.119316,-0.0153 0.161665,-0.0212 0.151664,-0.0208 0.431002,-0.46487 0.431002,-0.6851 0,-0.14258 0.0342,-0.20334 0.09374,-0.16655 0.06386,0.0395 0.07446,-0.003 0.03326,-0.1326 -0.04393,-0.1384 -0.03234,-0.17315 0.04233,-0.127 0.07319,0.0452 0.08701,0.0137 0.04796,-0.10927 -0.03017,-0.095 -0.0152,-0.19732 0.03326,-0.22727 0.04846,-0.0299 0.08811,-0.006 0.08811,0.0531 0,0.0592 0.0762,-0.0419 0.169334,-0.22457 0.09313,-0.18268 0.169333,-0.40253 0.169333,-0.48857 0,-0.086 0.03536,-0.13457 0.07857,-0.10787 0.04321,0.0267 0.102931,-0.0282 0.132705,-0.122 0.02977,-0.0938 0.09919,-0.17115 0.154263,-0.17186 0.05918,-7.6e-4 0.04818,-0.0349 -0.02687,-0.0834 -0.109851,-0.071 -0.107951,-0.0822 0.01407,-0.0834 0.07759,-6.8e-4 0.191665,-0.1156 0.253502,-0.2553 0.06184,-0.1397 0.143479,-0.254 0.181427,-0.254 0.03795,0 0.04648,-0.0364 0.01895,-0.081 -0.02752,-0.0445 -0.09645,-0.0698 -0.153163,-0.0562 -0.05672,0.0136 -0.07455,0.009 -0.03962,-0.0108 0.03493,-0.0195 0.0635,-0.14664 0.0635,-0.28246 0,-0.13581 0.04286,-0.24694 0.09525,-0.24694 0.06068,0 0.07681,0.0922 0.04445,0.254 -0.06396,0.31982 0.154173,0.35933 0.233734,0.0423 0.02922,-0.11641 0.100507,-0.21166 0.158417,-0.21166 0.115925,0 0.439557,-0.39327 0.445664,-0.54156 0.0021,-0.0514 0.05294,-0.0829 0.11295,-0.0699 0.06,0.0129 0.184863,-0.0728 0.277462,-0.1905 0.0926,-0.11772 0.20543,-0.21403 0.250733,-0.21403 0.11905,0 0.497306,-0.39582 0.436431,-0.45669 -0.02822,-0.0282 -0.01271,-0.0513 0.03448,-0.0513 0.04718,0 0.223095,-0.13335 0.390914,-0.29634 0.167819,-0.16298 0.327657,-0.29633 0.355195,-0.29633 0.02754,0 0.131861,-0.0762 0.231828,-0.16933 0.09997,-0.0931 0.231724,-0.16934 0.292793,-0.16934 0.06107,0 0.111036,-0.0408 0.111036,-0.0906 0,-0.21581 0.381502,-0.0321 0.40779,0.19639 0.01473,0.12806 0.06236,0.23283 0.105833,0.23283 0.04347,0 0.07904,0.0403 0.07904,0.0897 0,0.0493 -0.04326,0.0629 -0.09614,0.0302 -0.05288,-0.0327 -0.0076,0.0603 0.100589,0.20667 0.223748,0.30264 0.306357,0.32987 0.357664,0.11792 0.01973,-0.0815 0.03983,0.0804 0.04468,0.35983 0.01157,0.66674 0.03976,0.889 0.112781,0.889 0.09496,0 0.263067,0.58608 0.208728,0.72769 -0.02702,0.0704 0.02759,0.21039 0.121358,0.31103 0.09377,0.10065 0.151454,0.23261 0.128187,0.29325 -0.08093,0.21089 0.535011,1.19095 0.666095,1.05987 0.02716,-0.0272 0.04939,0.0486 0.04939,0.16846 0,0.18308 0.0304,0.21052 0.1905,0.17193 0.156154,-0.0376 0.171419,-0.0255 0.08467,0.0672 -0.124427,0.13299 -0.134707,0.33095 -0.03131,0.60291 0.04099,0.1078 0.08483,0.23411 0.09743,0.28067 0.0126,0.0466 0.06974,0.12277 0.126988,0.16934 0.05724,0.0466 0.128817,0.191 0.159051,0.32096 0.03157,0.13572 0.09309,0.21274 0.14453,0.18094 0.04926,-0.0304 0.07077,-0.12721 0.0478,-0.21504 -0.02297,-0.0878 -0.0072,-0.18103 0.03496,-0.20711 0.04219,-0.0261 0.07672,0.0478 0.07672,0.16425 0,0.11642 -0.0381,0.23522 -0.08467,0.264 -0.04657,0.0288 -0.08166,0.1739 -0.07798,0.32249 0.0037,0.1486 0.02588,0.2226 0.04935,0.16445 0.03287,-0.0814 0.08426,-0.0766 0.223822,0.0212 0.09963,0.0698 0.248877,0.12689 0.331649,0.12689 0.08277,0 0.150495,0.0314 0.150495,0.0699 0,0.0384 0.133238,0.067 0.296084,0.0635 0.162846,-0.004 0.296196,-0.038 0.296333,-0.0766 1.7e-4,-0.0386 0.124074,-0.0417 0.275416,-0.007 0.71232,0.16407 1.5875,-0.0767 1.5875,-0.43669 0,-0.0706 0.08258,-0.12123 0.197671,-0.12123 0.112899,0 0.294729,-0.10893 0.423987,-0.254 0.124473,-0.1397 0.283171,-0.254 0.352661,-0.254 0.153354,0 0.167264,-0.13708 0.02051,-0.20215 -0.07003,-0.031 -0.06286,-0.0432 0.02117,-0.036 0.06985,0.006 0.18415,-0.0119 0.254,-0.0398 0.06985,-0.0279 0.2032,-0.0628 0.296333,-0.0775 0.122199,-0.0194 0.176752,-0.10367 0.195984,-0.3029 0.01466,-0.15185 0.06228,-0.25406 0.105833,-0.22714 0.04355,0.0269 0.07918,0.005 0.07918,-0.0486 0,-0.0652 0.154045,-0.0879 0.465782,-0.0685 0.25618,0.016 0.46573,4.2e-4 0.465667,-0.0345 -6.4e-5,-0.0349 0.05703,-0.0635 0.126884,-0.0635 0.06985,0 0.127,-0.0369 0.127,-0.082 0,-0.0451 0.05715,-0.0601 0.127,-0.0333 0.06985,0.0268 0.127,0.0108 0.127,-0.0356 0,-0.0464 0.13335,-0.10932 0.296334,-0.1399 0.174591,-0.0327 0.296333,-0.10533 0.296333,-0.17666 0,-0.0942 0.04705,-0.10318 0.211667,-0.0406 0.135055,0.0514 0.211666,0.0509 0.211666,-0.001 0,-0.0449 0.08572,-0.0832 0.1905,-0.0852 1.231294,-0.0231 2.272324,-0.0935 2.439446,-0.16484 0.170837,-0.073 0.144406,-0.0795 -0.153446,-0.038 -0.293299,0.0408 -0.359833,0.0252 -0.359833,-0.0843 0,-0.0974 0.08231,-0.13444 0.29899,-0.13444 0.164446,0 0.317279,-0.0476 0.339632,-0.10584 0.07128,-0.18562 0.730348,-0.13378 0.807368,0.0635 0.06257,0.16027 0.06643,0.15913 0.07206,-0.0212 0.0068,-0.21789 0.07309,-0.23348 0.359922,-0.0847 0.391394,0.20306 1.508696,0.0549 1.508696,-0.20011 0,-0.0879 0.04035,-0.15972 0.08966,-0.15972 0.04931,0 0.07104,0.0301 0.04827,0.067 -0.02276,0.0368 0.09094,0.0515 0.252684,0.0326 0.243277,-0.0284 0.289782,-0.0656 0.269227,-0.21514 -0.01969,-0.14331 0.02531,-0.18654 0.216996,-0.20846 0.176006,-0.0201 0.224086,0.001 0.176612,0.0779 -0.0481,0.0778 -0.02267,0.0872 0.09682,0.0356 0.506872,-0.514 1.986196,0.0239 1.124922,0.0399 -0.122356,6.8e-4 -0.265407,0.053 -0.317891,0.11628 -0.05248,0.0632 -0.317473,0.13818 -0.588867,0.16655 -0.596121,0.0623 -0.792925,0.13022 -0.719874,0.24842 0.03021,0.0489 0.01488,0.0641 -0.03407,0.0339 -0.04895,-0.0302 -0.208513,-0.005 -0.354582,0.0567 -0.265581,0.11167 -0.265581,0.11167 0.153419,0.10543 0.23045,-0.003 0.401768,-0.0235 0.380707,-0.0446 -0.15564,-0.1561 1.119369,-0.42165 1.284527,-0.26754 0.04424,0.0413 0.156634,0.0439 0.249767,0.006 0.146633,-0.0598 0.137175,-0.0699 -0.07055,-0.0751 -0.614377,-0.0152 -0.06319,-0.30165 0.663222,-0.34462 0.320956,-0.019 0.325436,-0.0229 0.0857,-0.0742 -0.345058,-1.46903 1.561306,-0.39706 1.853766,-0.0663 0.15495,0.12398 0.31964,0.18291 0.4445,0.15904 0.10909,-0.0209 0.19835,0.001 0.19835,0.0487 0,0.0972 0.32441,0.0376 0.48684,-0.0895 0.071,-0.0555 0.10583,-0.0515 0.10583,0.0122 0,0.1305 0.48449,0.12067 0.53269,-0.0108 0.031,-0.0847 0.0613,-0.0847 0.15099,0 0.0929,0.0876 0.0912,0.10584 -0.01,0.10584 -0.0786,0 -0.0431,0.073 0.10008,0.20583 0.22063,0.20458 0.9417,0.29751 2.31629,0.29853 0.45286,3.4e-4 0.73808,0.0747 0.67543,0.17605 -0.0281,0.0455 0.0122,0.10712 0.0897,0.13686 0.0775,0.0297 0.17055,0.006 0.20678,-0.0525 0.0418,-0.0676 0.0774,-0.0739 0.0973,-0.0171 0.0581,0.16549 1.43682,0.28703 1.59829,0.1409 0.21688,-0.19627 0.3639,-0.15807 0.3179,0.0826 -0.022,0.11501 -0.007,0.18896 0.0325,0.16434 0.0398,-0.0246 0.0736,0.005 0.075,0.0661 0.002,0.0701 0.0336,0.0576 0.0869,-0.0338 0.0464,-0.0796 0.14025,-0.12319 0.2086,-0.097 0.0683,0.0262 0.1032,0.0818 0.0774,0.12348 -0.0749,0.12116 0.0238,0.0877 0.16877,-0.0573 0.19094,-0.19094 0.17028,-0.5148 -0.0363,-0.56882 -0.0931,-0.0243 -0.16934,-0.1038 -0.16934,-0.17655 0,-0.0828 0.0475,-0.11404 0.127,-0.0835 0.15498,0.0595 0.15768,0.0244 0.0188,-0.24333 -0.14095,-0.27169 -0.36558,-0.49401 -0.43201,-0.42758 -0.0288,0.0288 -0.0524,-0.0133 -0.0524,-0.0937 0,-0.0804 0.0354,-0.12424 0.0786,-0.0975 0.0447,0.0277 0.0786,-0.15256 0.0786,-0.41833 0,-0.25681 -0.0354,-0.46693 -0.0786,-0.46693 -0.0432,0 -0.0786,-0.075 -0.0786,-0.16668 0,-0.1064 -0.042,-0.15056 -0.11608,-0.12213 -0.0638,0.0245 -0.13763,-0.0116 -0.16399,-0.0803 -0.0263,-0.0687 0.008,-0.14637 0.0767,-0.17268 0.10841,-0.0416 0.10687,-0.0821 -0.0118,-0.31162 -0.17455,-0.33755 -0.21331,-0.51336 -0.25048,-1.13624 -0.0167,-0.2794 -0.0362,-0.508 -0.0433,-0.508 -0.0908,0 -0.0458,-0.97277 0.0519,-1.12362 0.11052,-0.17053 0.10904,-0.22514 -0.0131,-0.48258 -0.14434,-0.30415 -0.11135,-0.46813 0.0942,-0.46813 0.0671,0 0.12201,-0.054 0.12201,-0.11994 0,-0.066 0.0427,-0.13418 0.0949,-0.15157 0.0522,-0.0174 0.10575,-0.2206 0.11903,-0.45156 0.035,-0.60845 0.0805,-0.80592 0.20326,-0.88178 0.0886,-0.0548 0.0884,-0.08 -9.6e-4,-0.13522 -0.0644,-0.0398 -0.12363,-0.0266 -0.14309,0.0318 -0.0476,0.14275 -0.27311,0.12334 -0.27311,-0.0235 0,-0.0732 0.11767,-0.14524 0.29029,-0.17762 0.29285,-0.0549 0.50447,-0.54138 0.34663,-0.79678 -0.0298,-0.0483 -0.01,-0.0878 0.0445,-0.0878 0.0544,0 0.0761,-0.0589 0.0483,-0.1314 -0.0289,-0.0753 -0.0147,-0.10933 0.0333,-0.0797 0.1116,0.069 0.10758,-0.34329 -0.006,-0.57766 -0.0863,-0.17865 -0.0849,-0.17935 0.0423,-0.0206 0.12376,0.15448 0.13167,0.14049 0.13167,-0.23283 0,-0.27808 -0.0345,-0.39718 -0.11494,-0.39718 -0.11262,0 -0.22373,-0.653 -0.22373,-1.31488 -0.55294,-1.22498 -0.0396,-1.54896 0.12902,-2.78847 0.0308,-0.23117 0.10965,-0.49682 0.17515,-0.59033 0.0655,-0.0935 0.1191,-0.23827 0.1191,-0.32167 0,-0.0834 0.0356,-0.21781 0.0791,-0.29867 0.56772,-1.05555 1.02002,-2.15075 0.94563,-2.28975 -0.0461,-0.0861 -0.0816,-0.40125 -0.0789,-0.70026 0.003,-0.29902 -0.002,-0.82942 -0.0109,-1.17867 -0.0155,-0.61974 0.1497,-1.3248 0.33749,-1.44086 0.0452,-0.0279 0.0885,-0.21211 0.0962,-0.4093 0.0105,-0.26725 0.0439,-0.34706 0.13142,-0.31349 0.0646,0.0248 0.0957,0.01 0.0693,-0.0328 -0.0265,-0.0428 0.0429,-0.17605 0.15413,-0.29607 0.11123,-0.12002 0.25263,-0.39888 0.31421,-0.61968 0.0616,-0.22081 0.16147,-0.49672 0.22195,-0.61313 0.0605,-0.11642 0.11077,-0.28787 0.11175,-0.381 9.7e-4,-0.0931 0.0567,-0.26459 0.12388,-0.381 0.24887,-0.43136 0.32038,-0.64264 0.32011,-0.94579 -1.7e-4,-0.22902 0.0304,-0.29904 0.11617,-0.26611 0.0806,0.0309 0.11645,-0.0238 0.11645,-0.17814 0,-0.16209 0.06,-0.24565 0.22027,-0.30657 0.14607,-0.0555 0.20376,-0.12676 0.17127,-0.21145 -0.10518,-0.27408 1.0045,-1.65235 1.22208,-1.51788 0.0438,0.0271 0.0797,0.015 0.0797,-0.0268 0,-0.14791 0.42253,-0.27897 0.5975,-0.18533 0.12968,0.0694 0.1645,0.0605 0.1645,-0.0419 0,-0.15608 0.13857,-0.17315 0.19604,-0.0241 0.0225,0.0582 0.0865,-0.0179 0.1423,-0.16923 0.0558,-0.15129 0.13506,-0.25432 0.17609,-0.22896 0.041,0.0254 0.18981,-0.0391 0.3306,-0.14316 0.14884,-0.11004 0.2188,-0.21225 0.16714,-0.24418 -0.0563,-0.0348 -0.0357,-0.0988 0.0559,-0.17444 0.11789,-0.0973 0.15176,-0.0988 0.18238,-0.008 0.027,0.0804 0.0707,0.0645 0.15567,-0.0568 0.0649,-0.0927 0.23232,-0.19367 0.37196,-0.22434 0.13965,-0.0307 0.2539,-0.10988 0.2539,-0.17603 0,-0.0933 0.14361,-0.12028 0.64105,-0.12028 0.45693,0 0.67752,-0.0365 0.76804,-0.127 0.0699,-0.0698 0.19823,-0.127 0.28529,-0.127 0.0871,0 0.18184,-0.0381 0.21062,-0.0847 0.0288,-0.0466 0.12679,-0.0847 0.21781,-0.0847 0.091,0 0.23164,-0.0349 0.3125,-0.0776 0.0809,-0.0427 0.27085,-0.12351 0.42219,-0.17961 0.15134,-0.0561 0.27517,-0.13428 0.27517,-0.17374 0,-0.0395 0.0553,-0.0505 0.12285,-0.0246 0.13408,0.0515 1.24187,-0.36117 1.3263,-0.49401 0.0335,-0.0528 0.10911,-0.052 0.21166,0.002 0.0877,0.0463 0.33097,0.1329 0.54052,0.19239 0.20955,0.0595 0.43187,0.14677 0.49405,0.19394 0.0622,0.0472 0.26554,0.0911 0.45192,0.0976 0.18726,0.007 0.37415,0.0655 0.41772,0.13181 0.0663,0.10096 0.0969,0.0965 0.19242,-0.0282 0.0625,-0.0815 0.15825,-0.14817 0.21287,-0.14817 0.11991,0 0.96529,-0.41958 1.02502,-0.50873 0.0233,-0.0348 0.21378,-0.0912 0.42333,-0.12537 0.20955,-0.0342 0.49967,-0.11097 0.64471,-0.1706 0.15704,-0.0646 0.42759,-0.0899 0.66885,-0.0628 0.29243,0.033 0.38845,0.0187 0.34513,-0.0514 -0.0357,-0.0577 -0.004,-0.0971 0.077,-0.0971 0.0754,0 0.11558,0.0346 0.0894,0.077 -0.0262,0.0423 0.22875,0.12358 0.56648,0.18055 0.33773,0.057 0.75848,0.15453 0.935,0.2168 0.17652,0.0623 0.2981,0.0763 0.27019,0.0311 -0.0279,-0.0452 -0.10565,-0.0821 -0.17276,-0.0821 -0.0671,0 -0.122,-0.0381 -0.122,-0.0847 0,-0.12749 0.2249,-0.10168 0.36891,0.0423 0.11289,0.11289 0.14175,0.11225 0.25978,-0.006 0.0807,-0.0807 0.19931,-0.11168 0.30239,-0.079 0.17909,0.0568 0.22765,0.25054 0.0849,0.33875 -0.0466,0.0288 -0.0847,-0.007 -0.0847,-0.0797 0,-0.18842 -0.14137,-0.16343 -0.19303,0.0341 -0.0492,0.18797 0.69569,0.6251 0.91907,0.53938 0.0688,-0.0264 0.12062,0.004 0.12062,0.0717 0,0.0649 0.0857,0.12227 0.1905,0.12743 0.10478,0.005 0.14288,-0.009 0.0847,-0.0314 -0.14618,-0.0563 -0.13322,-0.19598 0.0182,-0.19598 0.0682,0 0.16346,0.0737 0.21166,0.16376 0.12037,0.22491 0.11051,0.27107 -0.0517,0.24211 -0.0767,-0.0137 -0.15504,0.0198 -0.17417,0.0743 -0.0222,0.0634 0.0281,0.0827 0.13938,0.0536 0.1103,-0.0288 0.1789,-0.003 0.18706,0.0702 0.007,0.0636 0.0184,0.17285 0.0251,0.2427 0.007,0.0699 0.0581,0.11748 0.1141,0.10584 0.056,-0.0116 0.10188,0.055 0.10188,0.14816 0,0.0931 0.0458,0.15981 0.10188,0.14817 0.10201,-0.0212 0.11223,0.0137 0.14266,0.48683 0.0194,0.30085 0.4408,0.82699 0.67633,0.84434 0.0911,0.007 0.22199,0.0589 0.29082,0.11607 0.0688,0.0571 0.15774,0.0971 0.19756,0.0888 0.15706,-0.0327 0.62275,0.20192 0.62275,0.31376 0,0.10734 0.10364,0.15583 0.27517,0.12875 0.0349,-0.006 0.0635,0.0308 0.0635,0.0807 0,0.13892 0.20034,0.30818 0.31825,0.26887 0.0612,-0.0204 0.10508,0.0386 0.10508,0.14136 0,0.15779 0.0863,0.21624 0.27517,0.18642 0.0349,-0.006 0.0635,0.0515 0.0635,0.12675 0,0.14617 0.65979,0.79456 0.80852,0.79456 0.0489,0 0.13547,0.0465 0.19233,0.10339 0.0569,0.0569 0.16926,0.10749 0.24977,0.11251 0.0805,0.005 0.25115,0.0156 0.37921,0.0236 0.12806,0.008 0.23283,0.0621 0.23283,0.12032 0,0.0618 0.11457,0.10824 0.27517,0.11162 0.93758,0.0197 1.21499,0.0766 1.21072,0.24821 -0.002,0.0992 0.0432,0.15936 0.11038,0.14525 0.19235,-0.0404 0.43573,0.0708 0.43573,0.19913 0,0.0667 0.0381,0.12129 0.0847,0.12129 0.0466,0 0.0855,0.0476 0.0865,0.10583 9.9e-4,0.0582 0.1534,0.21308 0.33867,0.34416 0.18527,0.13108 0.33686,0.27276 0.33686,0.31484 0,0.0421 0.0593,0.0538 0.13174,0.026 0.15061,-0.0578 0.46093,0.23394 0.46093,0.43333 0,0.0737 0.073,0.13054 0.16772,0.13054 0.10829,0 0.18654,0.075 0.22084,0.21166 0.0513,0.20447 0.2041,0.29954 0.2041,0.127 0,-0.0466 0.0381,-0.0847 0.0847,-0.0847 0.0466,0 0.0847,0.11022 0.0847,0.24494 0,0.25963 0.16015,0.37842 0.39084,0.28989 0.11657,-0.0447 0.1224,-0.0255 0.0394,0.12966 -0.0801,0.14968 -0.0743,0.18217 0.0325,0.18217 0.0715,0 0.12998,0.0571 0.12998,0.127 0,0.0847 0.0847,0.127 0.254,0.127 0.1397,0 0.254,0.0381 0.254,0.0847 0,0.0466 -0.0286,0.0847 -0.0635,0.0847 -0.0349,0 -0.0635,0.0952 -0.0635,0.21166 0,0.11642 0.0412,0.21167 0.0915,0.21167 0.10107,0 0.30946,0.34399 0.28494,0.47036 -0.0357,0.18399 0.01,0.38306 0.0779,0.34097 0.10416,-0.0644 0.37795,0.26025 0.31095,0.36867 -0.0306,0.0495 0.005,0.09 0.0785,0.09 0.0737,0 0.17056,0.0959 0.21514,0.21318 0.0446,0.11726 0.17467,0.24878 0.28909,0.29229 0.11442,0.0435 0.24904,0.1557 0.29915,0.24932 0.0501,0.0936 0.14267,0.15045 0.2057,0.12626 0.0729,-0.028 0.26875,0.18749 0.53838,0.59237 0.23308,0.34999 0.4559,0.60932 0.49515,0.57629 0.0393,-0.033 0.0237,0.003 -0.0346,0.0791 -0.0868,0.11409 -0.08,0.16511 0.0377,0.28285 0.12108,0.12109 0.12487,0.15537 0.0241,0.21825 -0.097,0.0605 -0.0837,0.0999 0.0709,0.20879 0.10478,0.0738 0.1905,0.20451 0.1905,0.29046 0,0.14434 1.56805,1.18879 1.78476,1.18879 0.11995,0 0.0987,1.58761 -0.0217,1.62777 -0.0641,0.0214 -0.0727,0.0768 -0.0242,0.15523 0.0415,0.0671 0.079,0.44585 0.0833,0.84167 0.0309,2.86658 0.0418,3.02494 0.18832,2.7305 0.25658,-0.51555 0.27508,-0.27443 0.2306,3.00566 -0.11118,8.19808 -0.21015,23.11874 -0.15434,23.26715 0.034,0.0904 0.11719,0.20589 0.18487,0.25665 0.10492,0.0787 0.11698,0.52497 0.0817,3.02683 -0.0396,2.81171 -0.0348,2.93454 0.11501,2.93454 0.18254,0 0.20293,1.9967 0.10008,9.80017 l -0.0561,4.2545 h -0.2825 c -0.19466,0 -0.28249,0.0395 -0.28249,0.127 0,0.10621 -0.15592,0.12465 -0.9525,0.11269 -0.52388,-0.008 -3.06705,-0.0409 -5.6515,-0.0734 z m -29.22355,-23.51804 c -0.28423,-0.94256 -0.41344,-1.16939 -0.38798,-0.68104 0.0113,0.21646 0.0491,0.37613 0.084,0.35483 0.0349,-0.0213 0.0635,0.106 0.0635,0.28288 0,0.17689 0.0667,0.48294 0.14816,0.68012 0.2389,0.57804 0.31022,0.0859 0.0923,-0.63679 z m 0.24189,-10.82658 c -0.18838,-0.35456 -0.56701,-1.26323 -0.56701,-1.36075 0,-0.0467 -0.0571,-0.13231 -0.127,-0.19028 -0.14728,-0.12223 -0.19174,0.1539 -0.0484,0.30057 0.0432,0.0442 0.16004,0.28998 0.25956,0.5461 0.18015,0.46361 0.51871,1.03401 0.57835,0.97437 0.0172,-0.0172 -0.0258,-0.13873 -0.0955,-0.27001 z m 8.02666,-0.53503 c -0.0248,-0.0401 -0.003,-0.0988 0.0478,-0.13038 0.0511,-0.0316 0.0706,-0.14618 0.0434,-0.25466 -0.0272,-0.10849 -0.0113,-0.22088 0.0355,-0.24976 0.0467,-0.0289 0.085,0.007 0.085,0.0795 0,0.43144 0.25812,0.0613 0.29793,-0.42724 0.0173,-0.21223 0.0812,-0.44575 0.14192,-0.51894 0.12312,-0.14828 0.31995,-0.9094 0.36219,-1.40049 0.0151,-0.17582 0.0625,-0.36632 0.10537,-0.42333 0.0428,-0.057 0.0529,-0.21797 0.0223,-0.35767 l -0.0556,-0.254 -0.0695,0.254 c -0.0382,0.1397 -0.12479,0.33945 -0.19241,0.44389 -0.0738,0.11398 -0.10836,0.31476 -0.0865,0.5023 0.0296,0.25334 -0.0532,0.4896 -0.43755,1.24945 -0.26071,0.51537 -0.46907,1.01323 -0.46301,1.10636 0.006,0.0931 0.0167,0.25731 0.0236,0.36483 0.007,0.10867 0.0507,0.17188 0.0986,0.14232 0.0473,-0.0292 0.0658,-0.086 0.041,-0.12615 z m -27.286797,-0.0303 c 0.199536,-0.0632 0.629492,-0.16334 0.955459,-0.22251 0.325967,-0.0592 0.649817,-0.14133 0.719667,-0.18257 0.09015,-0.0532 0.06558,-0.0637 -0.08467,-0.0361 -0.254463,0.0467 -0.960685,0.14408 -1.312333,0.1809 -0.1397,0.0146 -0.492703,0.0525 -0.78445,0.0842 -0.711898,0.0773 -0.67227,-0.15477 0.04931,-0.28876 l 0.481139,-0.0893 -0.459145,0.0431 c -0.711547,0.0668 -0.908716,0.21976 -0.635474,0.493 0.163505,0.16351 0.588848,0.1707 1.070493,0.0181 z m 2.557843,-0.0442 c 0.05388,-0.0872 0.821287,-0.34883 1.023073,-0.34883 0.07607,0 0.195455,-0.0572 0.265305,-0.127 0.06985,-0.0699 0.212247,-0.127 0.316437,-0.127 0.10419,0 0.263394,-0.0603 0.353785,-0.13391 0.162033,-0.13203 0.161963,-0.13309 -0.005,-0.0755 -0.373414,0.12884 -1.637755,0.46049 -2.099994,0.55085 -0.408972,0.0799 -0.474644,0.11614 -0.391799,0.21596 0.109952,0.13249 0.465806,0.16252 0.538176,0.0454 z m 15.159304,-1.67135 c -0.12143,-0.46007 -0.25122,-1.00793 -0.28842,-1.21748 l -0.0676,-0.381 -0.0113,0.37499 c -0.006,0.20625 0.065,0.62535 0.15833,0.93134 0.0933,0.30598 0.21278,0.72779 0.26549,0.93734 0.0527,0.20955 0.11126,0.33831 0.13009,0.28614 0.0188,-0.0522 -0.0651,-0.47127 -0.18653,-0.93133 z M 99.144665,146.304 c 0.230146,-0.15242 0.236579,-0.16827 0.0685,-0.16878 -0.102026,-3.4e-4 -0.20905,0.0375 -0.23783,0.0841 -0.02878,0.0466 -0.0977,0.0817 -0.153164,0.078 -0.07271,-0.005 -0.07131,-0.0186 0.005,-0.0494 0.05821,-0.0235 0.105833,-0.0735 0.105833,-0.11125 0,-0.12918 -0.266219,-0.17076 -0.450633,-0.0704 -0.184367,0.10034 -0.184367,0.10034 0.0273,0.16059 0.172955,0.0492 0.146771,0.0618 -0.14317,0.0687 -0.563976,0.0134 -0.533966,0.17785 0.03234,0.17721 0.348357,-4.2e-4 0.565926,-0.0496 0.745831,-0.16877 z m 2.236015,-0.24748 c 0.22874,-0.76905 -1.42892,-0.71503 -0.92581,-0.59733 0.16183,0.0381 0.3241,0.0508 0.36059,0.0282 0.20901,-0.12918 0.41822,0.0765 0.36521,0.35913 -0.0554,0.29504 -0.01,0.34281 0.19997,0.20998 z M 81.784774,145.1804 c -0.01208,-0.15231 -0.121079,-0.52083 -0.242208,-0.81893 -0.121128,-0.2981 -0.221604,-0.62116 -0.223278,-0.7179 -0.0071,-0.40899 -0.376596,-0.6815 -0.577597,-0.42596 -0.249132,0.31672 -0.258099,0.68759 -0.0094,0.38909 0.198235,-0.23795 0.420716,-0.18694 0.420716,0.0965 0,0.10916 0.098,0.40162 0.217773,0.6499 0.137966,0.28599 0.199429,0.5245 0.16772,0.65085 -0.02804,0.11173 -0.01212,0.19942 0.03623,0.19942 0.04745,0 0.08628,0.0572 0.08628,0.127 0,0.0699 0.03279,0.127 0.07287,0.127 0.04008,0 0.06299,-0.12462 0.0509,-0.27693 z m 48.589046,-6.93557 c -0.10814,-0.42781 -0.23521,-0.81643 -0.28239,-0.8636 -0.0472,-0.0472 -0.0859,-0.14482 -0.0861,-0.217 -5.1e-4,-0.19346 -0.46671,-0.86252 -0.54896,-0.78787 -0.0388,0.0352 -0.0411,0.013 -0.005,-0.0492 0.1247,-0.21566 -1.61238,-1.60064 -1.78769,-1.42533 -0.0272,0.0272 -0.17197,-0.0439 -0.32167,-0.15811 -0.41226,-0.31445 -0.42901,-0.14499 -0.0221,0.22321 0.35635,0.32242 0.60149,0.4464 0.39811,0.20133 -0.24048,-0.28976 0.0195,-0.20371 0.41572,0.13762 0.28924,0.24915 0.39879,0.39587 0.34446,0.46134 -0.10069,0.12132 -0.0177,0.21026 0.13976,0.14983 0.0815,-0.0313 0.10365,-0.004 0.0694,0.0852 -0.0352,0.0918 0.0473,0.1809 0.27532,0.29725 0.64138,0.32721 0.79446,0.56164 1.03181,1.58014 0.0434,0.18627 0.0839,0.26247 0.09,0.16934 0.0175,-0.26696 0.1818,0.0603 0.21622,0.43059 0.0221,0.23777 0.16366,0.54307 0.25181,0.54307 0.01,0 -0.0705,-0.35002 -0.1786,-0.77783 z m -9.93549,0.0582 c 0,-0.32279 -0.0318,-0.45918 -0.10382,-0.4445 -0.12068,0.0246 -0.20079,-0.35788 -0.0911,-0.43493 0.0407,-0.0286 0.0272,-0.18497 -0.0301,-0.34824 -0.10405,-0.29633 -0.10405,-0.29633 -0.10883,0.0889 -0.003,0.21188 -0.0467,0.42714 -0.0979,0.47837 -0.0677,0.0677 -0.0446,0.14162 0.0847,0.27093 0.0978,0.0978 0.17054,0.20638 0.16167,0.2413 -0.0223,0.0879 0.10607,0.61383 0.14986,0.61383 0.0196,0 0.0356,-0.20955 0.0356,-0.46566 z m -4.87638,-0.90187 c -0.3123,-0.35278 -1.92066,-1.29541 -1.64635,-0.9649 0.0604,0.0727 0.19254,0.17962 0.29372,0.23751 0.53671,0.3071 0.72212,0.46056 0.76556,0.63364 0.0264,0.10521 0.0876,0.19128 0.13606,0.19128 0.0484,0 0.0645,-0.0381 0.0357,-0.0847 -0.0794,-0.1285 0.15748,-0.10117 0.34365,0.0396 0.23348,0.1766 0.25833,0.15839 0.0716,-0.0525 z m 3.09227,-1.05971 c 0.008,-0.23256 -0.0748,-0.45142 -0.17016,-0.45142 -0.0404,0 -0.0516,0.10968 -0.0247,0.24373 0.0581,0.29056 -0.0222,0.3533 -0.47543,0.37138 -0.39933,0.0159 -0.44736,0.16966 -0.10846,0.34722 0.27572,0.14447 0.76772,-0.17829 0.7788,-0.51091 z m -7.29047,0.20264 c 0.893,-0.0142 1.19992,-0.0461 1.2002,-0.1249 5.1e-4,-0.13119 0.10526,-0.13642 0.2302,-0.0115 0.14055,0.14055 0.98474,-0.0841 0.86377,-0.22988 -0.26371,-0.31775 -1.54844,-0.32803 -2.42648,-0.0194 -0.2612,0.0918 -0.54445,0.14873 -0.62946,0.1265 -0.085,-0.0222 -0.13566,-0.01 -0.11258,0.0275 0.0538,0.0871 -0.20041,0.1869 -0.30749,0.12072 -0.0496,-0.0306 -0.0426,-0.0966 0.018,-0.16961 0.0599,-0.0722 0.0651,-0.11946 0.0132,-0.11946 -0.1047,0 -0.18921,0.20352 -0.18746,0.45142 8.9e-4,0.12624 0.0227,0.14987 0.0698,0.0756 0.0493,-0.0776 0.4057,-0.11329 1.26833,-0.127 z m -1.17036,-0.99426 c -0.0346,-0.18912 -0.0864,-0.36741 -0.11524,-0.3962 -0.0288,-0.0288 -0.005,-0.10968 0.0528,-0.17975 0.0837,-0.1015 0.0836,-0.13463 -7.6e-4,-0.16301 -0.12679,-0.0427 -0.14352,-0.44484 -0.0185,-0.44484 0.048,0 0.11109,0.0667 0.14014,0.14816 0.0802,0.2249 0.20673,0.36312 0.28704,0.31348 0.0396,-0.0245 -0.003,-0.1193 -0.0943,-0.21073 -0.0914,-0.0914 -0.16622,-0.2234 -0.16622,-0.29325 0,-0.0699 -0.0561,-0.127 -0.12458,-0.127 -0.0685,0 -0.16279,-0.12382 -0.20949,-0.27516 -0.11474,-0.37181 -0.032,0.98774 0.0977,1.60574 0.10774,0.5133 0.24491,0.53373 0.15144,0.0226 z m 16.61312,-1.58597 c -0.13753,-0.17462 -0.35553,-0.52661 -0.48445,-0.7822 -0.24547,-0.48668 -0.66925,-0.92865 -0.89263,-0.93095 -0.0722,-7.6e-4 -0.17632,-0.0464 -0.23142,-0.10154 -0.0551,-0.0551 -0.11982,-0.0806 -0.14381,-0.0566 -0.024,0.024 0.0611,0.0955 0.18909,0.15893 0.30549,0.15137 0.74394,0.61015 0.9548,0.99906 0.27286,0.50325 0.36667,0.63659 0.59024,0.83896 0.30041,0.27194 0.30521,0.23877 0.0182,-0.12569 z m -9.33151,0.0635 c 0,-0.0466 -0.0583,-0.0847 -0.12966,-0.0847 -0.0713,0 -0.1503,-0.0538 -0.17554,-0.11956 -0.0642,-0.16737 -1.68654,-1.14662 -2.00517,-1.21034 -0.14433,-0.0289 -0.47411,-0.17029 -0.73285,-0.31427 -0.25875,-0.14398 -0.69905,-0.35202 -0.97845,-0.46231 -0.2794,-0.11029 -0.71158,-0.29385 -0.96039,-0.40791 -0.65256,-0.29912 -0.63366,-0.19024 0.0927,0.53374 0.58048,0.57861 0.66849,0.63671 0.8906,0.58792 0.17103,-0.0376 0.27968,-0.0141 0.35499,0.0766 0.13863,0.16703 -0.0712,0.18843 -0.24453,0.0249 -0.0905,-0.0854 -0.10479,-0.0816 -0.074,0.0194 0.021,0.0688 0.20675,0.22778 0.41275,0.35318 0.42644,0.25957 0.57015,0.29897 0.41688,0.11429 -0.0863,-0.10401 -0.0805,-0.127 0.032,-0.127 0.0755,0 0.13737,0.0381 0.13737,0.0847 0,0.0466 0.0934,0.0847 0.20762,0.0847 0.20762,0 0.20762,0 0.0212,-0.19878 -0.23253,-0.24791 -0.50353,-0.39388 -0.73123,-0.39388 -0.17425,0 -0.24313,-0.20184 -0.0992,-0.29078 0.0661,-0.0409 0.74637,0.24062 1.10967,0.45919 0.0698,0.042 0.4428,0.22135 0.82878,0.3985 0.61232,0.28103 0.69746,0.34637 0.6679,0.51259 -0.0379,0.21339 0.0255,0.24237 0.18542,0.0847 0.0859,-0.0847 0.12764,-0.0805 0.20938,0.0212 0.19944,0.24812 0.56385,0.41227 0.56385,0.254 z m -7.3927,-2.21745 c 0.0707,-0.0787 0.1426,-0.28827 0.15987,-0.46567 0.0434,-0.44632 0.0815,-0.6234 0.19352,-0.89956 0.0532,-0.13109 0.0966,-0.27036 0.0966,-0.3095 0,-0.0391 0.0816,-0.23668 0.18136,-0.43899 0.0997,-0.2023 0.21868,-0.46308 0.26431,-0.5795 0.13349,-0.34059 0.33961,-0.71544 0.42483,-0.77258 0.0462,-0.0309 0.0389,-0.0776 -0.0175,-0.11248 -0.21461,-0.13264 -1.42745,2.93796 -1.48337,3.75549 -0.0146,0.21408 -0.009,0.29399 0.0126,0.17757 0.0216,-0.11641 0.097,-0.27607 0.1677,-0.35478 z m 14.16156,-0.11627 c -0.0604,-0.0728 -0.39697,-0.27284 -0.74786,-0.4445 -0.55096,-0.26954 -1.06602,-0.6841 -1.49228,-1.20111 -0.24454,-0.2966 -0.64484,-1.11019 -0.83492,-1.69691 -0.37167,-1.14729 -0.75508,-1.73044 -1.4078,-2.14123 -0.21533,-0.13552 -0.26695,-0.22351 -0.76498,-1.30385 -0.15525,-0.33678 -0.29699,-0.5976 -0.31498,-0.57961 -0.14119,0.14119 0.55563,1.70397 0.95091,2.13263 0.36012,0.39052 0.55856,0.64599 0.67162,0.86462 0.0723,0.13976 0.25359,0.34974 0.40294,0.46662 0.22484,0.17597 0.25354,0.23418 0.1669,0.33858 -0.0768,0.0925 -0.0791,0.14184 -0.009,0.18527 0.15611,0.0965 0.43509,0.82197 0.43627,1.13456 0.001,0.31799 0.0788,0.42251 0.42867,0.57732 0.12806,0.0567 0.23283,0.16315 0.23283,0.23662 0,0.22324 0.48191,0.59121 1.34179,1.02455 0.44947,0.2265 0.82991,0.4404 0.84543,0.47533 0.0155,0.0349 0.0678,0.0635 0.1162,0.0635 0.0515,0 0.0425,-0.0549 -0.0219,-0.13239 z m -3.1907,-0.3522 c -0.20708,-0.13923 -0.86883,-1.44236 -0.86883,-1.71092 0,-0.0918 -0.0549,-0.37757 -0.12194,-0.63506 -0.0671,-0.25749 -0.10052,-0.60019 -0.0743,-0.76154 0.0547,-0.33699 -0.0277,-0.75442 -0.13578,-0.68765 -0.11618,0.0718 -0.0404,1.22527 0.11701,1.78209 0.3209,1.13485 1.03066,2.39448 1.23104,2.18479 0.0233,-0.0244 -0.0429,-0.10163 -0.14717,-0.17171 z m 0.99384,0.0557 c 0,-0.2376 -0.15085,-0.50244 -0.28619,-0.50244 -0.061,0 -0.17986,-0.0762 -0.26414,-0.16933 -0.18123,-0.20025 -0.32257,-0.21476 -0.4615,-0.0474 -0.0829,0.0999 -0.0348,0.17006 0.2648,0.38709 0.20131,0.14582 0.3965,0.31953 0.43374,0.38603 0.10181,0.1818 0.31329,0.14535 0.31329,-0.054 z m -2.12829,-1.07454 c -0.10751,-0.22086 -0.18514,-0.46495 -0.17251,-0.54242 0.0459,-0.28178 -0.3054,-0.80889 -0.36934,-0.55412 -0.03,0.11937 -0.0105,0.28648 0.0432,0.37134 0.0828,0.13083 0.0902,0.11566 0.0488,-0.0997 -0.0407,-0.21183 -0.0333,-0.22826 0.0451,-0.0989 0.0516,0.0853 0.0746,0.22886 0.051,0.31904 -0.0473,0.18103 0.46009,1.27382 0.515,1.10909 0.0188,-0.0565 -0.0537,-0.28345 -0.16122,-0.5043 z m 0.76533,-0.54344 c -0.0566,-0.20137 -0.11036,-0.42327 -0.11951,-0.49312 -0.0598,-0.45641 -0.24633,-0.88503 -0.27798,-0.63876 -0.0177,0.13764 0.0531,0.51864 0.15741,0.84667 0.10426,0.32803 0.20723,0.65357 0.22882,0.72342 0.095,0.30732 0.10555,-0.10265 0.0113,-0.43821 z m -7.63231,-1.97099 c 0.6667,-0.34147 1.40983,-0.70224 1.5446,-0.74988 0.0801,-0.0283 0.055,-0.0473 -0.0679,-0.0516 -0.10719,-0.004 -0.35484,0.076 -0.55033,0.17715 -0.1955,0.10111 -0.42734,0.21899 -0.51521,0.26196 -0.0879,0.043 -0.29742,0.15637 -0.46567,0.252 -0.16824,0.0956 -0.47735,0.22521 -0.6869,0.28794 l -0.381,0.11407 0.3604,-0.043 c 0.19822,-0.0237 0.54112,-0.13556 0.762,-0.24868 z m -1.58806,-0.5372 c 0,-0.0838 0.0454,-0.19779 0.10086,-0.25326 0.10165,-0.10166 0.0112,-0.66225 -0.19469,-1.20647 -0.11083,-0.29296 0.51645,-2.08569 0.80264,-2.29391 0.0406,-0.0295 0.0559,-0.10574 0.0341,-0.16933 -0.0477,-0.13894 -0.77128,1.3405 -0.90949,1.85967 -0.13147,0.49385 -0.0843,2.21516 0.0608,2.21547 0.0582,9e-5 0.10584,-0.0684 0.10584,-0.15217 z m 2.07433,-0.69791 c 0.59287,-0.16243 0.64413,-0.1891 0.59745,-0.31074 -0.0259,-0.0675 -0.0471,-0.16756 -0.0471,-0.22226 0,-0.1148 -0.64772,-0.33832 -0.76692,-0.26465 -0.0439,0.0271 -0.0797,0.0928 -0.0797,0.14589 0,0.0714 0.0248,0.0718 0.095,0.002 0.11645,-0.11645 0.32835,-0.0469 0.32835,0.10772 0,0.0622 -0.1143,0.18067 -0.254,0.2632 -0.1397,0.0825 -0.254,0.1762 -0.254,0.20817 0,0.032 -0.1143,0.098 -0.254,0.14667 -0.1397,0.0487 -0.254,0.12914 -0.254,0.17875 0,0.0554 0.12242,0.0372 0.3175,-0.0473 0.17462,-0.0756 0.4318,-0.16881 0.5715,-0.20708 z m -0.80433,0.004 c 0.10853,-0.0701 0.10545,-0.0823 -0.0212,-0.0834 -0.0815,-6.7e-4 -0.14817,-0.0257 -0.14817,-0.0555 0,-0.0298 0.0667,-0.1091 0.14817,-0.17624 0.13858,-0.11418 0.13721,-0.11843 -0.0212,-0.0656 -0.54102,0.18036 -0.84403,0.1389 -0.65192,-0.0892 0.0373,-0.0442 0.15903,-0.30872 0.27059,-0.58774 0.11156,-0.27903 0.31789,-0.63376 0.45852,-0.7883 0.14063,-0.15454 0.3027,-0.39278 0.36015,-0.52944 0.0575,-0.13665 0.19956,-0.34355 0.31578,-0.45977 0.19206,-0.19206 0.20097,-0.23123 0.0978,-0.43005 -0.0671,-0.1293 -0.13647,-0.18154 -0.16971,-0.12777 -0.0309,0.05 -0.0357,0.1241 -0.0107,0.1646 0.025,0.0405 -0.0491,0.18337 -0.16479,0.3175 -0.11566,0.13413 -0.19165,0.293 -0.16888,0.35305 0.0746,0.19655 -0.89689,1.37249 -1.1338,1.37249 -0.099,0 -0.16588,0.60262 -0.0845,0.762 0.0356,0.0699 0.0843,0.19072 0.10814,0.2686 0.0609,0.19889 0.59159,0.29956 0.8157,0.15473 z M 112.141,125.0161 c 0,-0.0667 0.1143,-0.20263 0.254,-0.3021 0.22733,-0.16188 0.37778,-0.42517 0.16933,-0.29634 -0.11398,0.0705 -0.10689,-0.025 0.0383,-0.51571 0.123,-0.41562 0.123,-0.41562 -0.0764,-0.18768 -0.10966,0.12537 -0.22492,0.37903 -0.25612,0.56369 -0.0312,0.18466 -0.1099,0.40594 -0.1749,0.49173 -0.13921,0.18372 -0.15867,0.36764 -0.0389,0.36764 0.0466,0 0.0847,-0.0546 0.0847,-0.12123 z m 26.04584,-3.93486 c -0.13374,-0.0882 -0.45759,-0.18471 -0.71967,-0.21453 -0.26208,-0.0298 -0.5908,-0.0762 -0.7305,-0.10302 -0.14234,-0.0273 -0.2231,-0.0165 -0.18371,0.0246 0.068,0.071 0.87572,0.25756 1.3455,0.3107 0.12676,0.0143 0.25694,0.0525 0.28928,0.0849 0.0324,0.0323 0.10009,0.0586 0.15054,0.0583 0.0504,-3.1e-4 -0.0177,-0.0727 -0.15144,-0.16087 z m -24.48632,-0.37613 c -0.0335,-0.0872 -0.0104,-0.14084 0.0613,-0.1426 0.13756,-0.003 0.4959,-0.28946 0.4959,-0.39591 0,-0.0414 0.1362,-0.1245 0.30267,-0.1847 0.40241,-0.14552 0.31998,-0.20518 -0.14053,-0.10171 -0.21433,0.0482 -0.40591,0.0514 -0.45843,0.008 -0.10044,-0.0834 -0.40726,0.52383 -0.50876,1.00682 -0.0604,0.28719 -0.0604,0.28719 0.12059,0.11861 0.11167,-0.10404 0.16041,-0.2221 0.12731,-0.30836 z m 5.77912,-0.59729 c 0.0616,-0.13521 0.11203,-0.29496 0.11203,-0.35499 0,-0.06 0.0725,-0.23516 0.16112,-0.38916 0.0886,-0.154 0.18436,-0.41336 0.21274,-0.57634 0.0452,-0.25941 0.0185,-0.23304 -0.21387,0.21167 -0.53968,1.03267 -0.58717,1.14915 -0.62953,1.54413 -0.0471,0.43892 -0.0331,0.42188 0.35751,-0.43531 z m 12.38481,-2.27299 c -0.0989,-0.10477 -0.23961,-0.3048 -0.31269,-0.4445 -0.30682,-0.58655 -1.29209,-1.72262 -1.29209,-1.48985 0,0.0428 0.10593,0.16693 0.2354,0.27588 0.12948,0.10895 0.36419,0.38856 0.52159,0.62136 0.56429,0.8346 0.86741,1.22761 0.94685,1.22761 0.0444,0 -1.7e-4,-0.0857 -0.0991,-0.1905 z m -6.17427,-1.69333 c 0.38367,-0.20462 0.84559,-0.63154 0.84187,-0.77808 -0.001,-0.0494 -0.10602,0.0269 -0.23283,0.16939 -0.34506,0.38785 -1.0195,0.62701 -1.29246,0.45831 -0.1685,-0.10413 0.12864,-0.33003 0.43901,-0.33376 0.12308,-10e-4 0.24571,-0.0598 0.27251,-0.1297 0.0268,-0.0699 0.12388,-0.127 0.21573,-0.127 0.17067,0 0.2929,-0.10986 0.21212,-0.19065 -0.0604,-0.0604 -0.54313,0.12556 -0.54313,0.20922 0,0.0363 -0.093,0.0661 -0.20667,0.0661 -0.11367,0 -0.23022,0.0381 -0.259,0.0847 -0.0288,0.0466 -0.0882,0.0847 -0.132,0.0847 -0.11817,0 -0.0966,-0.23306 0.0262,-0.28259 0.0718,-0.029 0.065,-0.044 -0.0212,-0.0467 -0.0699,-0.002 -0.20096,0.0519 -0.29135,0.12032 -0.14331,0.10839 -0.14602,0.12431 -0.0212,0.12431 0.0882,0 0.14318,0.0671 0.14318,0.17457 0,0.50702 0.34254,0.66713 0.84918,0.39693 z m -58.013692,42.43916 c 0.03558,-0.37311 0.0394,-0.37661 0.274077,-0.25102 0.192858,0.10322 0.220597,0.42036 0.03677,0.42036 -0.06985,0 -0.127,0.0381 -0.127,0.0847 0,0.0466 -0.04863,0.0847 -0.10807,0.0847 -0.07502,0 -0.09819,-0.10357 -0.07577,-0.33867 z"
         id="path1364"
         sodipodi:nodetypes="ccccscssscccccccssccsccccccsccscccsssscscssssccscscssssssccccscscsssssssccscccscscssssccsscscssssscccscscscsssssscsssssccsccsccscsssccccsscccssssccscscscssssscscscccsscsscssccscccccccsccccccccccscsccscsccccsccccccccsccsscssscccccsccsssccscsccsccccssccssccccccccsccscccscccsssccccsccccsscscscsscccsscccscccccscccssscccsscssccssscccccscccccscssscssccssccssssssssscsssccsssssssscsscsscsccccssscsccssscsccsscccccssccccscssscccscssccccccsccccsccccccccccsscccscscccscccccccscccccscssscccccccccccsscscsssssssscscscsccscscccsssscccsscccscscccccsscccccsccscccccccccccsscccccccssccsssccccsccscsscccsccssccccccccssscscsscsccccccscscccscccsscsssscsccccsssscccsccccccccsscsscccccsccccccccscsccccccccccccccssccsccccsscscscscscccccscccsscssssccsccccccccssssccccccccsccscssccccsscscccccccsssscccccscssssscscccsscccsssscc" />
      <path
         id="path1362"
         style="fill:#aaaaaa;fill-opacity:1;stroke-width:0.0846667"
         d="m 140.208,182.1914 c -2.54883,-0.36493 -4.15563,0.0528 -7.18285,-0.0458 -13.6753,-0.001 -27.34904,-0.49006 -41.023251,-0.27999 -3.389992,-0.0862 -4.774628,-0.0922 -7.92771,-0.16288 -2.314631,0.0409 -7.460082,-0.28906 -7.97002,0.26397 1.634064,-0.15976 7.121398,-0.0284 2.647752,0.12738 -2.720892,0.1038 -6.013731,0.0216 -8.40101,-0.0982 -2.22385,-0.0815 -4.49132,0.0989 -6.739923,0.0373 0.09292,-6.82296 -0.04838,-13.84016 0.246517,-20.5105 2.106105,-0.30052 3.987219,-2.28356 5.176609,-3.34399 0.733441,-1.49833 2.747858,-2.35022 3.835334,-3.80607 0.833358,-2.66049 2.224215,-4.93516 3.551437,-7.37516 0.711322,-1.35064 3.008575,-4.19287 1.321048,-0.97239 -0.841959,1.89276 -0.624924,4.5658 0.968843,1.55767 0.879043,0.059 1.294464,-1.02914 2.198087,1.16476 1.041124,1.34146 1.993277,3.42047 3.599284,3.02339 1.728744,0.61632 2.408891,3.31115 2.790162,1.7587 0.174382,2.19802 3.104445,2.41754 0.935225,-0.0683 -1.343824,-1.78575 0.02589,-3.28334 1.099399,-1.01685 1.952235,0.18086 3.012102,4.67788 3.276032,1.22548 1.144479,-1.11355 0.03309,-2.91359 0.467177,-3.05482 -0.941634,-0.7659 0.508689,-1.16223 1.498466,-1.86126 -0.148981,2.08898 0.10663,2.72741 0.428722,0.19984 -0.370484,-2.43449 -3.733533,1.30483 -4.452097,1.79658 -1.414261,-0.30788 -5.62047,-0.48617 -2.201336,-2.35992 -1.344538,1.08913 -3.496216,1.9713 -0.721997,0.2251 1.126385,-0.57155 2.08297,-2.02969 1.511864,-0.4809 2.683606,-0.6803 0.576274,-0.69487 2.049421,-1.32278 1.618312,1.76616 5.440936,-0.66228 8.050925,-0.10929 0.668136,1.76128 -0.471627,6.21888 1.01384,2.24008 1.18976,-3.59141 -1.605889,3.41963 -0.2274,-0.90658 1.38801,-1.70354 3.57972,-1.11852 5.33632,-1.01623 2.19058,0.0435 6.30301,0.23137 6.31859,3.93825 -0.59714,4.02503 6.39997,3.95052 3.35165,7.36373 0.77296,2.5031 4.7719,8.81798 -0.86291,6.67978 -2.93347,-2.41896 -1.71124,-6.69971 -4.49108,-9.16771 -1.59892,-1.84348 1.90683,2.5401 1.66096,3.739 0.32471,3.19512 2.75477,5.68804 3.23189,8.64482 0.40331,1.59116 0.2006,6.58373 1.31009,2.53022 1.01426,-1.64633 1.32447,-4.64201 1.96828,-1.21292 2.36991,3.04032 5.01655,6.04851 6.10178,9.80805 -1.00883,2.59751 2.25768,2.93203 2.83645,2.33273 -1.87644,-0.0282 -1.32845,-4.13201 -1.81746,-6.26894 -2.00256,-2.52509 -5.95859,-4.21669 -5.69979,-7.94826 -0.17748,-2.56542 -1.29846,-4.8631 -1.0809,-7.22059 0.37708,-2.65451 1.4339,-3.10961 2.72876,-5.46186 1.21725,-1.61763 -0.97342,-6.99074 0.1252,-6.76729 0.29592,-1.26799 0.61225,-5.37055 -0.32431,-7.59515 0.25082,-1.76013 -1.02701,-5.8603 -0.60436,-1.84704 0.53332,3.33486 0.28754,6.64874 -0.98626,9.42017 0.23054,2.20578 1.5151,3.05311 -0.31327,5.60417 -1.8231,2.0962 -3.9258,1.52305 -5.50303,-0.81121 -1.39548,-3.18105 -2.14437,-6.59967 -3.38537,-9.86252 -1.7751,-3.41455 0.60604,-8.48874 4.58333,-5.67178 3.03295,2.2453 -3.48218,0.60253 -0.0571,0.75055 1.30321,-0.22255 -4.13768,-1.86359 -1.51878,0.85048 0.27994,0.29707 2.3974,-0.67587 2.01901,0.28597 3.75355,0.40219 -1.49839,-4.63729 -3.64728,-3.06601 -1.70228,-1.3578 -0.99612,-8.11381 2.71251,-8.68543 1.85312,-1.16188 5.00529,1.49818 3.70774,0.2126 -1.05523,-1.37815 -2.84501,-3.34409 -3.06074,-5.7585 -0.46006,1.86951 1.55046,5.69258 -1.39349,3.8833 -2.3614,1.04689 0.97033,-2.38897 0.61688,-3.51326 0.56793,-2.0527 4.89284,-4.27785 5.37927,-3.75826 -1.26419,1.85897 -0.92327,3.42162 -1.62383,5.37819 -0.0535,1.40791 1.05182,5.52249 0.71333,1.88354 0.36001,1.11691 0.45016,2.11864 0.72698,0.80345 1.08062,1.65975 0.76857,4.02964 -0.11204,1.06769 0.59546,2.48015 1.72539,6.62318 -0.13383,9.5249 0.0775,-3.62292 -3.95882,-4.67642 -6.65473,-5.88011 0.63316,2.30898 6.62252,4.52707 5.78192,7.64365 -0.89614,1.83631 -2.28934,5.03206 -0.56943,2.75284 -0.35644,-0.53878 1.20236,-3.19363 1.77113,-4.65438 1.30147,-1.25932 0.60695,-6.8903 1.32169,-5.92231 1.58555,2.68565 3.24382,1.19177 5.17843,2.70758 -1.67838,-0.17145 4.21026,2.13375 4.18667,4.22412 0.0672,2.91363 0.83691,1.9142 2.6438,3.9146 1.01381,1.12505 3.77975,2.34084 1.68276,1.94997 2.7698,1.43993 2.38306,5.38484 4.54445,7.54312 1.20471,1.5989 -1.51268,-2.93755 -1.38474,-4.09626 -1.23513,-3.55467 -3.78542,-6.05065 -6.5595,-8.06717 -1.01904,-3.84008 -4.49644,-6.23072 -7.63442,-8.26723 -1.9345,-2.453 -4.03051,-5.36539 -4.77049,-8.41902 1.61523,-2.39017 1.90197,-5.22803 2.89149,-6.21447 0.53276,-1.77 -5.44066,3.94776 -2.15624,0.54885 -1.63338,-0.33889 -4.43051,1.14052 -5.64896,2.73433 0.0445,-1.11473 1.65127,-1.78336 2.36072,-2.06455 0.45803,-0.57363 1.13656,-0.87668 1.74079,-1.20651 1.82379,-0.52325 2.9155,-0.55162 3.68739,-1.08485 1.65501,-0.1452 3.92261,0.29448 4.94361,-0.59553 -3.0429,0.70689 -1.66401,3.08592 0.52806,0.72284 3.46344,-1.76782 5.14662,4.02376 8.27216,5.03084 -1.47953,-0.0376 -4.39132,0.89827 -1.23923,0.38204 3.70063,-0.59853 7.15815,1.95266 8.42206,5.34282 1.09947,1.26744 3.52723,2.71511 1.18128,0.53998 -2.32325,-2.53602 1.45816,0.55881 1.31378,1.44007 0.36073,1.40689 3.93439,2.1767 2.01125,3.69145 0.65674,3.02457 0.88985,4.60199 0.83551,7.9185 0.005,11.1004 -0.35845,20.86233 0.4233,30.96673 -0.0605,3.78193 -0.084,7.56432 -0.0845,11.3467 -2.45251,0.40887 -5.10915,0.22776 -7.65128,0.15812 z m -66.174056,-0.29464 c -1.747133,-0.21539 -3.257573,0.15626 -0.605991,0.0752 l 0.605991,-0.0751 z m 66.724386,-0.0197 c 0.12542,-1.67511 -1.43854,0.7178 0,0 z M 90.508665,181.5196 c 0.731641,-0.28787 -4.396501,0.10884 -0.664898,0.0135 z m 6.096,0.006 c -0.894037,-0.63907 -1.861968,0.36304 0,0 z m -24.303616,-1.3761 c -0.928561,-1.44301 -4.237426,-5.77364 -1.653821,-1.70168 0.287926,0.42745 1.797912,1.94139 1.653821,1.70168 z m 16.808663,-0.32092 c -0.134166,-1.56273 -2.193483,-3.13461 -0.370404,-0.50264 0.03351,0.16228 0.434955,1.59246 0.370404,0.50264 z m -6.910406,-2.17863 c -1.408552,-2.2501 -0.215895,0.82914 0,0 z m 5.204011,-0.47051 c -0.398352,-0.92261 -1.220608,-0.79285 0,0 z m 45.653703,-4.66329 c -0.94701,-2.08475 0.46359,2.05521 0,0 z m -1.10402,-2.87582 c -0.6272,-1.57446 -1.1755,-0.76248 0,0 z m -0.5466,-1.55583 c -0.68463,-2.73529 -2.34396,-5.14136 -2.04826,-7.48221 -0.17157,-2.01568 -0.66379,-5.27079 -0.16565,-6.55129 0.5265,2.28232 -0.53636,-3.70246 -0.31072,0.39572 -0.27051,3.92193 -0.90489,8.49598 1.87336,11.71599 -0.56745,0.45958 1.20704,3.77556 0.65127,1.92179 z m -48.475401,-0.30057 c 1.001228,-1.74015 -1.521696,0.0954 6e-6,7e-5 z m 1.56446,-1.4351 c 1.420889,-2.52288 -0.970026,-5.01819 2.349687,-6.48588 2.013211,-0.7768 -0.890361,-0.11438 -0.771856,-1.86853 -1.614461,0.46208 -3.129112,-0.60262 -3.475553,-0.95929 -1.18037,-1.53392 -0.712663,-5.01662 -0.841821,-1.10427 0.84949,1.53363 -2.979862,3.41621 -3.054946,2.2931 -0.997655,-1.26301 -0.716728,-5.80043 -2.047619,-5.38609 -0.399902,1.65079 0.128267,6.62299 -0.08113,2.33066 1.447749,-1.12592 1.073415,3.19205 1.407081,4.26344 0.938685,0.86598 2.36836,-0.97268 3.232488,0.96354 -0.01529,1.93918 2.336335,-0.50077 3.870611,0.33438 0.39097,-0.26049 -1.606843,1.14334 -0.115685,3.06197 -0.05161,0.46265 -1.158892,2.9584 -0.47126,2.55697 z m 43.294281,-0.46567 c -1.18157,-2.30319 1.19254,1.2581 -0.15987,-1.56793 -0.94294,-1.3885 -2.0078,-7.03968 -1.52253,-2.22248 0.11741,1.35757 0.81999,3.22594 1.6824,3.79041 z m -61.098207,-3.212 c 0.892796,-1.22952 -1.21712,0.69728 0,0 z m 14.413371,-0.344 c 1.28995,-1.42674 -1.542651,0.80658 -3e-6,1.7e-4 z m 60.449706,-2.38524 c -0.37999,-3.01515 -1.25787,-6.19541 -3.80454,-8.11788 1.37553,2.56226 3.48179,6.16485 3.80454,8.11788 z m -22.89428,0.20599 c 0.83003,-2.16421 -0.32749,-1.09097 -0.0797,0.29542 z m 22.23216,-0.14908 c -0.19766,-1.12001 -1.58833,-5.82746 -0.77143,-2.05123 0.0663,0.091 0.87344,3.10386 0.77143,2.05123 z M 77.125987,158.0242 c -0.485941,-2.5328 -0.130035,2.67121 0,0 z m 42.510833,-0.21441 c 1.1376,-2.75453 -1.10547,0.96206 0,0 z m -33.827155,-0.24295 c -1.748183,-1.52094 -1.094173,-4.63878 -3.439343,-5.75951 0.7834,1.42578 -0.324864,0.87566 0.585661,3.06802 -0.18783,1.47304 1.790699,2.40622 2.853682,2.69149 z m -2.635249,-3.21951 c -1.01174,-2.43045 0.332211,-0.64094 0,0 z m -5.887508,2.05317 c -0.133493,-2.8577 -0.837073,0.81697 0,0 z m 9.59027,0.0278 c 1.95328,-2.10032 -0.896749,0.78308 -1.214238,-1.86922 -0.723689,-2.09583 -2.642648,-2.14947 -0.574411,-0.39308 0.426152,0.74599 0.91261,2.09848 1.788649,2.2623 z M 128.651,152.6702 c -0.6072,-2.02412 -0.96468,-0.38853 0,0 z m 0.25406,-0.39693 c -1.22714,-2.81008 -3.04667,-5.50989 -3.11598,-8.48662 -0.1223,1.62099 0.19428,4.98836 -0.38913,1.25571 -0.86862,1.12817 1.45361,4.1666 2.34443,5.52879 -0.035,0.24713 1.31393,2.45224 1.16068,1.70212 z m -3.28486,-0.44475 c -0.78825,-2.22825 -2.05565,-2.99637 -0.39482,-0.35869 0.0763,-0.28395 0.53325,1.11361 0.39482,0.35869 z m -9.44165,-0.73553 c -1.47383,-0.97087 -1.93412,0.45173 0,0 z m 1.97588,-0.77282 c -0.0919,-2.36381 -2.19162,-2.40518 -4.45102,-1.95456 1.50506,0.0998 6.64953,2.35327 2.50436,1.53456 -0.74489,-0.79352 -2.08899,0.17418 -0.52854,-0.10361 0.64796,0.42411 1.52825,0.76406 2.4752,0.52361 z m 9.93694,-3.10599 c -0.24545,-1.84344 -1.84486,-3.15063 -1.16296,-0.36803 1.13772,-0.0758 0.48833,-1.45314 1.0352,0.83153 l 0.15452,0.15044 -0.0268,-0.61384 z m -4.52341,0.19619 c -0.76289,-1.76288 2.63842,-7.94701 0.0567,-3.30197 -0.28791,0.81274 -0.67241,3.13135 -0.0567,3.30197 z m -6.80778,-0.98628 c -0.35868,-0.60054 -2.20089,-3.24483 -0.73634,-0.59832 -0.0792,0.16351 1.18506,1.18054 0.73634,0.59832 z m 0.46128,-0.67075 c 2.68431,-0.98096 -1.91236,0.16411 0,0 z m 17.85683,-0.62964 c -1.7756,-2.13272 -0.80726,-0.67185 0,0 z m -18.32398,-0.15314 c 0.21206,-1.13993 -1.1013,0.54818 0,0 z m 0.59138,-1.46425 c 0.45939,-1.65143 -0.7747,0.76269 0,0 z m 0.50411,-1.19459 c 0.83841,-1.17747 1.55013,0.96541 1.10605,-1.45719 0.62092,-1.08213 -0.89275,0.8149 -0.32348,-0.68151 0.49746,0.24099 -2.05498,2.97048 -0.78257,2.1387 z m 10.55355,-4.07428 c -0.51585,-1.51871 -1.34155,-0.64474 0,0 z m 0.50987,-0.60748 c -0.30614,-1.13508 -2.46554,-1.63758 -0.27093,-0.29597 -0.7256,-0.17399 0.26496,1.01691 0.27093,0.29597 z m -5.99644,-0.14199 c 0.47511,-1.59977 -2.3137,-5.92669 -0.84389,-2.13068 0.52631,0.27955 0.0488,2.7751 0.84389,2.13068 z m 16.87291,-0.95636 c -1.87293,-3.28351 1.41886,3.12027 0,0 z m -15.90658,-0.97794 c -0.60941,-1.73901 -3.14101,-3.44569 -1.19836,-1.12345 0.48376,0.35811 0.86221,1.33546 1.19836,1.12345 z m -3.1574,-2.30945 c -0.54254,-2.84744 -0.0679,1.64253 0,0 z m 17.71801,-0.99483 c 1.66775,0.92664 -2.59872,-3.01026 -0.29795,-0.0228 0.0354,0.63622 0.28196,0.17383 0.29795,0.0228 z m -1.54839,-0.66405 c -1.80192,-3.05944 -0.93042,-0.26834 0,0 z m -0.709,-0.0101 c -1.34556,-1.0622 -3.41655,-3.48038 -1.16734,-0.69907 0.36223,-0.27096 0.74969,1.05469 1.16734,0.69907 z m 8.5454,-1.6613 c -1.67717,-0.5868 -3.31664,-4.97819 -1.77633,-1.20576 -0.21082,0.67541 1.78202,1.47701 1.77633,1.20576 z m -27.1805,-4.05685 c -0.65551,-1.93681 -1.47253,-0.83609 -0.0682,0.71964 l 0.0682,-0.71966 z m 6.23827,-2.95667 c -1.10952,-1.49492 -1.91634,-1.4501 -0.30154,-0.042 0.0646,0.66789 0.47148,0.9437 0.30154,0.042 z m -6.11162,-2.21544 c 0.25774,-1.71536 -0.77601,1.52483 0,0 z m 7.06485,60.85748 c -0.61749,-1.78301 0.83485,-0.40797 0,5e-5 z m -0.38699,-1.51923 c -0.94481,-2.89352 0.23129,-1.58126 -1.6e-4,0 z m -0.78179,-2.13848 c -0.0494,-2.83905 -1.10825,-1.92069 -2.1252,-3.77458 0.96358,0.49644 2.92009,2.94696 2.17682,3.94826 z M 91.228332,150.22173 c 1.496973,-1.41159 2.226997,-0.99415 0,0 z M 109.601,146.93295 c 0.48574,-1.50283 -0.7146,-3.00675 -0.81913,-4.60832 -0.16433,-1.99626 0.85116,-5.54094 1.24365,-6.48428 -1.16899,3.71952 -1.39037,7.46541 0.25277,11.09952 l -0.33867,0.0414 -0.33867,-0.0484 z m -1.53386,-0.0744 c -2.46844,-0.16643 -2.56206,-1.05331 -0.40608,-0.31831 1.07685,-0.27398 2.31059,0.40739 0.40608,0.31831 z m -16.257012,-0.15426 c 1.935947,-0.37665 2.241308,0.32916 0,0 z m 1.958204,-0.0617 c -0.05517,-0.61486 0.90054,-0.13417 2.607047,-0.51557 1.243747,-0.63177 4.856481,-1.16377 1.399799,-0.25723 -1.220996,0.4213 -2.789968,0.9456 -4.006846,0.7728 z m 10.159998,-0.35011 c -4.217331,-1.33732 4.53328,0.27772 0.21167,0.12461 l -0.21167,-0.12462 z m -2.46655,-0.62355 c -1.36133,-0.70104 -2.47848,-0.84198 -0.21839,-0.57431 0.67569,0.0207 1.01249,1.32409 0.21839,0.57431 z m 8.31524,-10.4775 c -0.81906,-1.91836 -0.37951,-2.7118 0.33196,-5.10118 0.78042,-1.53246 1.34651,-5.17271 0.92282,-1.50458 -1.25615,1.90817 -1.45046,4.69963 -1.25478,6.60576 z m 16.77604,-0.92572 c -1.1538,-1.37766 -2.13629,-3.02654 -0.23773,-0.51329 0.0525,0.0266 1.207,1.25657 0.23773,0.51329 z m -6.31559,-6.43548 c -1.37729,-1.63957 0.14523,-0.81305 0.20386,0.294 l -0.20387,-0.29402 z m -9.32801,-2.05797 c 0.31974,-2.57404 0.43686,0.21457 0,0 z m 31.29064,-0.75754 c -1.13018,-1.11304 -2.9614,-3.63549 -1.05417,-1.85417 0.29257,0.38187 1.7655,2.23058 1.05372,1.85491 z m -30.86471,-0.64153 c 0.0453,-1.21416 1.35006,-1.4055 0,0 z m 0.5956,-1.2891 c 0.49662,-1.84457 0.36688,0.78396 0,0 z m 0.71801,-0.59845 c 0.22589,-1.9101 2.64642,-5.48243 0.67925,-1.61293 -0.10735,0.044 -0.28391,2.17347 -0.67925,1.61293 z m 26.83933,-0.40457 c -3.35141,-3.05161 2.29746,1.19029 0,0 z m -27.12762,0.19054 c -0.11523,-1.68981 0.94078,-1.22241 0,0 z m 0.37296,-1.24068 c 0.30414,-1.62863 1.02428,-1.46205 0,0 z m 25.3754,-0.078 c -2.46819,-0.53508 1.11143,-0.21761 0,0 z m -24.1054,-0.0286 c 1.13314,-1.35225 2.48212,-1.37427 0.25148,-0.10213 l -0.18178,0.15753 z m 22.11463,-0.38851 c -1.151,-0.81586 -4.38106,-3.51505 -1.70147,-1.72742 0.54895,0.82462 2.56898,1.75186 2.28041,1.83032 l -0.57899,-0.10294 z m -17.59933,-0.16794 c 0.81083,-1.58603 2.61647,-3.66183 0.78662,-0.75508 0.46031,-0.0271 -1.00973,1.1567 -0.78662,0.75508 z m -3.07597,-1.53559 c 1.05741,-1.07559 2.68939,-0.76578 0,0 z m 17.12924,-0.88744 c -0.4478,-1.67444 -4.53354,-4.24792 -1.23578,-2.17451 0.19935,0.32378 2.12905,2.8774 1.23578,2.17451 z"
         sodipodi:nodetypes="ccccccccccccccccccccccccccccccccccccccccccccccccccccccccccccccccccccccccccccccccccccccccccccccccccccccccccccccccccccccccccccccccccccccccscccccccccccssccccccccccccccccccccccccccccccccccccccccccccccccccccccccccccccccccccccccccccccccccccccccccccccccccccccccccccccscsccccccccccccccccccccccccccccccccccccccccccccccccccccccccccccccccccccccccccccccccc" />
      <path
         id="path1360"
         style="fill:#6e6e6e;fill-opacity:1;stroke-width:0.0846667"
         d="m 140.97,182.20438 c -4.78258,-0.61687 -4.16297,-6.65655 -6.46138,-10.15017 -3.01481,-4.52012 -5.21765,-9.9124 -4.79025,-15.44552 -0.24221,-4.78255 -1.29846,-9.61323 -3.71346,-13.78978 -0.60733,-1.87562 -2.51414,-8.95177 0.62122,-4.70848 3.87175,2.87441 8.17473,5.56913 9.96518,10.32423 0.75372,1.66062 3.01397,5.45972 3.51263,5.40688 -2.3217,-4.23577 -2.95598,-9.57658 -6.87851,-12.79532 -2.58877,-4.0827 -5.29923,-8.27351 -9.85,-10.31455 -2.37072,-1.74962 -4.38357,-5.72375 -1.99614,-6.40137 -0.44828,-1.54648 -1.56081,-5.53989 0.28886,-2.05295 2.04975,1.55352 -0.0329,-1.54987 1.38458,1.20832 2.72055,4.37882 8.43823,5.36003 11.1049,9.71821 3.91005,1.95218 5.76899,5.32237 7.50346,9.00548 2.51265,1.19442 -0.69019,-3.72599 -1.06412,-4.78134 -0.459,-2.54334 -5.36368,-5.86078 -3.96819,-7.58712 1.025,1.25326 4.36105,2.77223 1.40845,0.75342 -3.35193,-3.74116 -9.70229,-1.03978 -12.71283,-5.25841 -3.94193,-2.56662 -5.86735,-10.33206 0.91388,-9.84118 5.68962,-1.53612 5.6092,6.62467 11.10344,6.22253 4.11876,0.55961 4.58297,5.23495 7.60211,7.34787 2.99534,4.36778 -4.79491,-5.11998 -2.22793,-0.69421 7.6299,6.52327 4.36169,31.8087 5.14659,44.46912 0.0565,3.62944 1.31636,11.39526 -4.59584,9.08906 -0.77142,-0.0623 -1.57102,-0.0213 -2.29665,0.27528 z m 0.78905,-0.69708 c -0.80803,-1.32997 -1.0536,1.09231 0,0 z M 132.519,165.12027 c -1.56848,-2.19821 -1.9418,-1.79492 0,0 z m 2.62827,0.003 c -0.54957,-1.61459 -0.88529,-0.57966 -0.0696,0.19672 z m 6.49879,-1.6155 c 0.0324,-1.851 -0.61832,-1.31904 0,0 z m 2.39639,-1.01862 c -0.56811,-1.71865 -2.77837,-2.2372 -0.78123,-0.35503 -0.19003,-0.17389 1.48067,1.40091 0.78123,0.35503 z m -2.35278,-0.63445 c -0.34679,-1.2918 -2.14824,-6.17181 -1.15031,-2.22629 0.24778,0.79917 0.56729,1.60676 1.15031,2.22629 z m 0.30746,-0.41114 c -0.0966,-3.05879 -2.41553,-9.26266 -3.9562,-9.21118 1.50606,2.98618 2.7003,6.1153 3.9562,9.21118 z m 1.52261,-2.98654 c -0.28541,-2.04788 -2.06865,-1.33021 0,0 z m 1.72508,-1.71748 c -0.38525,-1.65836 -0.70843,0.36805 0,0 z m -1.09982,-1.9685 c 0.90594,-0.74655 -1.03875,-2.6383 0,0 z m 2.93978,-7.03765 c -55.63852,-22.51471 -27.81926,-11.25735 0,0 z m -11.59876,-1.00459 c -1.50817,-2.5458 -1.44998,-1.05682 0,0 z m -9.18705,-6.66856 c 0.68083,-1.4789 -1.4575,-1.19121 0,0 z m 0.98656,-8.54377 c -0.0913,-2.3446 -4.29107,-4.52951 -5.0053,-4.54109 0.56765,2.33141 2.73133,4.03173 5.0053,4.54109 z m 2.32972,-0.52153 c -0.84895,-1.34806 -1.95368,-0.47494 0,0 z m -0.24458,-1.21463 c -1.04779,-1.32246 -1.86876,-0.0997 0,0 z m -1.82034,-0.40349 c -0.66574,-1.09501 -1.05056,0.33905 0,0 z m 0.0673,-2.386 c -0.69299,-1.14407 -1.51009,0.32328 0,0 z m 1.79537,-10.82166 c -0.45092,-1.47625 -1.85836,-0.39642 0,0 z m -51.177385,65.87002 c 1.930873,-0.30292 1.343973,0.30517 0,0 z m 45.547885,0.009 c -11.4367,-0.44821 -22.88427,-0.0993 -34.324601,-0.33187 1.490512,-0.54408 8.431366,0.37858 4.0708,-1.67892 -3.51242,-3.73692 -7.569065,-7.80162 -8.473361,-13.03117 -1.146595,-3.54406 2.196886,-8.32115 3.749509,-9.25031 2.71403,3.37379 -0.322429,-2.76866 -0.58715,-4.28708 0.515199,-3.51334 5.102925,4.17596 4.974965,-1.14331 -0.07236,-2.48422 1.129669,-2.77233 1.712053,-2.01706 0.818683,-3.28258 -2.679153,-1.67066 -3.478568,-0.0373 -2.372995,1.30886 -5.778301,-1.83779 -1.550488,-2.25587 3.520686,-2.10045 9.311506,-0.416 9.964834,2.06375 2.771327,-2.0239 8.298377,-4.3175 10.743337,-1.00548 1.82354,4.21499 4.88577,6.87684 5.30072,11.34621 1.75769,2.08714 0.58164,6.77234 -2.33958,3.70263 -1.95482,-2.04954 -2.1516,-7.7981 -3.98638,-8.28209 1.86733,4.01336 2.77067,8.36307 4.36482,12.48628 1.17443,2.86855 0.57396,5.98295 1.01593,8.94047 -0.7294,-2.46165 0.84475,-10.40088 4.02582,-6.51939 2.77025,3.34535 4.1134,7.88717 6.44669,11.19767 3.06351,0.34418 3.98211,-4.53703 1.27502,-4.76582 -1.13001,-3.27981 -5.945,-4.09239 -5.98671,-7.92419 1.03045,1.02337 4.64594,4.33279 2.819,0.6908 4.1428,-1.58318 3.41544,6.78475 6.33466,5.27664 1.00386,-3.0081 -3.87423,-7.68673 -1.70156,-9.16361 4.10846,2.49174 4.375,7.81511 7.02979,11.42858 2.54153,2.62535 0.43466,5.83347 -2.97991,4.61913 -2.80601,-0.0725 -5.6132,-0.0243 -8.41964,-0.0587 z m 11.89483,-0.13574 c -0.48264,-2.81138 -5.63486,-0.68721 -2.27909,0.16211 0.76214,0.0499 1.53241,0.001 2.27909,-0.16211 z m -2.71307,-6.54664 c -0.29851,-2.85909 -1.42473,-1.77702 0,0 z m -1.77426,-4.7131 c -1.42175,-2.60663 -2.67675,-1.47459 0,0 z m -1.10067,-2.10405 c -0.53405,-1.74193 -0.95476,-0.11512 0,0 z M 87.333665,166.624 c -0.767193,-2.01943 -3.629812,0.34383 0,0 z m 1.077954,-0.41895 c 2.222717,-1.20645 -1.86275,0.61571 0,0 z m -0.02159,-0.73206 c 3.617692,0.99793 -0.0057,-5.0645 0.618132,-1.71678 0.817952,0.47813 -1.854645,2.55473 -0.618132,1.71678 z m 1.696906,-3.39983 c -0.485082,-2.17709 -1.544774,0.55292 0,0 z m 19.090735,-5.7785 c -0.67239,-2.62773 -2.61654,-1.99369 0,0 z m -45.5317,24.384 c 0.587221,-4.9767 -0.661691,-10.01044 0.124508,-14.9621 1.034689,-2.32014 4.100111,1.85054 2.515868,-1.28002 -3.29314,-1.29809 3.564077,-0.24426 0.654139,-2.49217 -1.051102,-0.48081 -4.181223,1.65681 -1.694393,-0.5856 3.337592,-2.08599 6.579499,-4.55391 8.332513,-8.19363 1.369548,-1.58029 2.36713,-6.76307 3.835996,-6.32097 -0.283481,2.26543 0.619036,2.37168 1.984449,1.03377 1.805511,0.31166 0.65604,1.17786 0.923726,1.20334 2.031814,2.19735 2.346545,10.52077 -1.77883,8.33041 -0.220217,-1.8385 -1.805815,-6.4726 -2.905807,-2.38403 -1.629768,2.66034 -2.778,10.4759 2.336545,7.36807 4.492099,0.0516 0.300134,6.0738 4.458335,7.53628 2.919596,1.72881 4.140463,7.32052 1.739453,9.25023 -1.415093,-1.377 -4.887298,-5.90187 -6.436425,-3.76416 0.541167,2.19896 8.325488,4.67881 4.13143,6.15245 -4.358471,0.19724 -8.817496,0.50484 -13.077081,-0.66024 0.359632,1.53646 -5.619878,2.13249 -5.144426,-0.23163 z m 3.193381,1.11266 c -1.565541,-0.64777 -2.359128,0.65517 0,0 z m 16.938318,-0.77399 c -0.218072,-1.5618 -1.833303,-0.16018 0,0 z m -11.583586,-0.2505 c -0.288108,-2.15171 -3.086562,-6.14822 -4.155157,-5.19938 2.083678,1.10542 2.168874,3.98661 4.155157,5.19938 z m 4.471586,-7.21595 c -0.367513,-1.59163 -3.010461,-3.8562 -1.740591,-0.81006 0.33479,0.5583 1.043976,1.1877 1.740591,0.81006 z m -2.585386,-1.0622 c -1.35723,-1.60608 -1.206694,0.53843 0,0 z m -6.463772,-0.0862 c 0.812901,-2.44596 -1.613529,-2.1381 0,0 z m 4.369495,-0.36757 c 3.818391,-1.11392 -1.865713,-4.00589 0,0 z m 6.1177,-0.57282 c -0.332916,-2.19973 -0.510473,1.42797 0,0 z m 0.678629,-0.86298 c 0.533711,-1.45877 -0.974049,-0.47312 0,0 z m -13.679949,-2.08429 c 1.839832,-0.55587 -0.47892,-1.78885 0,0 z m 3.315725,-2.62939 c -0.08122,-1.84816 -0.854566,0.24927 0,0 z m 0.148611,-1.36884 c -0.805431,-1.33405 -0.690639,0.8115 0,0 z m -0.475847,-3.56938 c 2.040386,-0.97465 -0.884042,-0.14609 0,0 z m 1.126259,-0.48273 c 1.554775,-1.87738 -1.292939,0.54107 0,0 z m 0.737753,-0.381 c 1.00566,-1.02732 -0.701843,-0.74898 0,0 z m 4.545563,-4.25689 c 1.479931,-2.02847 -1.623711,-0.58584 0.06942,-1.22654 -0.13935,0.3401 -0.629232,1.06182 -0.06942,1.22654 z m 2.029416,-5.05645 c 1.546282,-2.22608 -1.31824,0.97251 0,0 z m 49.919804,28.70814 c -1.91879,-1.89806 1.28117,-2.01394 0,0 z m -38.141653,-1.93099 c -1.368771,-1.63535 0.896407,-1.61027 0,0 z M 135.6804,177.2803 c -1.16215,-0.50035 0.0326,-1.59008 0,0 z m -6.60607,-3.35806 c -1.31176,-0.30516 -0.18312,-1.52674 0,0 z m -7.14565,-3.97347 c -1.93301,-0.58249 0.31094,-1.34379 0,0 z m -2.23634,-1.37979 c -1.04149,-1.63273 -0.22432,-4.41299 -0.0384,-1.13484 0.0256,0.37779 0.0272,0.75648 0.0384,1.13484 z m 11.29748,0.0235 c -0.69339,-1.60085 -1.06433,-4.11092 -0.1595,-1.13162 0.14551,0.30574 0.60633,0.84861 0.1595,1.13162 z m -8.4943,-1.43934 c -0.68474,-1.11457 -0.26051,-2.15695 0,0 z m 5.69521,-1.60866 c -0.14265,-0.0722 -0.82915,-1.89499 -0.20661,-0.69251 z m -7.44101,-1.01281 c -0.93189,-1.53822 1.42897,-4.17557 0.62024,-1.19311 l -0.27869,0.61261 z m -0.91035,-0.0879 c -0.62104,-0.71569 0.25037,-2.72726 0.14399,-0.80667 z m 7.10892,-1.82033 c -1.23505,-2.02624 0.98563,-2.31809 0,0 z m -39.445288,-5.93996 c -0.568464,-2.17455 2.08949,-1.02748 0,0 z m 0.818445,-0.52999 c -0.43756,-1.00294 0.92624,-0.27009 0,0 z m 26.401883,-2.08974 c -3.39785,-4.02944 -3.95098,-9.51911 -5.53241,-14.35071 -0.77242,-3.0213 6.1737,-3.46293 4.63952,-2.37231 -3.64078,0.86964 4.3036,3.78537 1.55559,0.0641 -3.12296,-1.5696 -7.24745,-4.11985 -4.02871,-7.96429 2.60559,-4.31766 9.34206,-1.75927 8.56924,3.15936 0.54331,2.79104 -1.72219,4.19782 -2.59291,0.93985 -1.23756,-1.83789 -6.69671,-2.08158 -2.55159,0.17482 4.05621,2.44594 2.5809,7.63228 0.99988,10.66301 1.21746,1.86922 1.88288,4.88183 -1.3336,3.92916 0.97795,0.85865 3.85272,1.89927 0.87505,1.31221 2.0283,1.14754 4.24487,4.4718 0.21625,4.60182 l -0.81631,-0.157 z m 1.55055,-2.93885 c -1.06279,-1.10987 -1.75334,0.53693 0,0 z m 21.95317,0.0782 c -2.00281,-2.05385 1.73312,1.21305 0,0 z m -14.30984,-3.50725 c -1.17536,-1.63123 1.6259,-5.3731 0.33519,-1.60913 -0.25738,0.44805 0.38063,1.47408 -0.33519,1.60913 z m -15.68301,-0.83956 c -3.72714,-0.38876 1.87169,-0.51097 0.0104,-0.002 z m 1.54887,-0.11792 c -0.72853,-1.0238 0.74274,-1.28074 0,0 z m -14.998735,-0.18982 c 1.661155,-0.74665 2.032319,-0.0457 0,0 z m 9.036565,-0.39065 c 1.22877,-0.52713 1.49366,0.88355 0,0 z m 5.69543,-0.87492 c -0.58005,-0.89944 0.43059,-1.37799 0,0 z m -0.30145,-6.51185 c -0.22393,-0.77082 0.74943,-2.36499 0.27411,-0.69623 z m 11.31059,-1.46684 c -0.95836,-1.26257 0.22166,-5.0605 -0.0876,-1.52757 l -0.006,0.76713 z m 6.09929,-0.72888 c -1.07642,-0.4374 -0.19907,-1.76301 0,0 z m 0.2833,-1.3416 c -2.27654,-0.89939 0.77871,-0.16464 0,0 z M 109.61005,134.395 c -0.58009,-2.1431 0.64809,-3.19645 0.0927,-0.48036 0.026,0.0315 0.15805,1.80172 -0.0927,0.48036 z m 27.73222,0.30964 c -2.02899,-0.44247 0.51058,-0.81608 0,0 z m -27.31794,-4.37536 c -0.14627,-1.60014 0.89365,-0.43879 0,0 z m 0.59267,-1.41931 c -0.39683,-1.70553 1.37108,-1.40402 0,0 z m 34.0672,-0.87412 c -1.21203,-0.72986 -0.3177,-1.9129 0,0 z m -32.3205,-2.03402 c -0.66415,-2.68736 3.63156,-1.73749 0.67514,-0.59807 -0.32486,-0.033 -0.7651,0.19996 -0.67514,0.59807 z m 4.44604,-1.93736 c -0.46055,-1.48733 0.79154,-2.06865 0,0 z m 24.98153,0.37856 c -1.14537,-1.00204 -0.34642,-0.8884 0,0 z m -7.73163,-4.03395 c -1.44484,-1.33619 1.54122,-0.0185 0,0 z M 117.475,119.13627 c 1.47103,-1.2726 0.86361,0.1541 0,0 z m 6.51933,-3.05392 c -2.73979,0.28557 1.11961,-0.90471 0,0 z m -3.556,-0.17255 c 1.29178,-1.28744 1.76435,-0.004 0,0 z"
         sodipodi:nodetypes="ccccccccccccccccccccccccccccccccccccccccccccccccccccccccccccccccccccccscccccccccccccccccccccccccsscccccccccccccccccccccccccccccccccccccccccccccccccccccccccccccccccccccccccccccccccccccccccccccccccccccccccccccsccccccccccccsccccccccccccccccccccccccccccccccccccccccccccccccccccccc" />
      <path
         style="fill:#333333;fill-opacity:1;stroke-width:0.0846667"
         d="m 64.579499,181.97016 c -0.577263,-0.0164 -0.9525,-0.0612 -0.9525,-0.1139 0,-0.0478 0.03638,-0.0644 0.08085,-0.0369 0.04447,0.0275 1.188904,0.0501 2.543195,0.0503 1.5614,1.7e-4 2.443861,0.0302 2.411822,0.082 -0.04762,0.0771 -1.74752,0.0848 -4.083365,0.0186 z m 59.147761,0.0219 c -0.0227,-0.0227 -0.87679,-0.0599 -1.89795,-0.0827 -1.02115,-0.0228 -2.27574,-0.0956 -2.78798,-0.16172 -0.66183,-0.0855 -1.38458,-0.10646 -2.49766,-0.0725 -0.86149,0.0263 -1.77589,0.0338 -2.032,0.0166 -0.4519,-0.0303 -0.89394,-0.0274 -2.02707,0.013 -0.35789,0.0128 -0.5568,-0.0147 -0.57856,-0.08 -0.0546,-0.1639 -2.81852,-0.13519 -3.21793,0.0334 -0.26379,0.11136 -0.5205,0.12269 -1.58478,0.07 -0.6985,-0.0346 -1.3462,-0.0661 -1.43933,-0.07 -0.0931,-0.004 -0.21314,-0.0352 -0.26668,-0.0697 -0.0535,-0.0345 -0.1869,-0.0653 -0.29634,-0.0686 -0.10944,-0.003 -0.45616,-0.0176 -0.77048,-0.032 -0.31433,-0.0144 -0.5715,0.007 -0.5715,0.0479 0,0.11724 -0.29024,0.0863 -0.47065,-0.0503 -0.1829,-0.13838 -0.96597,-0.0894 -1.06737,0.0668 -0.0716,0.1103 -3.541981,0.15926 -3.541981,0.05 0,-0.0424 0.04035,-0.077 0.08966,-0.077 0.04931,0 0.06921,-0.0331 0.0442,-0.0736 -0.06461,-0.10454 -0.732795,-0.0533 -0.803833,0.0616 -0.116041,0.18776 -1.095045,0.228 -1.079337,0.0444 0.0075,-0.0877 0.08984,-0.18688 0.182971,-0.22043 0.111194,-0.0401 0.06078,-0.0532 -0.146829,-0.0383 -0.17389,0.0125 -0.327447,-0.0112 -0.341238,-0.0526 -0.01379,-0.0414 -0.205093,-0.0866 -0.425118,-0.1004 -0.220025,-0.0138 -0.504619,-0.0956 -0.63243,-0.18176 -0.127812,-0.0861 -0.308585,-0.19625 -0.401718,-0.24474 -0.09313,-0.0485 -0.173695,-0.1736 -0.179028,-0.27802 -0.01391,-0.27253 -0.263501,-0.51212 -0.63875,-0.61316 -0.178872,-0.0482 -0.325222,-0.14023 -0.325222,-0.20459 0,-0.0644 -0.1143,-0.14211 -0.254,-0.17279 -0.1397,-0.0307 -0.254,-0.0909 -0.254,-0.13373 0,-0.0429 -0.05715,-0.0779 -0.127,-0.0779 -0.06985,0 -0.132529,-0.0476 -0.139286,-0.10583 -0.0068,-0.0582 -0.0236,-0.23919 -0.03743,-0.40217 -0.07722,-0.91016 -0.108653,-1.02349 -0.364805,-1.31523 -0.144548,-0.16463 -0.262815,-0.35049 -0.262815,-0.41302 0,-0.0625 -0.0538,-0.15833 -0.119561,-0.21291 -0.06576,-0.0546 -0.16739,-0.29736 -0.225845,-0.53953 -0.106284,-0.44031 -0.106284,-0.44031 -0.218105,-0.18631 -0.0615,0.1397 -0.09205,0.37485 -0.06789,0.52256 0.05796,0.35437 -0.06948,0.4167 -0.38102,0.18637 -0.194006,-0.14344 -0.232203,-0.21416 -0.161612,-0.29921 0.06916,-0.0833 0.05805,-0.12458 -0.0441,-0.16378 -0.07509,-0.0288 -0.136535,-0.0965 -0.136535,-0.15036 0,-0.0539 -0.1524,-0.16399 -0.338667,-0.24469 -0.186266,-0.0807 -0.338666,-0.19514 -0.338666,-0.25432 0,-0.0592 -0.09525,-0.24777 -0.211667,-0.41909 -0.116417,-0.17132 -0.211667,-0.40652 -0.211667,-0.52266 0,-0.11614 -0.03511,-0.23286 -0.07802,-0.25938 -0.04291,-0.0265 -0.104502,-0.29547 -0.136864,-0.59766 -0.03236,-0.3022 -0.09749,-0.54945 -0.144722,-0.54945 -0.05169,0 -0.06572,0.12423 -0.03525,0.31201 0.05081,0.31309 -0.189143,0.87333 -0.374047,0.87333 -0.04277,0 -0.07776,0.0572 -0.07776,0.127 0,0.26931 -0.143205,0.10763 -0.277991,-0.31385 -0.10238,-0.32015 -0.114696,-0.4571 -0.04498,-0.50018 0.110103,-0.068 -0.04317,-0.51369 -0.246666,-0.71718 -0.172991,-0.173 -0.361694,-0.14715 -0.361694,0.0495 0,0.11482 -0.05644,0.16933 -0.175322,0.16933 -0.160509,0 -0.173536,-0.0437 -0.154192,-0.51774 0.02064,-0.50582 0.01512,-0.52028 -0.23961,-0.62738 -0.18004,-0.0757 -0.277803,-0.18732 -0.315867,-0.36062 -0.06342,-0.28874 -0.324364,-0.56063 -0.660175,-0.68785 -0.255099,-0.0966 -0.273562,-0.19414 -0.143553,-0.758 0.09328,-0.40456 -0.002,-0.63257 -0.228182,-0.54579 -0.271064,0.10402 -0.530818,-0.13986 -0.436658,-0.40996 0.06024,-0.17279 0.05723,-0.31586 -0.01004,-0.47827 -0.05279,-0.12745 -0.08694,-0.44779 -0.07589,-0.71187 0.02348,-0.56121 -0.154049,-0.79265 -0.761903,-0.99326 -0.375777,-0.12401 -0.413844,-0.20593 -0.256344,-0.55161 0.131273,-0.28811 0.585908,-0.29063 1.142762,-0.006 1.210247,0.61788 3.809491,-0.74675 4.430326,-2.32598 0.06407,-0.16298 0.223933,-0.45559 0.355243,-0.65025 0.446662,-0.66214 0.114204,-1.00689 -0.883089,-0.91573 -0.314325,0.0287 -0.5715,0.0194 -0.5715,-0.0208 0,-0.13715 -0.838361,-0.38095 -1.123513,-0.32673 -0.513782,0.0977 -0.532585,0.39594 -0.05211,0.82649 0.225491,0.20207 0.410803,0.4093 0.411804,0.46052 9.99e-4,0.0512 0.117114,0.25229 0.258028,0.44681 0.295149,0.40744 0.203421,0.67624 -0.291431,0.85402 -0.13579,0.0488 -0.350486,0.20473 -0.477101,0.34655 -0.249691,0.27967 -0.113239,0.26139 -1.936581,0.25946 -0.252581,-2.6e-4 -0.528806,0.0367 -0.613833,0.0822 -0.186638,0.0999 -0.226927,-0.46293 -0.05671,-0.7922 0.05384,-0.10415 0.128917,-0.25372 0.166844,-0.33239 0.04414,-0.0916 0.0041,-0.28962 -0.111332,-0.55033 -0.09916,-0.22402 -0.183765,-0.56922 -0.188011,-0.76711 -0.0043,-0.1979 -0.0461,-0.35983 -0.093,-0.35984 -0.04691,-1e-5 -0.191177,-0.17533 -0.320601,-0.3896 -0.258123,-0.42734 -0.267503,-0.40302 0.339452,-0.88042 0.0888,-0.0699 0.266449,-0.26728 0.394764,-0.43873 0.244779,-0.32707 1.448207,-1.24501 2.064513,-1.57475 0.375812,-0.20107 0.528155,-0.095 0.528155,0.36766 0,0.0666 0.08206,0.35826 0.182353,0.64807 0.179372,0.51831 0.20988,0.89774 0.109164,1.35765 -0.06399,0.29222 0.166352,0.41836 0.337223,0.18468 0.102456,-0.14012 0.124615,-0.14198 0.245899,-0.0207 0.07331,0.0733 0.111566,0.15503 0.085,0.18159 -0.02656,0.0266 0.05323,0.0738 0.177308,0.10491 0.12408,0.0311 0.24931,0.0329 0.278287,0.004 0.02898,-0.029 0.125894,0.0136 0.215371,0.0945 0.28986,0.26232 0.408425,-0.029 0.258201,-0.63443 -0.139725,-0.56311 -0.156668,-1.53244 -0.02902,-1.66009 0.175556,-0.17555 0.08758,-0.83446 -0.220384,-1.65062 -0.169358,-0.44883 -0.341123,-0.9494 -0.381699,-1.11238 -0.198117,-0.79578 -0.339376,-1.62036 -0.365101,-2.13122 -0.03452,-0.68557 -0.173004,-1.13263 -0.439965,-1.42035 -0.110282,-0.11886 -0.22171,-0.28278 -0.247617,-0.36427 -0.02591,-0.0815 -0.07988,-0.14816 -0.119939,-0.14816 -0.101365,0 -0.608058,-1.09262 -0.550148,-1.18632 0.02593,-0.042 0.100859,-0.0557 0.166504,-0.0305 0.129565,0.0497 0.129798,-0.48966 4.23e-4,-0.88745 -0.06482,-0.19925 -0.06482,-0.19925 0.242625,0 0.27094,0.1756 0.307573,0.24062 0.308497,0.54759 10e-4,0.33696 0.0141,0.35331 0.400786,0.50099 0.219855,0.084 0.47703,0.22562 0.5715,0.3148 0.480889,0.45397 1.180908,0.91021 1.39653,0.91021 0.32527,0 0.867171,0.86489 1.100758,1.75683 0.164626,0.62863 0.498675,0.21684 0.498675,-0.61472 0,-0.30963 0.04441,-0.50919 0.133047,-0.59782 0.07318,-0.0732 0.133283,-0.25415 0.13357,-0.40217 2.54e-4,-0.14802 0.05744,-0.37825 0.127,-0.51163 0.06956,-0.13338 0.126478,-0.30776 0.126478,-0.3875 0,-0.11295 0.05615,-0.13676 0.254,-0.10772 0.201802,0.0296 0.256577,0.005 0.266536,-0.12049 0.0069,-0.0868 0.0203,-0.21493 0.0298,-0.28478 0.0095,-0.0699 0.0229,-0.17462 0.0298,-0.23283 0.0069,-0.0582 0.08466,-0.10584 0.172811,-0.10584 0.08815,0 0.182205,-0.0572 0.209009,-0.127 0.0268,-0.0699 0.09755,-0.12819 0.157226,-0.12966 0.16868,-0.004 0.368803,-0.33273 0.655657,-1.07656 0.144876,-0.37568 0.319156,-0.70445 0.387289,-0.73059 0.1461,-0.0561 0.1655,-0.3558 0.02851,-0.44047 -0.06593,-0.0407 -0.07782,-0.27519 -0.03852,-0.75952 0.07308,-0.90067 -0.347768,-1.26197 -0.866152,-0.74358 -0.06199,0.062 -0.167147,0.11272 -0.233671,0.11272 -0.06652,0 -0.120953,0.0304 -0.120953,0.0677 0,0.0372 -0.142875,0.11875 -0.3175,0.18119 -0.174625,0.0624 -0.611453,0.27964 -0.970729,0.48267 -0.359276,0.20303 -0.685641,0.36915 -0.725255,0.36915 -0.03961,0 -0.184312,0.12383 -0.321551,0.27517 -0.13724,0.15134 -0.373722,0.36726 -0.525517,0.47982 -0.151794,0.11255 -0.298232,0.29326 -0.325417,0.40158 -0.02718,0.10831 -0.08513,0.17486 -0.128771,0.14789 -0.04364,-0.027 -0.13433,-0.003 -0.201536,0.0524 -0.07743,0.0643 -0.207888,0.0776 -0.356124,0.0364 -0.128663,-0.0358 -0.354935,-0.0719 -0.502827,-0.0803 -0.147892,-0.008 -0.369517,-0.0812 -0.4925,-0.16177 -0.15949,-0.10451 -0.254117,-0.12119 -0.33002,-0.0582 -0.05853,0.0486 -0.141703,0.0573 -0.184833,0.0193 -0.04313,-0.038 -0.30702,-0.11965 -0.58642,-0.18153 -0.2794,-0.0619 -0.5461,-0.14057 -0.592666,-0.17485 -0.04657,-0.0343 -0.179917,-0.0766 -0.296334,-0.0941 -0.205639,-0.0308 -0.203227,-0.0362 0.08467,-0.18908 0.162983,-0.0866 0.577681,-0.44504 0.92155,-0.79662 0.578537,-0.59153 0.64914,-0.63784 0.945634,-0.62035 0.176229,0.0104 0.344806,-0.0206 0.374613,-0.0688 0.02981,-0.0482 0.137673,-0.0894 0.2397,-0.0914 0.102027,-0.002 0.337903,-0.0608 0.52417,-0.13064 0.325965,-0.12216 0.777269,-0.21285 1.862666,-0.3743 0.2794,-0.0416 0.829892,-0.14063 1.223315,-0.22016 0.708914,-0.1433 0.718156,-0.14296 1.032774,0.0381 0.349595,0.2012 0.663726,0.23469 0.811861,0.0866 0.06175,-0.0617 0.582423,-0.10414 1.45534,-0.11848 l 1.35919,-0.0223 0.648135,0.61537 c 0.48433,0.45984 0.691224,0.60409 0.818632,0.57077 0.145491,-0.038 0.162419,-0.0147 0.115421,0.15929 -0.224752,0.83197 -0.408912,2.50543 -0.280586,2.54968 0.03965,0.0137 0.153945,-0.12768 0.254,-0.31411 0.100055,-0.18643 0.266317,-0.45715 0.36947,-0.6016 0.103155,-0.14444 0.234192,-0.437 0.291192,-0.65013 0.0873,-0.32627 0.11924,-0.36616 0.20237,-0.25248 0.11646,0.15927 0.37722,0.0891 0.37722,-0.1015 0,-0.0817 0.0779,-0.12966 0.2107,-0.12966 0.24803,0 0.53626,-0.2187 0.6416,-0.48683 0.0623,-0.15864 0.1392,-0.1905 0.45975,-0.1905 0.27451,0 0.48202,-0.0643 0.72349,-0.22406 0.18621,-0.12323 0.35971,-0.20291 0.38555,-0.17707 0.0258,0.0258 0.16649,0.0127 0.31255,-0.0292 0.41097,-0.11787 0.6931,0.23357 0.7209,0.89801 0.0115,0.27416 0.0598,0.52257 0.10748,0.55201 0.081,0.0501 0.14738,0.81558 0.17151,1.97833 0.0137,0.65949 0.43198,1.40594 0.46625,0.83203 0.005,-0.0809 0.0546,-0.26006 0.11067,-0.39815 0.056,-0.1381 0.0991,-0.34765 0.0957,-0.46567 -0.003,-0.11803 -0.0284,-0.76704 -0.0554,-1.44226 -0.0673,-1.67909 -0.0615,-1.80152 0.0896,-1.91203 0.0724,-0.053 0.13171,-0.1515 0.13171,-0.21895 0,-0.26612 0.20998,-0.39775 0.67733,-0.4246 0.44657,-0.0257 0.46574,-0.0181 0.4673,0.18407 0.002,0.28099 0.28689,0.34535 0.35614,0.0805 0.0494,-0.18906 0.0494,-0.18906 1.65038,-0.1301 2.04973,0.0755 1.93831,0.0172 2.32175,1.2137 0.17056,0.53218 0.39426,1.09161 0.49712,1.24318 0.10422,0.15357 0.25245,0.60541 0.33485,1.02064 0.13962,0.70363 0.51651,1.76397 0.8808,2.47802 0.35228,0.69054 2.37282,2.22289 2.93106,2.22289 0.22279,0 0.55127,0.22751 0.55127,0.38182 0,0.21974 -0.18903,0.53492 -0.34534,0.57579 -0.4284,0.11203 -0.8708,1.58099 -0.60891,2.02186 0.0915,0.15411 0.23522,0.5088 0.31927,0.7882 0.0841,0.2794 0.45031,1.1176 0.81391,1.86267 0.36359,0.74506 0.70412,1.54516 0.75673,1.778 0.0526,0.23283 0.14935,0.64183 0.21499,0.90889 0.27305,1.11088 0.2047,1.20926 -0.74721,1.07563 -0.38488,-0.054 -0.99391,-0.10614 -1.3534,-0.11579 -0.78003,-0.0209 -0.88299,-0.0921 -1.24109,-0.85732 -0.13756,-0.29395 -0.45377,-0.7481 -0.70269,-1.00922 -0.76666,-0.80422 -1.25412,-2.13798 -1.25552,-3.43528 -0.001,-1.00615 -0.65949,-2.55659 -1.31724,-3.10189 -0.2143,-0.17766 -0.49015,-0.49447 -0.61299,-0.70402 -0.32695,-0.55771 -0.60683,-0.96223 -0.70979,-1.02586 -0.0497,-0.0307 -0.19032,-0.23999 -0.31241,-0.46501 -0.16979,-0.31294 -0.32174,-0.45947 -0.64635,-0.62329 -0.2334,-0.1178 -0.5181,-0.28085 -0.63267,-0.36234 -0.59671,-0.42444 -0.81843,0.051 -0.27646,0.59276 0.17463,0.17457 0.392,0.46367 0.48306,0.64244 0.0911,0.17877 0.25556,0.39583 0.36557,0.48237 0.1412,0.11106 0.20947,0.26447 0.23216,0.52163 0.0736,0.83472 0.20891,1.4426 0.38418,1.72619 0.14477,0.23425 0.16763,0.34269 0.10242,0.48583 -0.0502,0.11015 -0.0545,0.26405 -0.0106,0.3826 0.0404,0.10907 0.051,0.23457 0.0236,0.27887 -0.0274,0.0443 -0.0148,0.12651 0.028,0.18268 0.0428,0.0562 0.13077,0.23548 0.19555,0.39846 0.0648,0.16298 0.24262,0.48596 0.39519,0.71774 0.23195,0.35236 0.2774,0.50072 0.2774,0.90555 0,0.98013 0.18187,2.66722 0.3426,3.17808 0.091,0.28914 0.1654,0.58317 0.1654,0.65341 0,0.46 0.38105,1.32627 0.56327,1.28054 0.1036,-0.026 0.21096,-0.0107 0.23859,0.034 0.0276,0.0447 0.10616,0.0598 0.17452,0.0336 0.16489,-0.0633 0.16037,0.11115 -0.005,0.20386 -0.13756,0.077 -0.005,0.90032 0.24007,1.49263 0.12295,0.297 0.76006,0.63666 0.80588,0.42963 0.0151,-0.068 0.0563,-0.1237 0.0918,-0.1237 0.0878,0 0.0361,0.86086 -0.11819,1.96712 -0.18408,1.31978 -0.14044,1.63305 0.13109,0.94103 0.19131,-0.48757 0.75695,-0.67095 0.75695,-0.2454 0,0.22943 0.21968,0.74326 0.47286,1.106 0.54695,0.78365 0.70807,1.45662 0.67327,2.81209 -0.022,0.85686 0.0307,1.15037 0.15247,0.84866 0.0235,-0.0582 0.0457,-0.0201 0.0494,0.0847 0.004,0.1098 -0.0382,0.18153 -0.0992,0.16933 -0.068,-0.0136 -0.11326,0.0999 -0.1266,0.3175 -0.0208,0.33867 -0.0208,0.33867 0.0888,0.0899 0.098,-0.22259 0.12143,-0.0754 0.22218,1.397 0.0619,0.90518 0.13152,1.67843 0.15462,1.71833 0.0792,0.13672 0.18757,-0.15718 0.18887,-0.51204 6.8e-4,-0.19516 0.0394,-0.37839 0.086,-0.40717 0.0529,-0.0327 0.0854,-0.88501 0.0866,-2.26983 0.002,-2.56669 0.17993,-3.84104 0.66554,-4.77453 0.14047,-0.27003 0.45353,-0.89992 0.69568,-1.39976 0.24214,-0.49983 0.46273,-0.93126 0.49019,-0.95871 0.0275,-0.0275 0.11446,-0.24716 0.19333,-0.48821 l 0.14341,-0.43829 0.006,0.52374 c 0.007,0.62046 0.39445,1.21756 2.10234,3.23684 0.45117,0.53342 1.19863,1.61203 1.76509,2.54709 0.268,0.44238 0.68235,1.01388 0.92076,1.27 0.59843,0.64285 0.67761,0.78836 1.09578,2.01364 0.2021,0.59218 0.45233,1.30529 0.55606,1.58469 0.1074,0.2893 0.21876,0.85428 0.25867,1.31233 0.0943,1.08286 0.20401,1.43877 0.44404,1.4413 0.39125,0.004 1.62746,0.10488 1.66113,0.1354 0.0194,0.0176 -0.49812,0.032 -1.15005,0.032 -0.65193,0 -1.20392,-0.0186 -1.22663,-0.0413 z m 3.39974,-0.0402 c 0.20526,-0.0626 5.42539,-0.016 5.49628,0.0491 0.0194,0.0178 -1.25695,0.0286 -2.83634,0.0239 -1.57938,-0.005 -2.77636,-0.0375 -2.65994,-0.073 z m -33.274001,-0.27052 c 0.116416,-0.048 0.497416,-0.0795 0.846666,-0.07 0.34925,0.009 0.739775,0.0146 0.867834,0.0113 0.128058,-0.003 0.232833,0.0307 0.232833,0.0754 0,0.0479 -0.442736,0.0791 -1.0795,0.0759 -0.825288,-0.004 -1.029654,-0.0259 -0.867833,-0.0926 z m -20.56671,-0.0852 c -0.09714,-0.0359 -0.176623,-0.13959 -0.176623,-0.23034 0,-0.0908 -0.03301,-0.1777 -0.07335,-0.19323 -0.105213,-0.0405 0.02807,-0.94446 0.144999,-0.98343 0.17811,-0.0594 0.116093,-0.44179 -0.07165,-0.44179 -0.09313,0 -0.169334,-0.0422 -0.169334,-0.0937 0,-0.0561 0.05955,-0.0692 0.148167,-0.0327 0.469643,0.19334 0.619236,0.0568 0.277059,-0.25284 -0.09209,-0.0833 -0.164777,-0.23212 -0.16152,-0.33062 0.0093,-0.28005 -0.14571,-0.68933 -0.252138,-0.66592 -0.05293,0.0116 -0.09623,-0.0284 -0.09623,-0.089 0,-0.15576 -0.199131,-0.56576 -0.275167,-0.56655 -0.03493,-3.6e-4 -0.0635,-0.15306 -0.0635,-0.33933 0,-0.18626 0.02858,-0.34353 0.0635,-0.34947 0.03493,-0.006 0.157142,-0.0202 0.271595,-0.0316 0.114452,-0.0114 0.223111,-0.0659 0.241463,-0.12091 0.01835,-0.0551 0.07905,-0.14279 0.134889,-0.19494 0.14808,-0.13833 0.06347,-0.58348 -0.107753,-0.56691 -0.297479,0.0288 -0.434361,-0.0113 -0.434361,-0.12712 0,-0.0665 -0.13335,-0.26236 -0.296333,-0.43517 -0.166208,-0.17623 -0.296333,-0.40196 -0.296333,-0.51403 0,-0.22271 -0.07881,-0.2524 -0.249528,-0.094 -0.09332,0.0866 -0.104098,0.0776 -0.05927,-0.0493 0.03014,-0.0853 0.05479,-0.20793 0.05479,-0.27251 0,-0.22605 0.234145,-0.0248 0.429302,0.36902 0.357966,0.72234 0.614864,0.87508 0.857406,0.5098 0.161886,-0.24382 0.321958,-0.13375 0.321958,0.22137 0,0.58835 0.449737,0.67422 0.754903,0.14414 0.05518,-0.0959 0.09563,-0.0961 0.247247,-0.001 0.155914,0.0974 0.222854,0.0908 0.47856,-0.0469 0.285506,-0.15376 0.390153,-0.30277 0.212624,-0.30277 -0.04657,0 -0.08467,-0.0558 -0.08467,-0.12402 0,-0.0682 -0.07478,-0.16405 -0.16618,-0.21296 -0.09768,-0.0523 -0.146298,-0.14076 -0.117942,-0.21465 0.100836,-0.26277 -0.0549,-0.4441 -0.180762,-0.21046 -0.143206,0.26585 -0.272118,-0.0893 -0.174129,-0.47973 0.09754,-0.38864 -0.126419,-0.9786 -0.354909,-0.93492 -0.105276,0.0201 -0.191411,0.0224 -0.191411,0.005 0,-0.0859 0.368154,-0.7999 0.433164,-0.84008 0.175217,-0.10829 0.07885,-0.54002 -0.132375,-0.59304 -0.468687,-0.11763 -0.515462,-0.40425 -0.176088,-1.079 0.28097,-0.55864 0.302336,-0.58144 0.263725,-0.28144 -0.03557,0.27639 -0.01555,0.33335 0.130603,0.37158 0.132918,0.0347 0.146633,0.0623 0.05963,0.11966 -0.09163,0.0605 -0.08657,0.0948 0.02678,0.18195 0.11961,0.0919 0.131398,0.21513 0.08172,0.85408 -0.0633,0.81414 -0.01376,0.89795 0.530856,0.89795 0.120719,0 0.383873,0.1917 0.715246,0.52102 0.288343,0.28656 0.548429,0.49685 0.577971,0.46731 0.07499,-0.075 0.531543,0.54537 0.534417,0.72617 0.0013,0.0815 0.05245,0.14817 0.113674,0.14817 0.06122,0 0.174909,0.13335 0.252631,0.29633 0.07772,0.16299 0.20002,0.29634 0.271776,0.29634 0.07176,0 0.165441,0.092 0.208187,0.20442 0.04275,0.11243 0.156103,0.2293 0.251905,0.2597 0.0958,0.0304 0.174183,0.10614 0.174183,0.1683 0,0.0622 0.118566,0.15434 0.26348,0.20486 0.185564,0.0647 0.248617,0.13058 0.21322,0.22283 -0.06162,0.16056 0.388689,0.80408 0.66435,0.9494 0.109039,0.0575 0.247335,0.21539 0.307323,0.35092 0.0664,0.15 0.235027,0.30197 0.431015,0.38844 0.177069,0.0781 0.321945,0.19644 0.321945,0.26292 0,0.0665 0.0762,0.12087 0.169333,0.12087 0.09313,0 0.169334,0.0335 0.169334,0.0744 0,0.16016 0.494151,0.28566 0.759948,0.193 0.246142,-0.0858 0.254953,-0.0808 0.205576,0.1159 -0.04455,0.17749 0.0074,0.24222 0.380444,0.47411 0.475043,0.29531 0.574163,0.40577 0.182236,0.2031 -0.332279,-0.17182 -0.427538,-0.16288 -0.427538,0.0402 0,0.11358 0.05644,0.16934 0.171429,0.16934 0.106027,0 0.20287,0.0827 0.253842,0.21676 0.04533,0.11922 0.120553,0.19319 0.167169,0.16438 0.04662,-0.0288 0.164751,0.0832 0.262522,0.2489 0.09777,0.16571 0.212057,0.30129 0.253971,0.30129 0.08589,0 0.753734,0.62888 0.753734,0.70976 0,0.092 -0.385903,0.0558 -0.487479,-0.0458 -0.07287,-0.0729 -0.127519,-0.0735 -0.213028,-0.003 -0.07777,0.0645 -0.771236,0.0976 -2.141421,0.10195 -1.114523,0.004 -2.388355,0.0143 -2.830739,0.0237 -0.616249,0.0132 -0.826681,-0.0114 -0.899902,-0.10506 -0.08301,-0.10623 -0.122,-0.10498 -0.296771,0.01 -0.141287,0.0926 -0.260369,0.10995 -0.399885,0.0583 -0.114424,-0.0423 -0.40723,-0.0399 -0.690437,0.006 -0.481842,0.0776 -0.845671,0.046 -0.845671,-0.0735 0,-0.0826 -0.526085,-0.003 -0.654172,0.0992 -0.132115,0.10527 -0.715973,0.13698 -0.947205,0.0514 z m 1.839321,-4.92133 c 0.03062,-0.36607 -0.557007,-0.47424 -0.91431,-0.16831 -0.377506,0.32323 -0.224148,0.49089 0.44437,0.48581 0.443662,-0.003 0.443662,-0.003 0.46994,-0.3175 z m 16.516151,1.59126 c -0.168431,-0.18648 -0.369434,-0.46288 -0.446675,-0.61422 -0.07724,-0.15134 -0.177557,-0.27517 -0.222928,-0.27517 -0.04537,0 -0.08249,-0.0575 -0.08249,-0.12771 0,-0.10653 0.0281,-0.11017 0.169334,-0.022 0.09313,0.0582 0.169333,0.14629 0.169333,0.19584 0,0.0496 0.13335,0.23567 0.296333,0.41361 0.162984,0.17793 0.296334,0.3727 0.296334,0.43282 0,0.0601 0.04381,0.12391 0.09737,0.14176 0.05355,0.0178 0.08213,0.0688 0.0635,0.11327 -0.01863,0.0444 -0.171673,-0.0718 -0.340104,-0.25823 z M 71.56231,174.70042 c -0.03357,-0.0336 -0.162421,-0.0719 -0.286331,-0.0851 -0.307416,-0.0328 -0.429379,-0.23581 -0.162383,-0.27032 0.117518,-0.0152 0.2196,-0.0978 0.246083,-0.19902 0.05558,-0.21254 0.225987,-0.12707 0.225987,0.11334 0,0.14569 0.02109,0.1572 0.127,0.0693 0.102828,-0.0853 0.127,-0.0823 0.127,0.0158 0,0.16899 -0.203347,0.42998 -0.277356,0.35597 z m 13.297743,-1.50259 c -0.118088,-0.14753 -0.159945,-0.15958 -0.22363,-0.0644 -0.05885,0.088 -0.09285,0.0511 -0.136615,-0.14817 -0.03204,-0.1459 -0.09395,-0.26527 -0.137573,-0.26527 -0.04362,0 -0.142121,-0.13172 -0.218892,-0.29271 -0.07677,-0.16099 -0.175066,-0.27078 -0.218435,-0.24397 -0.04337,0.0268 -0.06267,-0.0225 -0.04288,-0.10946 0.03573,-0.15714 -0.290322,-0.68895 -0.501861,-0.81857 -0.06078,-0.0372 -0.110501,-0.11618 -0.110501,-0.17542 0,-0.16677 -0.438585,-0.7154 -0.720401,-0.90115 -0.139296,-0.0918 -0.20292,-0.16719 -0.141385,-0.1675 0.06153,-3.4e-4 0.16819,0.0557 0.237012,0.12458 0.06882,0.0688 0.174605,0.15454 0.235071,0.1905 0.06047,0.0359 0.284972,0.30467 0.498902,0.59716 0.21393,0.29249 0.659456,0.80607 0.990058,1.14129 0.390088,0.39554 0.595443,0.66954 0.584996,0.78054 -0.0089,0.0941 0.01332,0.23936 0.04928,0.32286 0.09595,0.22279 0.02345,0.23782 -0.14315,0.0297 z m 28.587927,-2.29748 c -0.1449,-0.30535 -0.11171,-0.59004 0.062,-0.53213 0.11894,0.0396 0.34148,0.64684 0.27595,0.75289 -0.0891,0.14414 -0.19884,0.0725 -0.33798,-0.22076 z m -42.624314,-0.16062 c 0,-0.075 -0.03453,-0.13638 -0.07672,-0.13638 -0.08867,0 -0.685275,-0.80734 -0.685275,-0.92732 0,-0.0442 0.06668,-0.1191 0.148166,-0.16656 0.147775,-0.0861 0.128296,-0.0986 -0.188939,-0.12162 -0.304566,-0.0221 -0.415598,-0.43305 -0.426468,-1.5785 -0.0073,-0.77172 -0.05084,-1.17749 -0.160672,-1.49832 -0.150629,-0.44 -0.150629,-0.44 0.07251,-0.92738 0.122724,-0.26807 0.242587,-0.62252 0.266363,-0.78768 0.06364,-0.44207 0.100241,-0.51411 0.234942,-0.46242 0.0669,0.0257 0.146793,0.006 0.177535,-0.0438 0.03408,-0.0551 -0.02867,-0.0904 -0.160769,-0.0904 -0.137108,0 -0.216663,-0.0471 -0.216663,-0.12828 0,-0.20859 0.514047,-1.05705 0.640425,-1.05705 0.06394,0 0.09667,-0.0511 0.07273,-0.11344 -0.04954,-0.12911 0.162845,-0.33376 0.373407,-0.35981 0.07761,-0.01 0.264396,-0.0676 0.415087,-0.12888 0.203216,-0.0827 0.298627,-0.0868 0.36939,-0.016 0.133934,0.13393 0.01934,0.27949 -0.22004,0.27949 -0.287943,0 -0.340842,0.14848 -0.117368,0.32944 0.191883,0.15538 0.191883,0.15538 0.0065,0.25462 -0.241585,0.12929 -0.238453,0.28192 0.0051,0.24733 0.137559,-0.0195 0.19808,-0.0932 0.217775,-0.26491 0.03135,-0.27341 0.21292,-0.26597 0.253615,0.0104 0.01625,0.11037 -0.05492,0.25846 -0.179931,0.37437 -0.263125,0.24396 -0.346895,2.31598 -0.101855,2.51935 0.07907,0.0656 0.101332,0.14493 0.05683,0.20248 -0.110633,0.14306 -0.280583,1.5374 -0.217852,1.78734 0.03626,0.14447 0.0098,0.26904 -0.07776,0.36577 -0.208653,0.23056 -0.05159,0.37986 0.358465,0.34076 0.288843,-0.0275 0.34127,-0.0106 0.297595,0.096 -0.128574,0.31387 -0.195982,0.62537 -0.151057,0.69806 0.09785,0.15833 0.08054,0.58278 -0.02743,0.67239 -0.06099,0.0506 -0.110893,0.14272 -0.110893,0.20468 0,0.16671 -0.185581,0.54395 -0.26759,0.54395 -0.03909,0 -0.07108,-0.0549 -0.07108,-0.122 0,-0.22071 -0.192546,-0.24881 -0.352379,-0.0514 -0.119991,0.14818 -0.155621,0.16095 -0.155621,0.0558 z m 7.963111,-12.61183 c -0.106094,-0.33306 -0.245209,-0.66513 -0.309145,-0.73792 -0.103865,-0.11825 -0.135307,-0.35828 -0.115753,-0.88365 0.0086,-0.2311 -0.137189,-0.96288 -0.250217,-1.25594 -0.0509,-0.13196 -0.06834,-0.2791 -0.03875,-0.32696 0.02958,-0.0479 0.01371,-0.1118 -0.03528,-0.14208 -0.04899,-0.0303 -0.168618,-0.35875 -0.265843,-0.72995 -0.119145,-0.45488 -0.24547,-0.7386 -0.387496,-0.87029 -0.586157,-0.54352 -0.706673,-1.39568 -0.40383,-2.85545 0.197104,-0.95008 0.332787,-1.15206 0.542385,-0.8074 0.213621,0.35127 0.275584,0.3324 0.850732,-0.25905 0.611869,-0.6292 0.748402,-0.62291 1.163046,0.0536 0.158741,0.25901 0.355055,0.50648 0.436253,0.54993 0.0812,0.0435 0.233689,0.25678 0.33887,0.47406 0.105179,0.21727 0.303428,0.52282 0.440551,0.67899 0.137123,0.15618 0.228436,0.33837 0.202915,0.40487 -0.02552,0.0665 0.0632,0.24645 0.19715,0.39987 0.242627,0.27789 0.243379,0.2823 0.198704,1.16526 -0.04019,0.79434 -0.02863,0.89818 0.11138,1.00059 0.245461,0.17953 0.207604,1.87586 -0.04756,2.13103 -0.212232,0.21223 -0.258628,0.68885 -0.05022,0.51588 0.06985,-0.058 0.127,-0.15789 0.127,-0.22203 0,-0.0642 0.0381,-0.11664 0.08467,-0.11664 0.04657,0 0.08431,0.18098 0.08387,0.40217 -7.62e-4,0.39616 -0.0066,0.4047 -0.387702,0.5715 -0.212795,0.0931 -0.426649,0.21696 -0.475232,0.27517 -0.04858,0.0582 -0.151022,0.10583 -0.227644,0.10583 -0.07662,0 -0.271981,0.0894 -0.434133,0.19876 -0.162151,0.10931 -0.40912,0.23607 -0.54882,0.28169 -0.1397,0.0456 -0.333424,0.20011 -0.430496,0.34332 -0.176495,0.26038 -0.176495,0.26038 -0.369393,-0.3452 z m 36.111873,-4.07459 c -0.90502,-0.37393 -1.80617,-1.52312 -2.15956,-2.75398 -0.0602,-0.20955 -0.13808,-0.4572 -0.17315,-0.55033 -0.23365,-0.62061 -0.42494,-1.43097 -0.42494,-1.80018 0,-0.23842 -0.0381,-0.45704 -0.0847,-0.48582 -0.0466,-0.0288 -0.0847,-0.12387 -0.0847,-0.21132 0,-0.0874 -0.21309,-0.62812 -0.47353,-1.2015 -0.63201,-1.39143 -0.74623,-1.70205 -1.09392,-2.97481 -0.16311,-0.59709 -0.3676,-1.24479 -0.45442,-1.43933 -0.50554,-1.13285 -0.57631,-2.52848 -0.18498,-3.6478 0.0962,-0.27505 0.17585,-0.61795 0.17707,-0.762 0.008,-0.9421 0.29268,-1.44471 0.85478,-1.50923 1.59921,-0.18356 3.56034,0.25919 3.89029,0.87829 0.0906,0.16997 0.0886,0.18533 -0.0133,0.1032 -0.63767,-0.5141 -2.05611,-0.91482 -2.23182,-0.63051 -0.22158,0.35852 -0.14143,1.32847 0.13465,1.62945 0.52327,0.57047 1.94904,0.7805 2.76989,0.40803 0.203,-0.0921 0.41834,-0.16747 0.47855,-0.16747 0.15222,0 0.31704,0.48413 0.18339,0.53864 -0.0548,0.0224 -0.0616,0.0435 -0.015,0.047 0.60306,0.0454 0.77893,-0.73066 0.31271,-1.37986 -0.14871,-0.20707 -0.27037,-0.41439 -0.27037,-0.46071 0,-0.15209 -0.71477,-0.81519 -1.10218,-1.02251 -0.4648,-0.24873 -0.90381,-0.48832 -1.18039,-0.64419 -0.45116,-0.25426 -1.28702,-0.33053 -1.91804,-0.175 -1.07019,0.26376 -1.0155,0.26575 -1.12233,-0.0407 -0.21392,-0.61366 -0.0198,-1.20856 0.4232,-1.29717 0.20718,-0.0414 0.25385,-0.0872 0.22023,-0.21571 -0.0275,-0.1051 -0.006,-0.14914 0.0598,-0.12381 0.10775,0.0413 0.9013,-0.34818 1.32736,-0.65156 0.13768,-0.098 0.30612,-0.15683 0.37432,-0.13066 0.17153,0.0658 0.378,-0.0258 0.378,-0.16783 0,-0.33929 0.87666,0.29711 1.29541,0.94039 0.50326,0.77313 0.99928,1.32804 1.52661,1.70789 0.2407,0.17339 0.55629,0.41249 0.70131,0.53134 0.14502,0.11886 0.38752,0.31135 0.53889,0.42777 0.94272,0.72504 0.9409,0.84484 -0.0418,2.75167 -0.23997,0.46566 -0.55736,1.16083 -0.7053,1.54481 -0.14794,0.38398 -0.4037,0.97453 -0.56836,1.31233 -1.07807,2.21179 -1.11417,2.4135 -0.56663,3.16652 0.7841,1.07837 1.10079,1.33275 1.56217,1.2548 0.41099,-0.0694 0.48091,0.0795 0.28194,0.60048 -0.10857,0.28429 -0.12427,0.43889 -0.0626,0.61594 0.10116,0.2902 -0.71979,0.36002 -0.93278,0.0793 -0.1773,-0.23366 -0.50201,-0.31111 -0.91698,-0.21871 -0.20696,0.0461 -0.6811,0.12081 -1.05363,0.16607 -0.80033,0.0972 -1.07649,0.16792 -1.1155,0.28552 -0.0364,0.10962 0.93326,0.42055 1.70817,0.54775 0.51953,0.0853 0.98237,0.23602 1.94733,0.63421 0.1397,0.0576 0.35877,0.14745 0.48683,0.19957 0.23525,0.0957 0.32236,0.34413 0.127,0.36213 -0.25892,0.0239 -0.47674,-0.0423 -0.93028,-0.28275 -0.39974,-0.21187 -0.50847,-0.23865 -0.61384,-0.15121 -0.1086,0.0901 -0.12804,0.0734 -0.12804,-0.11005 0,-0.26162 -0.16204,-0.32595 -0.77939,-0.3094 -0.24655,0.007 -0.62926,-0.0156 -0.85045,-0.0493 -0.34965,-0.0533 -0.40216,-0.0421 -0.40216,0.0865 0,0.19543 0.71075,0.89117 0.9104,0.89117 0.086,0 0.19259,0.0342 0.23683,0.076 0.31761,0.29995 1.82396,0.73544 2.05176,0.59318 0.37564,-0.23459 0.52374,0.15456 0.5256,1.38108 8.7e-4,0.57386 -0.20818,0.86592 -0.99779,1.39401 -0.9735,0.65107 -1.15238,0.69115 -1.83182,0.41042 z m 1.47568,-2.8828 c 0,-0.0708 -0.10477,-0.16931 -0.23283,-0.21881 -0.12806,-0.0495 -0.3407,-0.14393 -0.47253,-0.20985 -0.33967,-0.16984 -0.71025,-0.14854 -0.92688,0.0533 -0.21368,0.19907 -0.105,0.33019 0.27758,0.33488 0.11641,0.001 0.26881,0.0395 0.33866,0.0847 0.21777,0.14074 1.016,0.10605 1.016,-0.0442 z m -1.91453,-17.0431 c 0.0235,-0.0381 -0.052,-0.17144 -0.16776,-0.29633 -0.21201,-0.22865 -0.57035,-0.30265 -0.67167,-0.13871 -0.0828,0.13402 0.12495,0.33496 0.34633,0.33496 0.10797,0 0.21985,0.0381 0.24863,0.0847 0.0633,0.10245 0.18591,0.11018 0.24447,0.0154 z m -20.606801,17.28688 c 0,-0.26096 -0.24042,-0.41524 -0.377064,-0.24196 -0.1291,0.16371 -0.131801,0.16169 -0.08135,-0.061 0.03502,-0.15459 0.0076,-0.2749 -0.08337,-0.36588 -0.151058,-0.15106 -0.181578,-0.37745 -0.05088,-0.37745 0.04657,0 0.08467,0.0572 0.08467,0.127 0,0.0699 0.0381,0.127 0.08467,0.127 0.105614,0 0.112238,-0.31164 0.008,-0.37606 -0.09388,-0.058 0.08392,-0.46878 0.203674,-0.47053 0.07877,-0.001 0.205392,-0.17231 0.591968,-0.80017 0.298366,-0.48459 0.369197,0.54267 0.125884,1.82566 -0.105158,0.5545 -0.133003,0.58196 -0.20436,0.20159 -0.05347,-0.28501 -0.24276,-0.46778 -0.361501,-0.34904 -0.0288,0.0288 -0.0019,0.20515 0.05968,0.39188 0.06163,0.18673 0.08684,0.36472 0.05602,0.39553 -0.03081,0.0308 -0.05602,0.0189 -0.05602,-0.0266 z M 118.8409,136.48266 c 0.002,-0.87843 -0.46581,-1.99138 -1.04223,-2.4821 -0.20128,-0.17136 -0.43264,-0.36879 -0.51413,-0.43873 -0.0815,-0.0699 -0.16149,-0.12717 -0.17778,-0.12717 -0.0163,0 -0.37721,-0.20955 -0.80205,-0.46566 -0.42484,-0.25612 -0.81972,-0.46567 -0.87752,-0.46567 -0.0578,0 -0.57111,-0.2286 -1.14069,-0.508 -0.56958,-0.2794 -1.07199,-0.508 -1.11646,-0.508 -0.0445,0 -0.28466,-0.0949 -0.53376,-0.21084 -0.52616,-0.24494 -0.81749,-0.26914 -0.89232,-0.0741 -0.0516,0.13443 1.00066,1.24047 1.47698,1.55248 0.19028,0.12465 0.26485,0.42581 0.10543,0.42581 -0.0466,0 -0.0847,-0.0594 -0.0847,-0.13199 0,-0.0726 -0.0347,-0.11058 -0.077,-0.0844 -0.1556,0.0962 -0.35286,-0.0529 -0.29814,-0.22532 0.0452,-0.14232 0.0232,-0.16013 -0.14564,-0.11776 -0.10938,0.0274 -0.15124,0.028 -0.093,0.001 0.21801,-0.10012 0.10347,-0.22452 -0.15849,-0.17213 -0.22107,0.0442 -0.24811,0.0333 -0.16522,-0.0665 0.0624,-0.0752 0.0684,-0.13841 0.0162,-0.17067 -0.0456,-0.0282 -0.10937,-0.008 -0.14169,0.0438 -0.0416,0.0674 -0.08,0.0616 -0.13156,-0.0198 -0.11293,-0.17823 -0.089,-0.2408 0.0728,-0.19049 0.11003,0.0342 0.10458,0.0196 -0.0212,-0.057 -0.34747,-0.21143 -0.53489,-0.52819 -0.49718,-0.84032 0.0322,-0.26676 0.0268,-0.27639 -0.0528,-0.0943 -0.0488,0.11154 -0.10876,0.18271 -0.13331,0.15816 -0.0672,-0.0672 0.0554,-0.48795 0.14212,-0.48795 0.0415,0 0.0755,-0.0779 0.0755,-0.17318 0,-0.16289 -0.0129,-0.16023 -0.21788,0.0447 -0.22718,0.22718 -0.22952,0.67677 -0.004,0.82699 0.0683,0.0456 0.0636,0.0839 -0.0168,0.13579 -0.12693,0.082 1.02975,1.28238 1.23565,1.28238 0.21444,0 0.0725,0.37554 -0.19234,0.50888 -0.1397,0.0703 -0.51248,0.27036 -0.82841,0.4445 -0.58343,0.32159 -0.86808,0.41291 -0.67019,0.21502 0.13369,-0.13369 0.13071,-0.34545 -0.004,-0.30094 -0.17986,0.0593 -0.31613,0.41623 -0.22438,0.58767 0.0642,0.11994 0.0511,0.15353 -0.0601,0.15353 -0.42352,0 0.50691,-4.72048 1.13039,-5.73502 0.21221,-0.34531 0.29197,-0.40367 0.66714,-0.48817 0.23437,-0.0528 0.61368,-0.20355 0.84293,-0.33504 1.09406,-0.62753 1.11019,-0.63357 1.55232,-0.5812 0.29338,0.0347 0.52685,0.007 0.77108,-0.0903 0.34572,-0.13833 0.35362,-0.13737 0.60418,0.0735 0.13963,0.11749 0.29378,0.21363 0.34254,0.21363 0.0488,0 0.31688,0.1524 0.59582,0.33866 0.41704,0.27849 0.5799,0.33867 0.91653,0.33867 0.5088,0 0.73743,0.25752 1.05339,1.1865 0.11552,0.33963 0.34406,0.86135 0.50787,1.15936 0.29784,0.54184 0.29784,0.54184 0.20289,1.15116 -0.0522,0.33512 -0.10523,0.89506 -0.1178,1.24431 -0.034,0.94367 -0.18386,1.9037 -0.37842,2.4237 -0.0949,0.25373 -0.17419,0.58372 -0.17615,0.73331 -0.002,0.1496 -0.0758,0.40534 -0.16414,0.56833 -0.16059,0.29633 -0.16059,0.29633 -0.15978,-0.16934 z"
         id="path1358"
         sodipodi:nodetypes="csscccccscsccssccccsscsssccsccsscsscscsscssscssssccssssscsssssscsssssscscssssscsscssssscsscscccsscssssssscsccsssssssscccsccssssccssccsssccsccsssscsssssccccccscccccsssccsccccscccsscssscscscccccccccscccccsscsscccsssccsscsccsscscccscssccsscsscccccssssssscscccccccssssccsscssccssccsscssccscscsscssccccssscsccssssssssssccssscssscsscsscccssssssssssssscscssssssssssssssscccccccsccccscccssscsssccccccscscsccscssssccsscccsscsssccccccsscscsssccsssccccssccssscsscccscsssccccsssccscsscccssssscscssccssccscccccscssscccsccsscsccsssscscscccscssssscscscscccccccccsccsscsssccssscccsssccscsscsscsssccsssscscccscsssssccssscccccccccccccssscccscsscssscccccscsssccccccc" />
    </g>
  </g>
</svg>
