<?xml version="1.0" encoding="UTF-8" standalone="no"?>
<svg
   xmlns:dc="http://purl.org/dc/elements/1.1/"
   xmlns:cc="http://creativecommons.org/ns#"
   xmlns:rdf="http://www.w3.org/1999/02/22-rdf-syntax-ns#"
   xmlns:svg="http://www.w3.org/2000/svg"
   xmlns="http://www.w3.org/2000/svg"
   xmlns:sodipodi="http://sodipodi.sourceforge.net/DTD/sodipodi-0.dtd"
   xmlns:inkscape="http://www.inkscape.org/namespaces/inkscape"
   version="1.1"
   viewBox="0 0 816 1056"
   stroke="none"
   id="svg6"
   sodipodi:docname="qrcode.svg"
   inkscape:export-filename="/home/vannostrand/Documents/webstuff/annies-gallery-2/src/assets/qrcode.png"
   inkscape:export-xdpi="1281.899"
   inkscape:export-ydpi="1281.899"
   inkscape:version="1.0.2 (e86c870879, 2021-01-15)"
   width="8.5in"
   height="11in">
  <metadata
     id="metadata12">
    <rdf:RDF>
      <cc:Work
         rdf:about="">
        <dc:format>image/svg+xml</dc:format>
        <dc:type
           rdf:resource="http://purl.org/dc/dcmitype/StillImage" />
        <dc:title></dc:title>
      </cc:Work>
    </rdf:RDF>
  </metadata>
  <defs
     id="defs10" />
  <sodipodi:namedview
     pagecolor="#ffffff"
     bordercolor="#666666"
     borderopacity="1"
     objecttolerance="10"
     gridtolerance="10"
     guidetolerance="10"
     inkscape:pageopacity="0"
     inkscape:pageshadow="2"
     inkscape:window-width="1920"
     inkscape:window-height="1004"
     id="namedview8"
     showgrid="false"
     inkscape:zoom="0.46779672"
     inkscape:cx="47.935413"
     inkscape:cy="602.15619"
     inkscape:window-x="0"
     inkscape:window-y="0"
     inkscape:window-maximized="1"
     inkscape:current-layer="svg6"
     inkscape:document-rotation="0"
     units="in"
     fit-margin-top="0"
     fit-margin-left="0"
     fit-margin-right="0"
     fit-margin-bottom="0"
     inkscape:pagecheckerboard="true" />
  <rect
     width="100%"
     height="100%"
     fill="#ffffff"
     id="rect2"
     x="-3.8629384"
     y="-3.8706403" />
  <path
     d="m 201.49,198.80346 h 19.85946 v 19.85946 H 201.49 Z m 19.85946,0 h 19.85947 v 19.85946 h -19.85947 z m 19.85947,0 h 19.85946 v 19.85946 h -19.85946 z m 19.85946,0 h 19.85947 v 19.85946 h -19.85947 z m 19.85947,0 h 19.85946 v 19.85946 h -19.85946 z m 19.85946,0 h 19.85945 v 19.85946 h -19.85945 z m 19.85945,0 h 19.85947 v 19.85946 h -19.85947 z m 59.57839,0 h 19.85947 v 19.85946 h -19.85947 z m 19.85947,0 h 19.85947 v 19.85946 h -19.85947 z m 119.15679,0 h 19.85947 v 19.85946 h -19.85947 z m 39.71893,0 h 19.85947 v 19.85946 h -19.85947 z m 19.85947,0 h 19.85945 v 19.85946 h -19.85945 z m 19.85945,0 h 19.85946 v 19.85946 h -19.85946 z m 19.85946,0 h 19.85947 v 19.85946 h -19.85947 z m 19.85947,0 h 19.85946 v 19.85946 H 638.3982 Z m 19.85946,0 h 19.85946 v 19.85946 h -19.85946 z m 19.85946,0 h 19.85947 v 19.85946 H 678.11712 Z M 201.49,218.66292 h 19.85946 v 19.85947 H 201.49 Z m 119.15677,0 h 19.85947 v 19.85947 h -19.85947 z m 79.43786,0 h 19.85947 v 19.85947 h -19.85947 z m 79.43787,0 h 19.85946 v 19.85947 H 479.5225 Z m 19.85946,0 h 19.85946 v 19.85947 h -19.85946 z m 59.57839,0 h 19.85947 v 19.85947 h -19.85947 z m 119.15677,0 h 19.85947 v 19.85947 H 678.11712 Z M 201.49,238.52239 h 19.85946 v 19.85946 H 201.49 Z m 39.71893,0 h 19.85946 v 19.85946 h -19.85946 z m 19.85946,0 h 19.85947 v 19.85946 h -19.85947 z m 19.85947,0 h 19.85946 v 19.85946 h -19.85946 z m 39.71891,0 h 19.85947 v 19.85946 h -19.85947 z m 39.71893,0 h 19.85946 v 19.85946 H 360.3657 Z m 39.71893,0 h 19.85947 v 19.85946 h -19.85947 z m 79.43787,0 h 19.85946 v 19.85946 H 479.5225 Z m 79.43785,0 h 19.85947 v 19.85946 h -19.85947 z m 39.71892,0 h 19.85946 v 19.85946 h -19.85946 z m 19.85946,0 h 19.85947 v 19.85946 h -19.85947 z m 19.85947,0 h 19.85946 v 19.85946 H 638.3982 Z m 39.71892,0 h 19.85947 v 19.85946 H 678.11712 Z M 201.49,258.38185 h 19.85946 v 19.85947 H 201.49 Z m 39.71893,0 h 19.85946 v 19.85947 h -19.85946 z m 19.85946,0 h 19.85947 v 19.85947 h -19.85947 z m 19.85947,0 h 19.85946 v 19.85947 h -19.85946 z m 39.71891,0 h 19.85947 v 19.85947 h -19.85947 z m 39.71893,0 h 19.85946 v 19.85947 H 360.3657 Z m 19.85946,0 h 19.85947 v 19.85947 h -19.85947 z m 39.71894,0 h 19.85947 v 19.85947 H 419.9441 Z m 19.85947,0 h 19.85946 v 19.85947 h -19.85946 z m 19.85946,0 h 19.85947 v 19.85947 h -19.85947 z m 19.85947,0 h 19.85946 v 19.85947 H 479.5225 Z m 19.85946,0 h 19.85946 v 19.85947 h -19.85946 z m 59.57839,0 h 19.85947 v 19.85947 h -19.85947 z m 39.71892,0 h 19.85946 v 19.85947 h -19.85946 z m 19.85946,0 h 19.85947 v 19.85947 h -19.85947 z m 19.85947,0 h 19.85946 v 19.85947 H 638.3982 Z m 39.71892,0 h 19.85947 v 19.85947 H 678.11712 Z M 201.49,278.24132 h 19.85946 v 19.85946 H 201.49 Z m 39.71893,0 h 19.85946 v 19.85946 h -19.85946 z m 19.85946,0 h 19.85947 v 19.85946 h -19.85947 z m 19.85947,0 h 19.85946 v 19.85946 h -19.85946 z m 39.71891,0 h 19.85947 v 19.85946 h -19.85947 z m 39.71893,0 h 19.85946 v 19.85946 H 360.3657 Z m 19.85946,0 h 19.85947 v 19.85946 h -19.85947 z m 39.71894,0 h 19.85947 v 19.85946 H 419.9441 Z m 59.5784,0 h 19.85946 v 19.85946 H 479.5225 Z m 39.71892,0 h 19.85947 v 19.85946 h -19.85947 z m 39.71893,0 h 19.85947 v 19.85946 h -19.85947 z m 39.71892,0 h 19.85946 v 19.85946 h -19.85946 z m 19.85946,0 h 19.85947 v 19.85946 h -19.85947 z m 19.85947,0 h 19.85946 v 19.85946 H 638.3982 Z m 39.71892,0 h 19.85947 v 19.85946 H 678.11712 Z M 201.49,298.10078 h 19.85946 v 19.85946 H 201.49 Z m 119.15677,0 h 19.85947 v 19.85946 h -19.85947 z m 39.71893,0 h 19.85946 v 19.85946 H 360.3657 Z m 59.5784,0 h 19.85947 v 19.85946 H 419.9441 Z m 39.71893,0 h 19.85947 v 19.85946 h -19.85947 z m 39.71893,0 h 19.85946 v 19.85946 h -19.85946 z m 59.57839,0 h 19.85947 v 19.85946 h -19.85947 z m 119.15677,0 h 19.85947 v 19.85946 H 678.11712 Z M 201.49,317.96024 h 19.85946 V 337.8197 H 201.49 Z m 19.85946,0 h 19.85947 v 19.85946 h -19.85947 z m 19.85947,0 h 19.85946 v 19.85946 h -19.85946 z m 19.85946,0 h 19.85947 v 19.85946 h -19.85947 z m 19.85947,0 h 19.85946 v 19.85946 h -19.85946 z m 19.85946,0 h 19.85945 v 19.85946 h -19.85945 z m 19.85945,0 h 19.85947 v 19.85946 h -19.85947 z m 39.71893,0 h 19.85946 V 337.8197 H 360.3657 Z m 39.71893,0 h 19.85947 v 19.85946 h -19.85947 z m 39.71894,0 h 19.85946 v 19.85946 h -19.85946 z m 39.71893,0 h 19.85946 V 337.8197 H 479.5225 Z m 39.71892,0 h 19.85947 v 19.85946 h -19.85947 z m 39.71893,0 h 19.85947 v 19.85946 h -19.85947 z m 19.85947,0 h 19.85945 v 19.85946 h -19.85945 z m 19.85945,0 h 19.85946 v 19.85946 h -19.85946 z m 19.85946,0 h 19.85947 v 19.85946 h -19.85947 z m 19.85947,0 h 19.85946 V 337.8197 H 638.3982 Z m 19.85946,0 h 19.85946 v 19.85946 h -19.85946 z m 19.85946,0 h 19.85947 V 337.8197 H 678.11712 Z M 360.3657,337.8197 h 19.85946 v 19.85946 H 360.3657 Z m 59.5784,0 h 19.85947 v 19.85946 H 419.9441 Z m 79.43786,0 h 19.85946 v 19.85946 h -19.85946 z m 19.85946,0 h 19.85947 v 19.85946 H 519.24142 Z M 201.49,357.67916 h 19.85946 v 19.85946 H 201.49 Z m 39.71893,0 h 19.85946 v 19.85946 h -19.85946 z m 19.85946,0 h 19.85947 v 19.85946 h -19.85947 z m 19.85947,0 h 19.85946 v 19.85946 h -19.85946 z m 19.85946,0 h 19.85945 v 19.85946 h -19.85945 z m 19.85945,0 h 19.85947 v 19.85946 h -19.85947 z m 59.57839,0 h 19.85947 v 19.85946 h -19.85947 z m 39.71894,0 h 19.85947 v 19.85946 H 419.9441 Z m 19.85947,0 h 19.85946 v 19.85946 h -19.85946 z m 19.85946,0 h 19.85947 v 19.85946 h -19.85947 z m 19.85947,0 h 19.85946 v 19.85946 H 479.5225 Z m 19.85946,0 h 19.85946 v 19.85946 h -19.85946 z m 19.85946,0 h 19.85947 v 19.85946 h -19.85947 z m 39.71893,0 h 19.85947 v 19.85946 h -19.85947 z m 19.85947,0 h 19.85945 v 19.85946 h -19.85945 z m 19.85945,0 h 19.85946 v 19.85946 h -19.85946 z m 19.85946,0 h 19.85947 v 19.85946 h -19.85947 z m 19.85947,0 h 19.85946 v 19.85946 H 638.3982 Z m -397.18927,19.85946 h 19.85946 v 19.85947 h -19.85946 z m 19.85946,0 h 19.85947 v 19.85947 h -19.85947 z m 39.71893,0 h 19.85945 v 19.85947 h -19.85945 z m 39.71892,0 h 19.85946 v 19.85947 h -19.85946 z m 19.85946,0 h 19.85946 v 19.85947 H 360.3657 Z m 119.1568,0 h 19.85946 v 19.85947 H 479.5225 Z m 39.71892,0 h 19.85947 v 19.85947 h -19.85947 z m 19.85947,0 h 19.85946 v 19.85947 h -19.85946 z m 39.71893,0 h 19.85945 v 19.85947 h -19.85945 z m 79.43784,0 h 19.85946 v 19.85947 h -19.85946 z m -417.04873,19.85947 h 19.85946 v 19.85947 h -19.85946 z m 19.85946,0 h 19.85947 v 19.85947 h -19.85947 z m 19.85947,0 h 19.85946 v 19.85947 h -19.85946 z m 19.85946,0 h 19.85945 v 19.85947 h -19.85945 z m 19.85945,0 h 19.85947 v 19.85947 h -19.85947 z m 19.85947,0 h 19.85946 v 19.85947 h -19.85946 z m 39.71892,0 h 19.85947 v 19.85947 h -19.85947 z m 19.85947,0 h 19.85947 v 19.85947 h -19.85947 z m 39.71894,0 h 19.85946 v 19.85947 h -19.85946 z m 19.85946,0 h 19.85947 v 19.85947 h -19.85947 z m 39.71893,0 h 19.85946 v 19.85947 h -19.85946 z m 19.85946,0 h 19.85947 v 19.85947 h -19.85947 z m 19.85947,0 h 19.85946 v 19.85947 h -19.85946 z m 19.85946,0 h 19.85947 v 19.85947 h -19.85947 z m 19.85947,0 h 19.85945 v 19.85947 h -19.85945 z m 19.85945,0 h 19.85946 v 19.85947 h -19.85946 z m 19.85946,0 h 19.85947 v 19.85947 h -19.85947 z m 39.71893,0 h 19.85946 v 19.85947 h -19.85946 z m 19.85946,0 h 19.85947 v 19.85947 H 678.11712 Z M 201.49,417.25756 h 19.85946 v 19.85947 H 201.49 Z m 238.31357,0 h 19.85946 v 19.85947 h -19.85946 z m 59.57839,0 h 19.85946 v 19.85947 h -19.85946 z m 19.85946,0 h 19.85947 v 19.85947 h -19.85947 z m 19.85947,0 h 19.85946 v 19.85947 h -19.85946 z m 39.71893,0 h 19.85945 v 19.85947 h -19.85945 z m 99.2973,0 h 19.85947 v 19.85947 h -19.85947 z m -456.76766,19.85947 h 19.85947 v 19.85946 h -19.85947 z m 19.85947,0 h 19.85946 v 19.85946 h -19.85946 z m 19.85946,0 h 19.85947 v 19.85946 h -19.85947 z m 59.57838,0 h 19.85947 v 19.85946 h -19.85947 z m 39.71893,0 h 19.85946 v 19.85946 H 360.3657 Z m 19.85946,0 h 19.85947 v 19.85946 h -19.85947 z m 79.43787,0 h 19.85947 v 19.85946 h -19.85947 z m 19.85947,0 h 19.85946 v 19.85946 H 479.5225 Z m 19.85946,0 h 19.85946 v 19.85946 h -19.85946 z m 19.85946,0 h 19.85947 v 19.85946 h -19.85947 z m 39.71893,0 h 19.85947 v 19.85946 h -19.85947 z m 19.85947,0 h 19.85945 v 19.85946 h -19.85945 z m 19.85945,0 h 19.85946 v 19.85946 h -19.85946 z m 39.71893,0 h 19.85946 v 19.85946 H 638.3982 Z m 19.85946,0 h 19.85946 v 19.85946 h -19.85946 z m 19.85946,0 h 19.85947 v 19.85946 H 678.11712 Z M 201.49,456.97649 h 19.85946 v 19.85947 H 201.49 Z m 39.71893,0 h 19.85946 v 19.85947 h -19.85946 z m 39.71893,0 h 19.85946 v 19.85947 h -19.85946 z m 19.85946,0 h 19.85945 v 19.85947 h -19.85945 z m 39.71892,0 h 19.85946 v 19.85947 h -19.85946 z m 99.29733,0 h 19.85946 v 19.85947 h -19.85946 z m 19.85946,0 h 19.85947 v 19.85947 h -19.85947 z m 19.85947,0 h 19.85946 v 19.85947 H 479.5225 Z m 39.71892,0 h 19.85947 v 19.85947 h -19.85947 z m 59.5784,0 h 19.85945 v 19.85947 h -19.85945 z m 39.71891,0 h 19.85947 v 19.85947 h -19.85947 z m 39.71893,0 h 19.85946 v 19.85947 H 658.25766 Z M 201.49,476.83596 h 19.85946 v 19.85946 H 201.49 Z m 39.71893,0 h 19.85946 v 19.85946 h -19.85946 z m 19.85946,0 h 19.85947 v 19.85946 h -19.85947 z m 59.57838,0 h 19.85947 v 19.85946 h -19.85947 z m 39.71893,0 h 19.85946 v 19.85946 H 360.3657 Z m 19.85946,0 h 19.85947 v 19.85946 h -19.85947 z m 19.85947,0 h 19.85947 v 19.85946 h -19.85947 z m 99.29733,0 h 19.85946 v 19.85946 h -19.85946 z m 19.85946,0 h 19.85947 v 19.85946 h -19.85947 z m 19.85947,0 h 19.85946 v 19.85946 h -19.85946 z m 39.71893,0 h 19.85945 v 19.85946 h -19.85945 z m 19.85945,0 h 19.85946 v 19.85946 h -19.85946 z m 19.85946,0 h 19.85947 v 19.85946 h -19.85947 z m 39.71893,0 h 19.85946 v 19.85946 h -19.85946 z m 19.85946,0 h 19.85947 v 19.85946 H 678.11712 Z M 201.49,496.69542 h 19.85946 v 19.85946 H 201.49 Z m 39.71893,0 h 19.85946 v 19.85946 h -19.85946 z m 59.57839,0 h 19.85945 v 19.85946 h -19.85945 z m 59.57838,0 h 19.85946 v 19.85946 H 360.3657 Z m 39.71893,0 h 19.85947 v 19.85946 h -19.85947 z m 39.71894,0 h 19.85946 v 19.85946 h -19.85946 z m 39.71893,0 h 19.85946 v 19.85946 H 479.5225 Z m 39.71892,0 h 19.85947 v 19.85946 h -19.85947 z m 59.5784,0 h 19.85945 v 19.85946 h -19.85945 z m 39.71891,0 h 19.85947 v 19.85946 h -19.85947 z m 59.57839,0 h 19.85947 v 19.85946 H 678.11712 Z M 201.49,516.55488 h 19.85946 v 19.85947 H 201.49 Z m 39.71893,0 h 19.85946 v 19.85947 h -19.85946 z m 79.43784,0 h 19.85947 v 19.85947 h -19.85947 z m 19.85947,0 h 19.85946 v 19.85947 h -19.85946 z m 99.29733,0 h 19.85946 v 19.85947 h -19.85946 z m 19.85946,0 h 19.85947 v 19.85947 h -19.85947 z m 59.57839,0 h 19.85947 v 19.85947 h -19.85947 z m 19.85947,0 h 19.85946 v 19.85947 h -19.85946 z m 19.85946,0 h 19.85947 v 19.85947 h -19.85947 z m 19.85947,0 h 19.85945 v 19.85947 h -19.85945 z m 19.85945,0 h 19.85946 v 19.85947 h -19.85946 z m 39.71893,0 h 19.85946 v 19.85947 H 638.3982 Z m -278.0325,19.85947 h 19.85946 v 19.85946 H 360.3657 Z m 19.85946,0 h 19.85947 v 19.85946 h -19.85947 z m 79.43787,0 h 19.85947 v 19.85946 h -19.85947 z m 39.71893,0 h 19.85946 v 19.85946 h -19.85946 z m 19.85946,0 h 19.85947 v 19.85946 h -19.85947 z m 79.43785,0 h 19.85946 v 19.85946 h -19.85946 z m 19.85946,0 h 19.85947 v 19.85946 h -19.85947 z m 19.85947,0 h 19.85946 v 19.85946 H 638.3982 Z M 201.49,556.27381 h 19.85946 v 19.85947 H 201.49 Z m 19.85946,0 h 19.85947 v 19.85947 h -19.85947 z m 19.85947,0 h 19.85946 v 19.85947 h -19.85946 z m 19.85946,0 h 19.85947 v 19.85947 h -19.85947 z m 19.85947,0 h 19.85946 v 19.85947 h -19.85946 z m 19.85946,0 h 19.85945 v 19.85947 h -19.85945 z m 19.85945,0 h 19.85947 v 19.85947 h -19.85947 z m 59.57839,0 h 19.85947 v 19.85947 h -19.85947 z m 19.85947,0 h 19.85947 v 19.85947 h -19.85947 z m 19.85947,0 h 19.85947 v 19.85947 H 419.9441 Z m 19.85947,0 h 19.85946 v 19.85947 h -19.85946 z m 19.85946,0 h 19.85947 v 19.85947 h -19.85947 z m 19.85947,0 h 19.85946 v 19.85947 H 479.5225 Z m 39.71892,0 h 19.85947 v 19.85947 h -19.85947 z m 39.71893,0 h 19.85947 v 19.85947 h -19.85947 z m 39.71892,0 h 19.85946 v 19.85947 h -19.85946 z m 19.85946,0 h 19.85947 v 19.85947 h -19.85947 z m 19.85947,0 h 19.85946 v 19.85947 H 638.3982 Z m 19.85946,0 h 19.85946 v 19.85947 h -19.85946 z m 19.85946,0 h 19.85947 v 19.85947 H 678.11712 Z M 201.49,576.13328 h 19.85946 v 19.85945 H 201.49 Z m 119.15677,0 h 19.85947 v 19.85945 h -19.85947 z m 39.71893,0 h 19.85946 v 19.85945 H 360.3657 Z m 19.85946,0 h 19.85947 v 19.85945 h -19.85947 z m 39.71894,0 h 19.85947 v 19.85945 H 419.9441 Z m 99.29732,0 h 19.85947 v 19.85945 h -19.85947 z m 79.43785,0 h 19.85946 v 19.85945 h -19.85946 z m 19.85946,0 h 19.85947 v 19.85945 h -19.85947 z m 59.57839,0 h 19.85947 v 19.85945 H 678.11712 Z M 201.49,595.99273 h 19.85946 v 19.85946 H 201.49 Z m 39.71893,0 h 19.85946 v 19.85946 h -19.85946 z m 19.85946,0 h 19.85947 v 19.85946 h -19.85947 z m 19.85947,0 h 19.85946 v 19.85946 h -19.85946 z m 39.71891,0 h 19.85947 v 19.85946 h -19.85947 z m 39.71893,0 h 19.85946 v 19.85946 H 360.3657 Z m 19.85946,0 h 19.85947 v 19.85946 h -19.85947 z m 39.71894,0 h 19.85947 v 19.85946 H 419.9441 Z m 19.85947,0 h 19.85946 v 19.85946 h -19.85946 z m 19.85946,0 h 19.85947 v 19.85946 h -19.85947 z m 19.85947,0 h 19.85946 v 19.85946 H 479.5225 Z m 19.85946,0 h 19.85946 v 19.85946 h -19.85946 z m 19.85946,0 h 19.85947 v 19.85946 h -19.85947 z m 19.85947,0 h 19.85946 v 19.85946 h -19.85946 z m 19.85946,0 h 19.85947 v 19.85946 h -19.85947 z m 19.85947,0 h 19.85945 v 19.85946 h -19.85945 z m 19.85945,0 h 19.85946 v 19.85946 h -19.85946 z m 19.85946,0 h 19.85947 v 19.85946 h -19.85947 z m 19.85947,0 h 19.85946 v 19.85946 H 638.3982 Z M 201.49,615.85219 h 19.85946 v 19.85947 H 201.49 Z m 39.71893,0 h 19.85946 v 19.85947 h -19.85946 z m 19.85946,0 h 19.85947 v 19.85947 h -19.85947 z m 19.85947,0 h 19.85946 v 19.85947 h -19.85946 z m 39.71891,0 h 19.85947 v 19.85947 h -19.85947 z m 39.71893,0 h 19.85946 v 19.85947 H 360.3657 Z m 79.43787,0 h 19.85946 v 19.85947 h -19.85946 z m 79.43785,0 h 19.85947 v 19.85947 h -19.85947 z m 19.85947,0 h 19.85946 v 19.85947 h -19.85946 z m 19.85946,0 h 19.85947 v 19.85947 h -19.85947 z m 19.85947,0 h 19.85945 v 19.85947 h -19.85945 z m 19.85945,0 h 19.85946 v 19.85947 h -19.85946 z m 39.71893,0 h 19.85946 v 19.85947 H 638.3982 Z m 19.85946,0 h 19.85946 v 19.85947 h -19.85946 z m 19.85946,0 h 19.85947 v 19.85947 H 678.11712 Z M 201.49,635.71166 h 19.85946 v 19.85946 H 201.49 Z m 39.71893,0 h 19.85946 v 19.85946 h -19.85946 z m 19.85946,0 h 19.85947 v 19.85946 h -19.85947 z m 19.85947,0 h 19.85946 v 19.85946 h -19.85946 z m 39.71891,0 h 19.85947 v 19.85946 h -19.85947 z m 39.71893,0 h 19.85946 v 19.85946 H 360.3657 Z m 19.85946,0 h 19.85947 v 19.85946 h -19.85947 z m 19.85947,0 h 19.85947 v 19.85946 h -19.85947 z m 59.5784,0 h 19.85947 v 19.85946 h -19.85947 z m 39.71893,0 h 19.85946 v 19.85946 h -19.85946 z m 39.71893,0 h 19.85946 v 19.85946 h -19.85946 z m 39.71893,0 h 19.85945 v 19.85946 h -19.85945 z m 59.57838,0 h 19.85946 v 19.85946 H 638.3982 Z m 39.71892,0 h 19.85947 v 19.85946 H 678.11712 Z M 201.49,655.57112 h 19.85946 v 19.85946 H 201.49 Z m 119.15677,0 h 19.85947 v 19.85946 h -19.85947 z m 119.1568,0 h 19.85946 v 19.85946 h -19.85946 z m 39.71893,0 h 19.85946 v 19.85946 H 479.5225 Z m 19.85946,0 h 19.85946 v 19.85946 h -19.85946 z m 19.85946,0 h 19.85947 v 19.85946 h -19.85947 z m 39.71893,0 h 19.85947 v 19.85946 h -19.85947 z m 19.85947,0 h 19.85945 v 19.85946 h -19.85945 z m 19.85945,0 h 19.85946 v 19.85946 h -19.85946 z m 19.85946,0 h 19.85947 v 19.85946 h -19.85947 z m 59.57839,0 h 19.85947 v 19.85946 H 678.11712 Z M 201.49,675.43058 h 19.85946 v 19.85947 H 201.49 Z m 19.85946,0 h 19.85947 v 19.85947 h -19.85947 z m 19.85947,0 h 19.85946 v 19.85947 h -19.85946 z m 19.85946,0 h 19.85947 v 19.85947 h -19.85947 z m 19.85947,0 h 19.85946 v 19.85947 h -19.85946 z m 19.85946,0 h 19.85945 v 19.85947 h -19.85945 z m 19.85945,0 h 19.85947 v 19.85947 h -19.85947 z m 39.71893,0 h 19.85946 v 19.85947 H 360.3657 Z m 79.43787,0 h 19.85946 v 19.85947 h -19.85946 z m 19.85946,0 h 19.85947 v 19.85947 h -19.85947 z m 19.85947,0 h 19.85946 v 19.85947 H 479.5225 Z m 59.57839,0 h 19.85946 v 19.85947 h -19.85946 z m 39.71893,0 h 19.85945 v 19.85947 h -19.85945 z m 19.85945,0 h 19.85946 v 19.85947 h -19.85946 z m 19.85946,0 h 19.85947 v 19.85947 h -19.85947 z m 19.85947,0 h 19.85946 v 19.85947 H 638.3982 Z m 19.85946,0 h 19.85946 v 19.85947 h -19.85946 z m 19.85946,0 h 19.85947 v 19.85947 h -19.85947 z"
     fill="#000000"
     id="path4"
     inkscape:export-xdpi="1250.3"
     inkscape:export-ydpi="1250.3"
     style="stroke-width:19.8594" />
</svg>
